<svg id="ad96a23f-ae80-454f-afdd-90c3df6564f7" data-name="Layer 1" xmlns="http://www.w3.org/2000/svg" viewBox="0 0 87.18 61.67"><defs><style>.b26ea0e6-a166-484b-9dd2-ad949fde7fe8{fill:#004fff;}.bd9e0bbf-1d3e-4f21-9b81-2d9fea4ab998{fill:#022563;}.bc85b861-c6f4-445e-ad3d-2da1f866a281{fill:#00c5d4;}.f0226312-bfc0-4b69-bc1c-3f035f1ebe11{fill:#00aeef;}</style></defs><rect class="b26ea0e6-a166-484b-9dd2-ad949fde7fe8" x="0.89" width="11.24" height="1.65" rx="0.58"/><rect class="bd9e0bbf-1d3e-4f21-9b81-2d9fea4ab998" x="8.17" y="29.57" width="14.31" height="1.65" rx="0.58"/><rect class="b26ea0e6-a166-484b-9dd2-ad949fde7fe8" x="13.49" width="4.87" height="1.65" rx="0.58"/><rect class="b26ea0e6-a166-484b-9dd2-ad949fde7fe8" x="19.48" width="17.31" height="1.65" rx="0.58"/><rect class="b26ea0e6-a166-484b-9dd2-ad949fde7fe8" x="37.84" width="3.29" height="1.65" rx="0.58"/><rect class="bd9e0bbf-1d3e-4f21-9b81-2d9fea4ab998" x="4.28" y="3.09" width="6.62" height="1.65" rx="0.58"/><rect class="bc85b861-c6f4-445e-ad3d-2da1f866a281" x="12.15" y="3.09" width="17.98" height="1.65" rx="0.58"/><rect class="b26ea0e6-a166-484b-9dd2-ad949fde7fe8" x="3.75" y="5.86" width="3.29" height="1.65" rx="0.58"/><rect class="b26ea0e6-a166-484b-9dd2-ad949fde7fe8" x="8.08" y="5.86" width="14.4" height="1.65" rx="0.58"/><rect class="b26ea0e6-a166-484b-9dd2-ad949fde7fe8" x="24.01" y="5.86" width="6.62" height="1.65" rx="0.58"/><rect class="bd9e0bbf-1d3e-4f21-9b81-2d9fea4ab998" x="4.31" y="8.94" width="4.66" height="1.65" rx="0.58"/><rect class="bc85b861-c6f4-445e-ad3d-2da1f866a281" x="9.99" y="8.94" width="17.73" height="1.65" rx="0.58"/><rect class="b26ea0e6-a166-484b-9dd2-ad949fde7fe8" x="28.89" y="8.94" width="4.85" height="1.65" rx="0.58"/><rect class="b26ea0e6-a166-484b-9dd2-ad949fde7fe8" x="34.36" y="8.94" width="4.85" height="1.65" rx="0.58"/><rect class="b26ea0e6-a166-484b-9dd2-ad949fde7fe8" x="8.13" y="12.01" width="6.33" height="1.65" rx="0.58"/><rect class="b26ea0e6-a166-484b-9dd2-ad949fde7fe8" x="8.13" y="14.77" width="14.81" height="1.65" rx="0.58"/><rect class="b26ea0e6-a166-484b-9dd2-ad949fde7fe8" x="7.66" y="17.54" width="4.66" height="1.65" rx="0.58"/><rect class="b26ea0e6-a166-484b-9dd2-ad949fde7fe8" x="13.21" y="17.54" width="12.28" height="1.65" rx="0.58"/><rect class="b26ea0e6-a166-484b-9dd2-ad949fde7fe8" x="4.31" y="20.53" width="3.29" height="1.65" rx="0.58"/><rect class="bc85b861-c6f4-445e-ad3d-2da1f866a281" x="4.31" y="23.65" width="21.43" height="1.65" rx="0.58"/><rect class="b26ea0e6-a166-484b-9dd2-ad949fde7fe8" x="26.79" y="23.65" width="4.53" height="1.65" rx="0.58"/><rect class="b26ea0e6-a166-484b-9dd2-ad949fde7fe8" x="32.12" y="23.65" width="15.13" height="1.65" rx="0.58"/><rect class="b26ea0e6-a166-484b-9dd2-ad949fde7fe8" x="48.59" y="23.65" width="6.44" height="1.65" rx="0.58"/><rect class="b26ea0e6-a166-484b-9dd2-ad949fde7fe8" x="56.3" y="23.65" width="3.29" height="1.65" rx="0.58"/><rect class="bd9e0bbf-1d3e-4f21-9b81-2d9fea4ab998" x="8.17" y="26.77" width="11.81" height="1.65" rx="0.58"/><rect class="bd9e0bbf-1d3e-4f21-9b81-2d9fea4ab998" x="21.3" y="26.77" width="11.81" height="1.65" rx="0.58"/><rect class="bc85b861-c6f4-445e-ad3d-2da1f866a281" x="33.94" y="26.77" width="6.94" height="1.65" rx="0.58"/><rect class="bc85b861-c6f4-445e-ad3d-2da1f866a281" x="41.81" y="26.77" width="9.13" height="1.65" rx="0.58"/><rect class="b26ea0e6-a166-484b-9dd2-ad949fde7fe8" x="52.25" y="26.77" width="6.65" height="1.65" rx="0.58"/><rect class="b26ea0e6-a166-484b-9dd2-ad949fde7fe8" x="59.76" y="26.77" width="14.88" height="1.65" rx="0.58"/><rect class="b26ea0e6-a166-484b-9dd2-ad949fde7fe8" x="75.66" y="26.77" width="6.65" height="1.65" rx="0.58"/><rect class="f0226312-bfc0-4b69-bc1c-3f035f1ebe11" x="83.57" y="26.77" width="2.77" height="1.65" rx="0.58"/><rect class="b26ea0e6-a166-484b-9dd2-ad949fde7fe8" x="24.01" y="29.57" width="6.62" height="1.65" rx="0.58"/><rect class="b26ea0e6-a166-484b-9dd2-ad949fde7fe8" x="31.61" y="29.57" width="6.62" height="1.65" rx="0.58"/><rect class="b26ea0e6-a166-484b-9dd2-ad949fde7fe8" x="39.49" y="29.57" width="9.1" height="1.65" rx="0.58"/><rect class="b26ea0e6-a166-484b-9dd2-ad949fde7fe8" x="49.8" y="29.57" width="6.5" height="1.65" rx="0.58"/><rect class="b26ea0e6-a166-484b-9dd2-ad949fde7fe8" x="4.42" y="32.38" width="9.13" height="1.65" rx="0.58"/><rect class="b26ea0e6-a166-484b-9dd2-ad949fde7fe8" x="14.78" y="32.38" width="6.52" height="1.65" rx="0.58"/><rect class="b26ea0e6-a166-484b-9dd2-ad949fde7fe8" x="4.17" y="35.49" width="15.18" height="1.65" rx="0.58"/><rect class="b26ea0e6-a166-484b-9dd2-ad949fde7fe8" x="20.14" y="35.49" width="6.66" height="1.65" rx="0.58"/><rect class="b26ea0e6-a166-484b-9dd2-ad949fde7fe8" x="27.99" y="35.49" width="3.33" height="1.65" rx="0.58"/><rect class="bc85b861-c6f4-445e-ad3d-2da1f866a281" x="32.12" y="35.49" width="15.65" height="1.65" rx="0.58"/><rect class="bd9e0bbf-1d3e-4f21-9b81-2d9fea4ab998" x="4.33" y="38.35" width="4.63" height="1.65" rx="0.58"/><rect class="b26ea0e6-a166-484b-9dd2-ad949fde7fe8" x="9.99" y="38.35" width="11.78" height="1.65" rx="0.58"/><rect class="b26ea0e6-a166-484b-9dd2-ad949fde7fe8" x="4.1" y="41.5" width="15.25" height="1.65" rx="0.58"/><rect class="b26ea0e6-a166-484b-9dd2-ad949fde7fe8" x="4.42" y="44.16" width="6.27" height="1.65" rx="0.58"/><rect class="bd9e0bbf-1d3e-4f21-9b81-2d9fea4ab998" x="0.97" y="47.36" width="20.81" height="1.65" rx="0.58"/><rect class="b26ea0e6-a166-484b-9dd2-ad949fde7fe8" x="23.16" y="47.36" width="6.49" height="1.65" rx="0.58"/><rect class="b26ea0e6-a166-484b-9dd2-ad949fde7fe8" x="30.7" y="47.36" width="12.17" height="1.65" rx="0.58"/><rect class="b26ea0e6-a166-484b-9dd2-ad949fde7fe8" x="43.72" y="47.36" width="12.17" height="1.65" rx="0.58"/><rect class="b26ea0e6-a166-484b-9dd2-ad949fde7fe8" x="56.5" y="47.36" width="7.26" height="1.65" rx="0.58"/><rect class="b26ea0e6-a166-484b-9dd2-ad949fde7fe8" x="64.15" y="47.36" width="15.12" height="1.65" rx="0.58"/><rect class="b26ea0e6-a166-484b-9dd2-ad949fde7fe8" x="80.02" y="47.36" width="7.16" height="1.65" rx="0.58"/><rect class="bd9e0bbf-1d3e-4f21-9b81-2d9fea4ab998" x="0.61" y="50.29" width="6.49" height="1.65" rx="0.58"/><rect class="bc85b861-c6f4-445e-ad3d-2da1f866a281" x="8.12" y="50.29" width="2.94" height="1.65" rx="0.58"/><rect class="bc85b861-c6f4-445e-ad3d-2da1f866a281" x="11.78" y="50.29" width="6.49" height="1.65" rx="0.58"/><rect class="b26ea0e6-a166-484b-9dd2-ad949fde7fe8" x="19.28" y="50.29" width="4.45" height="1.65" rx="0.58"/><rect class="b26ea0e6-a166-484b-9dd2-ad949fde7fe8" x="24.74" y="50.29" width="18.13" height="1.65" rx="0.58"/><rect class="b26ea0e6-a166-484b-9dd2-ad949fde7fe8" x="44.01" y="50.29" width="4.58" height="1.65" rx="0.58"/><rect class="b26ea0e6-a166-484b-9dd2-ad949fde7fe8" x="49.4" y="50.29" width="4.72" height="1.65" rx="0.58"/><rect class="bd9e0bbf-1d3e-4f21-9b81-2d9fea4ab998" x="0.92" y="53.22" width="2.32" height="1.65" rx="0.58"/><rect class="bd9e0bbf-1d3e-4f21-9b81-2d9fea4ab998" x="3.85" y="53.22" width="15.07" height="1.65" rx="0.58"/><rect class="b26ea0e6-a166-484b-9dd2-ad949fde7fe8" x="20.22" y="53.22" width="6.49" height="1.65" rx="0.58"/><rect class="b26ea0e6-a166-484b-9dd2-ad949fde7fe8" x="0.25" y="56.34" width="4.89" height="1.65" rx="0.58"/><rect class="b26ea0e6-a166-484b-9dd2-ad949fde7fe8" x="6.01" y="56.34" width="18" height="1.65" rx="0.58"/><rect class="bc85b861-c6f4-445e-ad3d-2da1f866a281" x="24.88" y="56.34" width="4.45" height="1.65" rx="0.58"/><rect class="bc85b861-c6f4-445e-ad3d-2da1f866a281" x="30.69" y="56.34" width="4.68" height="1.65" rx="0.58"/><rect class="b26ea0e6-a166-484b-9dd2-ad949fde7fe8" x="36.18" y="56.34" width="17.94" height="1.65" rx="0.58"/><rect class="b26ea0e6-a166-484b-9dd2-ad949fde7fe8" y="60.03" width="6.31" height="1.65" rx="0.58"/></svg>