<svg id="ebff60ad-4fd0-4a45-ae57-eedcc2476803" data-name="Layer 1" xmlns="http://www.w3.org/2000/svg" viewBox="0 0 89.98 394.36"><defs><style>.a1ace5d6-0043-437f-a3a5-7e2d73fbc82a{fill:#004fff;}.ac22862a-cf24-4a15-adfc-a0556c833150{fill:#022563;}.b0f8c087-2389-4293-835d-a9b2c0517c44{fill:#00c5d4;}.bca737a4-05ae-468b-a674-8ed60dc1d2ae{fill:#00aeef;}</style></defs><rect class="a1ace5d6-0043-437f-a3a5-7e2d73fbc82a" x="0.89" width="11.24" height="1.65" rx="0.58"/><rect class="ac22862a-cf24-4a15-adfc-a0556c833150" x="8.17" y="29.57" width="14.31" height="1.65" rx="0.58"/><rect class="a1ace5d6-0043-437f-a3a5-7e2d73fbc82a" x="13.49" width="4.87" height="1.65" rx="0.58"/><rect class="a1ace5d6-0043-437f-a3a5-7e2d73fbc82a" x="19.48" width="17.31" height="1.65" rx="0.58"/><rect class="a1ace5d6-0043-437f-a3a5-7e2d73fbc82a" x="37.84" width="3.29" height="1.65" rx="0.58"/><rect class="ac22862a-cf24-4a15-adfc-a0556c833150" x="4.28" y="3.09" width="6.62" height="1.65" rx="0.58"/><rect class="b0f8c087-2389-4293-835d-a9b2c0517c44" x="12.15" y="3.09" width="17.98" height="1.65" rx="0.58"/><rect class="a1ace5d6-0043-437f-a3a5-7e2d73fbc82a" x="3.75" y="5.86" width="3.29" height="1.65" rx="0.58"/><rect class="a1ace5d6-0043-437f-a3a5-7e2d73fbc82a" x="8.08" y="5.86" width="14.4" height="1.65" rx="0.58"/><rect class="a1ace5d6-0043-437f-a3a5-7e2d73fbc82a" x="24.01" y="5.86" width="6.62" height="1.65" rx="0.58"/><rect class="ac22862a-cf24-4a15-adfc-a0556c833150" x="4.31" y="8.94" width="4.66" height="1.65" rx="0.58"/><rect class="b0f8c087-2389-4293-835d-a9b2c0517c44" x="9.99" y="8.94" width="17.73" height="1.65" rx="0.58"/><rect class="a1ace5d6-0043-437f-a3a5-7e2d73fbc82a" x="28.89" y="8.94" width="4.85" height="1.65" rx="0.58"/><rect class="a1ace5d6-0043-437f-a3a5-7e2d73fbc82a" x="34.36" y="8.94" width="4.85" height="1.65" rx="0.58"/><rect class="a1ace5d6-0043-437f-a3a5-7e2d73fbc82a" x="8.13" y="12.01" width="6.33" height="1.65" rx="0.58"/><rect class="a1ace5d6-0043-437f-a3a5-7e2d73fbc82a" x="8.13" y="14.77" width="14.81" height="1.65" rx="0.58"/><rect class="a1ace5d6-0043-437f-a3a5-7e2d73fbc82a" x="7.66" y="17.54" width="4.66" height="1.65" rx="0.58"/><rect class="a1ace5d6-0043-437f-a3a5-7e2d73fbc82a" x="13.21" y="17.54" width="12.28" height="1.65" rx="0.58"/><rect class="a1ace5d6-0043-437f-a3a5-7e2d73fbc82a" x="4.31" y="20.53" width="3.29" height="1.65" rx="0.58"/><rect class="b0f8c087-2389-4293-835d-a9b2c0517c44" x="4.31" y="23.65" width="21.43" height="1.65" rx="0.58"/><rect class="a1ace5d6-0043-437f-a3a5-7e2d73fbc82a" x="26.79" y="23.65" width="4.53" height="1.65" rx="0.58"/><rect class="a1ace5d6-0043-437f-a3a5-7e2d73fbc82a" x="32.12" y="23.65" width="15.13" height="1.65" rx="0.58"/><rect class="a1ace5d6-0043-437f-a3a5-7e2d73fbc82a" x="48.59" y="23.65" width="6.44" height="1.65" rx="0.58"/><rect class="a1ace5d6-0043-437f-a3a5-7e2d73fbc82a" x="56.3" y="23.65" width="3.29" height="1.65" rx="0.58"/><rect class="ac22862a-cf24-4a15-adfc-a0556c833150" x="8.17" y="26.77" width="11.81" height="1.65" rx="0.58"/><rect class="ac22862a-cf24-4a15-adfc-a0556c833150" x="21.3" y="26.77" width="11.81" height="1.65" rx="0.58"/><rect class="b0f8c087-2389-4293-835d-a9b2c0517c44" x="33.94" y="26.77" width="6.94" height="1.65" rx="0.58"/><rect class="b0f8c087-2389-4293-835d-a9b2c0517c44" x="41.81" y="26.77" width="9.13" height="1.65" rx="0.58"/><rect class="a1ace5d6-0043-437f-a3a5-7e2d73fbc82a" x="52.25" y="26.77" width="6.65" height="1.65" rx="0.58"/><rect class="a1ace5d6-0043-437f-a3a5-7e2d73fbc82a" x="59.76" y="26.77" width="14.88" height="1.65" rx="0.58"/><rect class="a1ace5d6-0043-437f-a3a5-7e2d73fbc82a" x="75.66" y="26.77" width="6.65" height="1.65" rx="0.58"/><rect class="bca737a4-05ae-468b-a674-8ed60dc1d2ae" x="83.57" y="26.77" width="2.77" height="1.65" rx="0.58"/><rect class="a1ace5d6-0043-437f-a3a5-7e2d73fbc82a" x="24.01" y="29.57" width="6.62" height="1.65" rx="0.58"/><rect class="a1ace5d6-0043-437f-a3a5-7e2d73fbc82a" x="31.61" y="29.57" width="6.62" height="1.65" rx="0.58"/><rect class="a1ace5d6-0043-437f-a3a5-7e2d73fbc82a" x="39.49" y="29.57" width="9.1" height="1.65" rx="0.58"/><rect class="a1ace5d6-0043-437f-a3a5-7e2d73fbc82a" x="49.8" y="29.57" width="6.5" height="1.65" rx="0.58"/><rect class="a1ace5d6-0043-437f-a3a5-7e2d73fbc82a" x="4.42" y="32.38" width="9.13" height="1.65" rx="0.58"/><rect class="a1ace5d6-0043-437f-a3a5-7e2d73fbc82a" x="14.78" y="32.38" width="6.52" height="1.65" rx="0.58"/><rect class="a1ace5d6-0043-437f-a3a5-7e2d73fbc82a" x="4.17" y="35.49" width="15.18" height="1.65" rx="0.58"/><rect class="a1ace5d6-0043-437f-a3a5-7e2d73fbc82a" x="20.14" y="35.49" width="6.66" height="1.65" rx="0.58"/><rect class="a1ace5d6-0043-437f-a3a5-7e2d73fbc82a" x="27.99" y="35.49" width="3.33" height="1.65" rx="0.58"/><rect class="b0f8c087-2389-4293-835d-a9b2c0517c44" x="32.12" y="35.49" width="15.65" height="1.65" rx="0.58"/><rect class="ac22862a-cf24-4a15-adfc-a0556c833150" x="4.33" y="38.35" width="4.63" height="1.65" rx="0.58"/><rect class="a1ace5d6-0043-437f-a3a5-7e2d73fbc82a" x="9.99" y="38.35" width="11.78" height="1.65" rx="0.58"/><rect class="a1ace5d6-0043-437f-a3a5-7e2d73fbc82a" x="4.1" y="41.5" width="15.25" height="1.65" rx="0.58"/><rect class="a1ace5d6-0043-437f-a3a5-7e2d73fbc82a" x="4.42" y="44.16" width="6.27" height="1.65" rx="0.58"/><rect class="ac22862a-cf24-4a15-adfc-a0556c833150" x="0.97" y="47.36" width="20.81" height="1.65" rx="0.58"/><rect class="a1ace5d6-0043-437f-a3a5-7e2d73fbc82a" x="23.16" y="47.36" width="6.49" height="1.65" rx="0.58"/><rect class="a1ace5d6-0043-437f-a3a5-7e2d73fbc82a" x="30.7" y="47.36" width="12.17" height="1.65" rx="0.58"/><rect class="a1ace5d6-0043-437f-a3a5-7e2d73fbc82a" x="43.72" y="47.36" width="12.17" height="1.65" rx="0.58"/><rect class="a1ace5d6-0043-437f-a3a5-7e2d73fbc82a" x="56.5" y="47.36" width="7.26" height="1.65" rx="0.58"/><rect class="a1ace5d6-0043-437f-a3a5-7e2d73fbc82a" x="64.15" y="47.36" width="15.12" height="1.65" rx="0.58"/><rect class="a1ace5d6-0043-437f-a3a5-7e2d73fbc82a" x="80.02" y="47.36" width="7.16" height="1.65" rx="0.58"/><rect class="ac22862a-cf24-4a15-adfc-a0556c833150" x="0.61" y="50.29" width="6.49" height="1.65" rx="0.58"/><rect class="b0f8c087-2389-4293-835d-a9b2c0517c44" x="8.12" y="50.29" width="2.94" height="1.65" rx="0.58"/><rect class="b0f8c087-2389-4293-835d-a9b2c0517c44" x="11.78" y="50.29" width="6.49" height="1.65" rx="0.58"/><rect class="a1ace5d6-0043-437f-a3a5-7e2d73fbc82a" x="19.28" y="50.29" width="4.45" height="1.65" rx="0.58"/><rect class="a1ace5d6-0043-437f-a3a5-7e2d73fbc82a" x="24.74" y="50.29" width="18.13" height="1.65" rx="0.58"/><rect class="a1ace5d6-0043-437f-a3a5-7e2d73fbc82a" x="44.01" y="50.29" width="4.58" height="1.65" rx="0.58"/><rect class="a1ace5d6-0043-437f-a3a5-7e2d73fbc82a" x="49.4" y="50.29" width="4.72" height="1.65" rx="0.58"/><rect class="ac22862a-cf24-4a15-adfc-a0556c833150" x="0.92" y="53.22" width="2.32" height="1.65" rx="0.58"/><rect class="ac22862a-cf24-4a15-adfc-a0556c833150" x="3.85" y="53.22" width="15.07" height="1.65" rx="0.58"/><rect class="a1ace5d6-0043-437f-a3a5-7e2d73fbc82a" x="20.22" y="53.22" width="6.49" height="1.65" rx="0.58"/><rect class="a1ace5d6-0043-437f-a3a5-7e2d73fbc82a" x="0.25" y="56.34" width="4.89" height="1.65" rx="0.58"/><rect class="a1ace5d6-0043-437f-a3a5-7e2d73fbc82a" x="6.01" y="56.34" width="18" height="1.65" rx="0.58"/><rect class="b0f8c087-2389-4293-835d-a9b2c0517c44" x="24.88" y="56.34" width="4.45" height="1.65" rx="0.58"/><rect class="b0f8c087-2389-4293-835d-a9b2c0517c44" x="30.69" y="56.34" width="4.68" height="1.65" rx="0.58"/><rect class="a1ace5d6-0043-437f-a3a5-7e2d73fbc82a" x="36.18" y="56.34" width="17.94" height="1.65" rx="0.58"/><rect class="a1ace5d6-0043-437f-a3a5-7e2d73fbc82a" y="60.03" width="6.31" height="1.65" rx="0.58"/><rect class="ac22862a-cf24-4a15-adfc-a0556c833150" x="5.95" y="63.2" width="11.24" height="1.65" rx="0.58"/><rect class="a1ace5d6-0043-437f-a3a5-7e2d73fbc82a" x="18.55" y="63.2" width="4.87" height="1.65" rx="0.58"/><rect class="a1ace5d6-0043-437f-a3a5-7e2d73fbc82a" x="24.54" y="63.2" width="17.31" height="1.65" rx="0.58"/><rect class="a1ace5d6-0043-437f-a3a5-7e2d73fbc82a" x="42.91" y="63.2" width="3.29" height="1.65" rx="0.58"/><rect class="ac22862a-cf24-4a15-adfc-a0556c833150" x="9.35" y="66.29" width="6.62" height="1.65" rx="0.58"/><rect class="b0f8c087-2389-4293-835d-a9b2c0517c44" x="17.22" y="66.29" width="17.98" height="1.65" rx="0.58"/><rect class="a1ace5d6-0043-437f-a3a5-7e2d73fbc82a" x="11.81" y="69.06" width="3.29" height="1.65" rx="0.58"/><rect class="a1ace5d6-0043-437f-a3a5-7e2d73fbc82a" x="16.14" y="69.06" width="14.4" height="1.65" rx="0.58"/><rect class="a1ace5d6-0043-437f-a3a5-7e2d73fbc82a" x="32.07" y="69.06" width="6.62" height="1.65" rx="0.58"/><rect class="ac22862a-cf24-4a15-adfc-a0556c833150" x="12.37" y="72.14" width="4.66" height="1.65" rx="0.58"/><rect class="b0f8c087-2389-4293-835d-a9b2c0517c44" x="18.06" y="72.14" width="17.73" height="1.65" rx="0.58"/><rect class="a1ace5d6-0043-437f-a3a5-7e2d73fbc82a" x="36.96" y="72.14" width="4.85" height="1.65" rx="0.58"/><rect class="a1ace5d6-0043-437f-a3a5-7e2d73fbc82a" x="42.42" y="72.14" width="4.85" height="1.65" rx="0.58"/><rect class="a1ace5d6-0043-437f-a3a5-7e2d73fbc82a" x="13.19" y="75.21" width="6.33" height="1.65" rx="0.58"/><rect class="a1ace5d6-0043-437f-a3a5-7e2d73fbc82a" x="13.19" y="77.98" width="14.81" height="1.65" rx="0.58"/><rect class="a1ace5d6-0043-437f-a3a5-7e2d73fbc82a" x="12.73" y="80.74" width="4.66" height="1.65" rx="0.58"/><rect class="a1ace5d6-0043-437f-a3a5-7e2d73fbc82a" x="18.27" y="80.74" width="12.28" height="1.65" rx="0.58"/><rect class="a1ace5d6-0043-437f-a3a5-7e2d73fbc82a" x="9.37" y="83.73" width="3.29" height="1.65" rx="0.58"/><rect class="ac22862a-cf24-4a15-adfc-a0556c833150" x="0.71" y="89.71" width="14.31" height="1.65" rx="0.58"/><rect class="a1ace5d6-0043-437f-a3a5-7e2d73fbc82a" x="0.71" y="86.91" width="11.81" height="1.65" rx="0.58"/><rect class="ac22862a-cf24-4a15-adfc-a0556c833150" x="13.84" y="86.91" width="11.81" height="1.65" rx="0.58"/><rect class="b0f8c087-2389-4293-835d-a9b2c0517c44" x="26.48" y="86.91" width="6.94" height="1.65" rx="0.58"/><rect class="b0f8c087-2389-4293-835d-a9b2c0517c44" x="34.35" y="86.91" width="9.13" height="1.65" rx="0.58"/><rect class="a1ace5d6-0043-437f-a3a5-7e2d73fbc82a" x="44.79" y="86.91" width="6.65" height="1.65" rx="0.58"/><rect class="a1ace5d6-0043-437f-a3a5-7e2d73fbc82a" x="52.3" y="86.91" width="14.88" height="1.65" rx="0.58"/><rect class="a1ace5d6-0043-437f-a3a5-7e2d73fbc82a" x="16.55" y="89.71" width="6.62" height="1.65" rx="0.58"/><rect class="a1ace5d6-0043-437f-a3a5-7e2d73fbc82a" x="24.14" y="89.71" width="6.62" height="1.65" rx="0.58"/><rect class="a1ace5d6-0043-437f-a3a5-7e2d73fbc82a" x="32.03" y="89.71" width="9.1" height="1.65" rx="0.58"/><rect class="a1ace5d6-0043-437f-a3a5-7e2d73fbc82a" x="42.34" y="89.71" width="6.5" height="1.65" rx="0.58"/><rect class="ac22862a-cf24-4a15-adfc-a0556c833150" x="3.31" y="92.6" width="4.66" height="1.65" rx="0.58"/><rect class="b0f8c087-2389-4293-835d-a9b2c0517c44" x="8.99" y="92.6" width="17.73" height="1.65" rx="0.58"/><rect class="a1ace5d6-0043-437f-a3a5-7e2d73fbc82a" x="27.9" y="92.6" width="4.85" height="1.65" rx="0.58"/><rect class="a1ace5d6-0043-437f-a3a5-7e2d73fbc82a" x="33.36" y="92.6" width="4.85" height="1.65" rx="0.58"/><rect class="a1ace5d6-0043-437f-a3a5-7e2d73fbc82a" x="7.13" y="95.68" width="6.33" height="1.65" rx="0.58"/><rect class="a1ace5d6-0043-437f-a3a5-7e2d73fbc82a" x="1.3" y="99.04" width="11.24" height="1.65" rx="0.58"/><rect class="ac22862a-cf24-4a15-adfc-a0556c833150" x="8.59" y="128.62" width="14.31" height="1.65" rx="0.58"/><rect class="a1ace5d6-0043-437f-a3a5-7e2d73fbc82a" x="13.9" y="99.04" width="4.87" height="1.65" rx="0.58"/><rect class="a1ace5d6-0043-437f-a3a5-7e2d73fbc82a" x="19.89" y="99.04" width="17.31" height="1.65" rx="0.58"/><rect class="a1ace5d6-0043-437f-a3a5-7e2d73fbc82a" x="38.26" y="99.04" width="3.29" height="1.65" rx="0.58"/><rect class="ac22862a-cf24-4a15-adfc-a0556c833150" x="4.7" y="102.13" width="6.62" height="1.65" rx="0.58"/><rect class="b0f8c087-2389-4293-835d-a9b2c0517c44" x="12.57" y="102.13" width="17.98" height="1.65" rx="0.58"/><rect class="a1ace5d6-0043-437f-a3a5-7e2d73fbc82a" x="4.16" y="104.9" width="3.29" height="1.65" rx="0.58"/><rect class="a1ace5d6-0043-437f-a3a5-7e2d73fbc82a" x="8.49" y="104.9" width="14.4" height="1.65" rx="0.58"/><rect class="a1ace5d6-0043-437f-a3a5-7e2d73fbc82a" x="24.42" y="104.9" width="6.62" height="1.65" rx="0.58"/><rect class="ac22862a-cf24-4a15-adfc-a0556c833150" x="4.72" y="107.98" width="4.66" height="1.65" rx="0.58"/><rect class="b0f8c087-2389-4293-835d-a9b2c0517c44" x="10.41" y="107.98" width="17.73" height="1.65" rx="0.58"/><rect class="a1ace5d6-0043-437f-a3a5-7e2d73fbc82a" x="29.31" y="107.98" width="4.85" height="1.65" rx="0.58"/><rect class="a1ace5d6-0043-437f-a3a5-7e2d73fbc82a" x="34.77" y="107.98" width="4.85" height="1.65" rx="0.58"/><rect class="a1ace5d6-0043-437f-a3a5-7e2d73fbc82a" x="8.54" y="111.05" width="6.33" height="1.65" rx="0.58"/><rect class="a1ace5d6-0043-437f-a3a5-7e2d73fbc82a" x="8.54" y="113.81" width="14.81" height="1.65" rx="0.58"/><rect class="a1ace5d6-0043-437f-a3a5-7e2d73fbc82a" x="8.08" y="116.58" width="4.66" height="1.65" rx="0.58"/><rect class="a1ace5d6-0043-437f-a3a5-7e2d73fbc82a" x="13.62" y="116.58" width="12.28" height="1.65" rx="0.58"/><rect class="a1ace5d6-0043-437f-a3a5-7e2d73fbc82a" x="4.72" y="119.57" width="3.29" height="1.65" rx="0.58"/><rect class="b0f8c087-2389-4293-835d-a9b2c0517c44" x="4.72" y="122.69" width="21.43" height="1.65" rx="0.58"/><rect class="a1ace5d6-0043-437f-a3a5-7e2d73fbc82a" x="27.21" y="122.69" width="4.53" height="1.65" rx="0.58"/><rect class="a1ace5d6-0043-437f-a3a5-7e2d73fbc82a" x="32.54" y="122.69" width="15.13" height="1.65" rx="0.58"/><rect class="a1ace5d6-0043-437f-a3a5-7e2d73fbc82a" x="49" y="122.69" width="6.44" height="1.65" rx="0.58"/><rect class="a1ace5d6-0043-437f-a3a5-7e2d73fbc82a" x="56.72" y="122.69" width="3.29" height="1.65" rx="0.58"/><rect class="ac22862a-cf24-4a15-adfc-a0556c833150" x="8.59" y="125.81" width="11.81" height="1.65" rx="0.58"/><rect class="ac22862a-cf24-4a15-adfc-a0556c833150" x="21.72" y="125.81" width="11.81" height="1.65" rx="0.58"/><rect class="b0f8c087-2389-4293-835d-a9b2c0517c44" x="34.36" y="125.81" width="6.94" height="1.65" rx="0.58"/><rect class="b0f8c087-2389-4293-835d-a9b2c0517c44" x="42.22" y="125.81" width="9.13" height="1.65" rx="0.58"/><rect class="a1ace5d6-0043-437f-a3a5-7e2d73fbc82a" x="52.67" y="125.81" width="6.65" height="1.65" rx="0.58"/><rect class="a1ace5d6-0043-437f-a3a5-7e2d73fbc82a" x="60.17" y="125.81" width="14.88" height="1.65" rx="0.58"/><rect class="a1ace5d6-0043-437f-a3a5-7e2d73fbc82a" x="24.42" y="128.62" width="6.62" height="1.65" rx="0.58"/><rect class="a1ace5d6-0043-437f-a3a5-7e2d73fbc82a" x="32.02" y="128.62" width="6.62" height="1.65" rx="0.58"/><rect class="a1ace5d6-0043-437f-a3a5-7e2d73fbc82a" x="39.9" y="128.62" width="9.1" height="1.65" rx="0.58"/><rect class="a1ace5d6-0043-437f-a3a5-7e2d73fbc82a" x="50.22" y="128.62" width="6.5" height="1.65" rx="0.58"/><rect class="a1ace5d6-0043-437f-a3a5-7e2d73fbc82a" x="4.83" y="131.42" width="9.13" height="1.65" rx="0.58"/><rect class="a1ace5d6-0043-437f-a3a5-7e2d73fbc82a" x="15.2" y="131.42" width="6.52" height="1.65" rx="0.58"/><rect class="a1ace5d6-0043-437f-a3a5-7e2d73fbc82a" x="4.58" y="134.53" width="15.18" height="1.65" rx="0.58"/><rect class="a1ace5d6-0043-437f-a3a5-7e2d73fbc82a" x="20.55" y="134.53" width="6.66" height="1.65" rx="0.58"/><rect class="a1ace5d6-0043-437f-a3a5-7e2d73fbc82a" x="28.4" y="134.53" width="3.33" height="1.65" rx="0.58"/><rect class="b0f8c087-2389-4293-835d-a9b2c0517c44" x="32.54" y="134.53" width="15.65" height="1.65" rx="0.58"/><rect class="ac22862a-cf24-4a15-adfc-a0556c833150" x="4.75" y="137.39" width="4.63" height="1.65" rx="0.58"/><rect class="a1ace5d6-0043-437f-a3a5-7e2d73fbc82a" x="10.41" y="137.39" width="11.78" height="1.65" rx="0.58"/><rect class="a1ace5d6-0043-437f-a3a5-7e2d73fbc82a" x="4.52" y="140.54" width="15.25" height="1.65" rx="0.58"/><rect class="a1ace5d6-0043-437f-a3a5-7e2d73fbc82a" x="4.83" y="143.2" width="6.27" height="1.65" rx="0.58"/><rect class="ac22862a-cf24-4a15-adfc-a0556c833150" x="1.38" y="146.4" width="20.81" height="1.65" rx="0.58"/><rect class="b0f8c087-2389-4293-835d-a9b2c0517c44" x="23.58" y="146.4" width="6.49" height="1.65" rx="0.58"/><rect class="a1ace5d6-0043-437f-a3a5-7e2d73fbc82a" x="31.11" y="146.4" width="12.17" height="1.65" rx="0.58"/><rect class="a1ace5d6-0043-437f-a3a5-7e2d73fbc82a" x="44.13" y="146.4" width="12.17" height="1.65" rx="0.58"/><rect class="a1ace5d6-0043-437f-a3a5-7e2d73fbc82a" x="56.91" y="146.4" width="7.26" height="1.65" rx="0.58"/><rect class="a1ace5d6-0043-437f-a3a5-7e2d73fbc82a" x="64.57" y="146.4" width="15.12" height="1.65" rx="0.58"/><rect class="a1ace5d6-0043-437f-a3a5-7e2d73fbc82a" x="80.44" y="146.4" width="7.16" height="1.65" rx="0.58"/><rect class="ac22862a-cf24-4a15-adfc-a0556c833150" x="1.02" y="149.33" width="6.49" height="1.65" rx="0.58"/><rect class="b0f8c087-2389-4293-835d-a9b2c0517c44" x="8.54" y="149.33" width="2.94" height="1.65" rx="0.58"/><rect class="b0f8c087-2389-4293-835d-a9b2c0517c44" x="12.19" y="149.33" width="6.49" height="1.65" rx="0.58"/><rect class="a1ace5d6-0043-437f-a3a5-7e2d73fbc82a" x="19.7" y="149.33" width="4.45" height="1.65" rx="0.58"/><rect class="a1ace5d6-0043-437f-a3a5-7e2d73fbc82a" x="25.16" y="149.33" width="18.13" height="1.65" rx="0.58"/><rect class="a1ace5d6-0043-437f-a3a5-7e2d73fbc82a" x="44.42" y="149.33" width="4.58" height="1.65" rx="0.58"/><rect class="a1ace5d6-0043-437f-a3a5-7e2d73fbc82a" x="49.81" y="149.33" width="4.72" height="1.65" rx="0.58"/><rect class="ac22862a-cf24-4a15-adfc-a0556c833150" x="1.33" y="152.26" width="2.32" height="1.65" rx="0.58"/><rect class="ac22862a-cf24-4a15-adfc-a0556c833150" x="4.27" y="152.26" width="15.07" height="1.65" rx="0.58"/><rect class="a1ace5d6-0043-437f-a3a5-7e2d73fbc82a" x="20.63" y="152.26" width="6.49" height="1.65" rx="0.58"/><rect class="a1ace5d6-0043-437f-a3a5-7e2d73fbc82a" x="0.67" y="155.39" width="4.89" height="1.65" rx="0.58"/><rect class="a1ace5d6-0043-437f-a3a5-7e2d73fbc82a" x="6.43" y="155.39" width="18" height="1.65" rx="0.58"/><rect class="b0f8c087-2389-4293-835d-a9b2c0517c44" x="25.29" y="155.39" width="4.45" height="1.65" rx="0.58"/><rect class="b0f8c087-2389-4293-835d-a9b2c0517c44" x="31.1" y="155.39" width="4.68" height="1.65" rx="0.58"/><rect class="a1ace5d6-0043-437f-a3a5-7e2d73fbc82a" x="36.59" y="155.39" width="17.94" height="1.65" rx="0.58"/><rect class="a1ace5d6-0043-437f-a3a5-7e2d73fbc82a" x="0.41" y="159.07" width="6.31" height="1.65" rx="0.58"/><rect class="ac22862a-cf24-4a15-adfc-a0556c833150" x="6.37" y="162.24" width="11.24" height="1.65" rx="0.58"/><rect class="a1ace5d6-0043-437f-a3a5-7e2d73fbc82a" x="18.96" y="162.24" width="4.87" height="1.65" rx="0.58"/><rect class="a1ace5d6-0043-437f-a3a5-7e2d73fbc82a" x="24.95" y="162.24" width="17.31" height="1.65" rx="0.58"/><rect class="a1ace5d6-0043-437f-a3a5-7e2d73fbc82a" x="43.32" y="162.24" width="3.29" height="1.65" rx="0.58"/><rect class="ac22862a-cf24-4a15-adfc-a0556c833150" x="9.76" y="165.33" width="6.62" height="1.65" rx="0.58"/><rect class="b0f8c087-2389-4293-835d-a9b2c0517c44" x="17.63" y="165.33" width="17.98" height="1.65" rx="0.58"/><rect class="a1ace5d6-0043-437f-a3a5-7e2d73fbc82a" x="12.23" y="168.11" width="3.29" height="1.65" rx="0.58"/><rect class="a1ace5d6-0043-437f-a3a5-7e2d73fbc82a" x="16.56" y="168.11" width="14.4" height="1.65" rx="0.58"/><rect class="a1ace5d6-0043-437f-a3a5-7e2d73fbc82a" x="32.49" y="168.11" width="6.62" height="1.65" rx="0.58"/><rect class="ac22862a-cf24-4a15-adfc-a0556c833150" x="12.78" y="171.18" width="4.66" height="1.65" rx="0.58"/><rect class="b0f8c087-2389-4293-835d-a9b2c0517c44" x="18.47" y="171.18" width="17.73" height="1.65" rx="0.58"/><rect class="a1ace5d6-0043-437f-a3a5-7e2d73fbc82a" x="37.37" y="171.18" width="4.85" height="1.65" rx="0.58"/><rect class="a1ace5d6-0043-437f-a3a5-7e2d73fbc82a" x="42.84" y="171.18" width="4.85" height="1.65" rx="0.58"/><rect class="a1ace5d6-0043-437f-a3a5-7e2d73fbc82a" x="13.61" y="174.25" width="6.33" height="1.65" rx="0.58"/><rect class="a1ace5d6-0043-437f-a3a5-7e2d73fbc82a" x="13.61" y="177.02" width="14.81" height="1.65" rx="0.58"/><rect class="a1ace5d6-0043-437f-a3a5-7e2d73fbc82a" x="13.14" y="179.78" width="4.66" height="1.65" rx="0.58"/><rect class="a1ace5d6-0043-437f-a3a5-7e2d73fbc82a" x="18.68" y="179.78" width="12.28" height="1.65" rx="0.58"/><rect class="a1ace5d6-0043-437f-a3a5-7e2d73fbc82a" x="9.78" y="182.77" width="3.29" height="1.65" rx="0.58"/><rect class="ac22862a-cf24-4a15-adfc-a0556c833150" x="1.13" y="188.75" width="14.31" height="1.65" rx="0.58"/><rect class="a1ace5d6-0043-437f-a3a5-7e2d73fbc82a" x="1.13" y="185.95" width="11.81" height="1.65" rx="0.58"/><rect class="ac22862a-cf24-4a15-adfc-a0556c833150" x="14.26" y="185.95" width="11.81" height="1.65" rx="0.58"/><rect class="b0f8c087-2389-4293-835d-a9b2c0517c44" x="26.9" y="185.95" width="6.94" height="1.65" rx="0.58"/><rect class="b0f8c087-2389-4293-835d-a9b2c0517c44" x="34.76" y="185.95" width="9.13" height="1.65" rx="0.58"/><rect class="a1ace5d6-0043-437f-a3a5-7e2d73fbc82a" x="45.21" y="185.95" width="6.65" height="1.65" rx="0.58"/><rect class="a1ace5d6-0043-437f-a3a5-7e2d73fbc82a" x="52.71" y="185.95" width="14.88" height="1.65" rx="0.58"/><rect class="a1ace5d6-0043-437f-a3a5-7e2d73fbc82a" x="16.96" y="188.75" width="6.62" height="1.65" rx="0.58"/><rect class="a1ace5d6-0043-437f-a3a5-7e2d73fbc82a" x="24.56" y="188.75" width="6.62" height="1.65" rx="0.58"/><rect class="a1ace5d6-0043-437f-a3a5-7e2d73fbc82a" x="32.44" y="188.75" width="9.1" height="1.65" rx="0.58"/><rect class="a1ace5d6-0043-437f-a3a5-7e2d73fbc82a" x="42.76" y="188.75" width="6.5" height="1.65" rx="0.58"/><rect class="ac22862a-cf24-4a15-adfc-a0556c833150" x="3.72" y="191.64" width="4.66" height="1.65" rx="0.58"/><rect class="b0f8c087-2389-4293-835d-a9b2c0517c44" x="9.41" y="191.64" width="17.73" height="1.65" rx="0.58"/><rect class="a1ace5d6-0043-437f-a3a5-7e2d73fbc82a" x="28.31" y="191.64" width="4.85" height="1.65" rx="0.58"/><rect class="a1ace5d6-0043-437f-a3a5-7e2d73fbc82a" x="33.78" y="191.64" width="4.85" height="1.65" rx="0.58"/><rect class="a1ace5d6-0043-437f-a3a5-7e2d73fbc82a" x="7.54" y="194.72" width="6.33" height="1.65" rx="0.58"/><rect class="a1ace5d6-0043-437f-a3a5-7e2d73fbc82a" x="3.26" y="198" width="11.24" height="1.65" rx="0.58"/><rect class="ac22862a-cf24-4a15-adfc-a0556c833150" x="10.55" y="227.57" width="14.31" height="1.65" rx="0.58"/><rect class="a1ace5d6-0043-437f-a3a5-7e2d73fbc82a" x="15.86" y="198" width="4.87" height="1.65" rx="0.58"/><rect class="a1ace5d6-0043-437f-a3a5-7e2d73fbc82a" x="21.85" y="198" width="17.31" height="1.65" rx="0.58"/><rect class="a1ace5d6-0043-437f-a3a5-7e2d73fbc82a" x="40.22" y="198" width="3.29" height="1.65" rx="0.58"/><rect class="ac22862a-cf24-4a15-adfc-a0556c833150" x="6.66" y="201.08" width="6.62" height="1.65" rx="0.58"/><rect class="b0f8c087-2389-4293-835d-a9b2c0517c44" x="14.53" y="201.08" width="17.98" height="1.65" rx="0.58"/><rect class="a1ace5d6-0043-437f-a3a5-7e2d73fbc82a" x="6.13" y="203.86" width="3.29" height="1.65" rx="0.58"/><rect class="a1ace5d6-0043-437f-a3a5-7e2d73fbc82a" x="10.45" y="203.86" width="14.4" height="1.65" rx="0.58"/><rect class="a1ace5d6-0043-437f-a3a5-7e2d73fbc82a" x="26.39" y="203.86" width="6.62" height="1.65" rx="0.58"/><rect class="ac22862a-cf24-4a15-adfc-a0556c833150" x="6.68" y="206.93" width="4.66" height="1.65" rx="0.58"/><rect class="b0f8c087-2389-4293-835d-a9b2c0517c44" x="12.37" y="206.93" width="17.73" height="1.65" rx="0.58"/><rect class="a1ace5d6-0043-437f-a3a5-7e2d73fbc82a" x="31.27" y="206.93" width="4.85" height="1.65" rx="0.58"/><rect class="a1ace5d6-0043-437f-a3a5-7e2d73fbc82a" x="36.74" y="206.93" width="4.85" height="1.65" rx="0.58"/><rect class="a1ace5d6-0043-437f-a3a5-7e2d73fbc82a" x="10.5" y="210" width="6.33" height="1.65" rx="0.58"/><rect class="a1ace5d6-0043-437f-a3a5-7e2d73fbc82a" x="10.5" y="212.77" width="14.81" height="1.65" rx="0.58"/><rect class="a1ace5d6-0043-437f-a3a5-7e2d73fbc82a" x="10.04" y="215.53" width="4.66" height="1.65" rx="0.58"/><rect class="a1ace5d6-0043-437f-a3a5-7e2d73fbc82a" x="15.58" y="215.53" width="12.28" height="1.65" rx="0.58"/><rect class="a1ace5d6-0043-437f-a3a5-7e2d73fbc82a" x="6.68" y="218.52" width="3.29" height="1.65" rx="0.58"/><rect class="b0f8c087-2389-4293-835d-a9b2c0517c44" x="6.68" y="221.64" width="21.43" height="1.65" rx="0.58"/><rect class="a1ace5d6-0043-437f-a3a5-7e2d73fbc82a" x="29.17" y="221.64" width="4.53" height="1.65" rx="0.58"/><rect class="a1ace5d6-0043-437f-a3a5-7e2d73fbc82a" x="34.5" y="221.64" width="15.13" height="1.65" rx="0.58"/><rect class="a1ace5d6-0043-437f-a3a5-7e2d73fbc82a" x="50.96" y="221.64" width="6.44" height="1.65" rx="0.58"/><rect class="a1ace5d6-0043-437f-a3a5-7e2d73fbc82a" x="58.68" y="221.64" width="3.29" height="1.65" rx="0.58"/><rect class="ac22862a-cf24-4a15-adfc-a0556c833150" x="10.55" y="224.77" width="11.81" height="1.65" rx="0.58"/><rect class="ac22862a-cf24-4a15-adfc-a0556c833150" x="23.68" y="224.77" width="11.81" height="1.65" rx="0.58"/><rect class="b0f8c087-2389-4293-835d-a9b2c0517c44" x="36.32" y="224.77" width="6.94" height="1.65" rx="0.58"/><rect class="b0f8c087-2389-4293-835d-a9b2c0517c44" x="44.19" y="224.77" width="9.13" height="1.65" rx="0.58"/><rect class="a1ace5d6-0043-437f-a3a5-7e2d73fbc82a" x="54.63" y="224.77" width="6.65" height="1.65" rx="0.58"/><rect class="a1ace5d6-0043-437f-a3a5-7e2d73fbc82a" x="62.13" y="224.77" width="14.88" height="1.65" rx="0.58"/><rect class="a1ace5d6-0043-437f-a3a5-7e2d73fbc82a" x="78.04" y="224.77" width="6.65" height="1.65" rx="0.58"/><rect class="bca737a4-05ae-468b-a674-8ed60dc1d2ae" x="85.94" y="224.77" width="2.77" height="1.65" rx="0.58"/><rect class="a1ace5d6-0043-437f-a3a5-7e2d73fbc82a" x="26.39" y="227.57" width="6.62" height="1.65" rx="0.58"/><rect class="a1ace5d6-0043-437f-a3a5-7e2d73fbc82a" x="33.98" y="227.57" width="6.62" height="1.65" rx="0.58"/><rect class="a1ace5d6-0043-437f-a3a5-7e2d73fbc82a" x="41.86" y="227.57" width="9.1" height="1.65" rx="0.58"/><rect class="a1ace5d6-0043-437f-a3a5-7e2d73fbc82a" x="52.18" y="227.57" width="6.5" height="1.65" rx="0.58"/><rect class="a1ace5d6-0043-437f-a3a5-7e2d73fbc82a" x="6.79" y="230.37" width="9.13" height="1.65" rx="0.58"/><rect class="a1ace5d6-0043-437f-a3a5-7e2d73fbc82a" x="17.16" y="230.37" width="6.52" height="1.65" rx="0.58"/><rect class="a1ace5d6-0043-437f-a3a5-7e2d73fbc82a" x="6.54" y="233.49" width="15.18" height="1.65" rx="0.58"/><rect class="a1ace5d6-0043-437f-a3a5-7e2d73fbc82a" x="22.51" y="233.49" width="6.66" height="1.65" rx="0.58"/><rect class="a1ace5d6-0043-437f-a3a5-7e2d73fbc82a" x="30.37" y="233.49" width="3.33" height="1.65" rx="0.58"/><rect class="b0f8c087-2389-4293-835d-a9b2c0517c44" x="34.5" y="233.49" width="15.65" height="1.65" rx="0.58"/><rect class="ac22862a-cf24-4a15-adfc-a0556c833150" x="6.71" y="236.35" width="4.63" height="1.65" rx="0.58"/><rect class="a1ace5d6-0043-437f-a3a5-7e2d73fbc82a" x="12.37" y="236.35" width="11.78" height="1.65" rx="0.58"/><rect class="a1ace5d6-0043-437f-a3a5-7e2d73fbc82a" x="6.48" y="239.5" width="15.25" height="1.65" rx="0.58"/><rect class="a1ace5d6-0043-437f-a3a5-7e2d73fbc82a" x="6.79" y="242.15" width="6.27" height="1.65" rx="0.58"/><rect class="ac22862a-cf24-4a15-adfc-a0556c833150" x="3.34" y="245.36" width="20.81" height="1.65" rx="0.58"/><rect class="a1ace5d6-0043-437f-a3a5-7e2d73fbc82a" x="25.54" y="245.36" width="6.49" height="1.65" rx="0.58"/><rect class="a1ace5d6-0043-437f-a3a5-7e2d73fbc82a" x="33.07" y="245.36" width="12.17" height="1.65" rx="0.58"/><rect class="a1ace5d6-0043-437f-a3a5-7e2d73fbc82a" x="46.09" y="245.36" width="12.17" height="1.65" rx="0.58"/><rect class="a1ace5d6-0043-437f-a3a5-7e2d73fbc82a" x="58.87" y="245.36" width="7.26" height="1.65" rx="0.58"/><rect class="a1ace5d6-0043-437f-a3a5-7e2d73fbc82a" x="66.53" y="245.36" width="15.12" height="1.65" rx="0.58"/><rect class="a1ace5d6-0043-437f-a3a5-7e2d73fbc82a" x="82.4" y="245.36" width="7.16" height="1.65" rx="0.58"/><rect class="ac22862a-cf24-4a15-adfc-a0556c833150" x="2.98" y="248.29" width="6.49" height="1.65" rx="0.58"/><rect class="b0f8c087-2389-4293-835d-a9b2c0517c44" x="10.5" y="248.29" width="2.94" height="1.65" rx="0.58"/><rect class="b0f8c087-2389-4293-835d-a9b2c0517c44" x="14.15" y="248.29" width="6.49" height="1.65" rx="0.58"/><rect class="a1ace5d6-0043-437f-a3a5-7e2d73fbc82a" x="21.66" y="248.29" width="4.45" height="1.65" rx="0.58"/><rect class="a1ace5d6-0043-437f-a3a5-7e2d73fbc82a" x="27.12" y="248.29" width="18.13" height="1.65" rx="0.58"/><rect class="a1ace5d6-0043-437f-a3a5-7e2d73fbc82a" x="46.38" y="248.29" width="4.58" height="1.65" rx="0.58"/><rect class="a1ace5d6-0043-437f-a3a5-7e2d73fbc82a" x="51.77" y="248.29" width="4.72" height="1.65" rx="0.58"/><rect class="ac22862a-cf24-4a15-adfc-a0556c833150" x="3.29" y="251.21" width="2.32" height="1.65" rx="0.58"/><rect class="ac22862a-cf24-4a15-adfc-a0556c833150" x="6.23" y="251.21" width="15.07" height="1.65" rx="0.58"/><rect class="a1ace5d6-0043-437f-a3a5-7e2d73fbc82a" x="22.59" y="251.21" width="6.49" height="1.65" rx="0.58"/><rect class="a1ace5d6-0043-437f-a3a5-7e2d73fbc82a" x="2.63" y="254.34" width="4.89" height="1.65" rx="0.58"/><rect class="a1ace5d6-0043-437f-a3a5-7e2d73fbc82a" x="8.39" y="254.34" width="18" height="1.65" rx="0.58"/><rect class="b0f8c087-2389-4293-835d-a9b2c0517c44" x="27.25" y="254.34" width="4.45" height="1.65" rx="0.58"/><rect class="b0f8c087-2389-4293-835d-a9b2c0517c44" x="33.06" y="254.34" width="4.68" height="1.65" rx="0.58"/><rect class="a1ace5d6-0043-437f-a3a5-7e2d73fbc82a" x="38.56" y="254.34" width="17.94" height="1.65" rx="0.58"/><rect class="a1ace5d6-0043-437f-a3a5-7e2d73fbc82a" x="2.38" y="258.02" width="6.31" height="1.65" rx="0.58"/><rect class="ac22862a-cf24-4a15-adfc-a0556c833150" x="8.33" y="261.2" width="11.24" height="1.65" rx="0.58"/><rect class="a1ace5d6-0043-437f-a3a5-7e2d73fbc82a" x="20.93" y="261.2" width="4.87" height="1.65" rx="0.58"/><rect class="a1ace5d6-0043-437f-a3a5-7e2d73fbc82a" x="26.92" y="261.2" width="17.31" height="1.65" rx="0.58"/><rect class="a1ace5d6-0043-437f-a3a5-7e2d73fbc82a" x="45.28" y="261.2" width="3.29" height="1.65" rx="0.58"/><rect class="ac22862a-cf24-4a15-adfc-a0556c833150" x="11.72" y="264.29" width="6.62" height="1.65" rx="0.58"/><rect class="b0f8c087-2389-4293-835d-a9b2c0517c44" x="19.59" y="264.29" width="17.98" height="1.65" rx="0.58"/><rect class="a1ace5d6-0043-437f-a3a5-7e2d73fbc82a" x="14.19" y="267.06" width="3.29" height="1.65" rx="0.58"/><rect class="a1ace5d6-0043-437f-a3a5-7e2d73fbc82a" x="18.52" y="267.06" width="14.4" height="1.65" rx="0.58"/><rect class="a1ace5d6-0043-437f-a3a5-7e2d73fbc82a" x="34.45" y="267.06" width="6.62" height="1.65" rx="0.58"/><rect class="ac22862a-cf24-4a15-adfc-a0556c833150" x="14.75" y="270.13" width="4.66" height="1.65" rx="0.58"/><rect class="b0f8c087-2389-4293-835d-a9b2c0517c44" x="20.43" y="270.13" width="17.73" height="1.65" rx="0.58"/><rect class="a1ace5d6-0043-437f-a3a5-7e2d73fbc82a" x="39.33" y="270.13" width="4.85" height="1.65" rx="0.58"/><rect class="a1ace5d6-0043-437f-a3a5-7e2d73fbc82a" x="44.8" y="270.13" width="4.85" height="1.65" rx="0.58"/><rect class="a1ace5d6-0043-437f-a3a5-7e2d73fbc82a" x="15.57" y="273.21" width="6.33" height="1.65" rx="0.58"/><rect class="a1ace5d6-0043-437f-a3a5-7e2d73fbc82a" x="15.57" y="275.97" width="14.81" height="1.65" rx="0.58"/><rect class="a1ace5d6-0043-437f-a3a5-7e2d73fbc82a" x="15.1" y="278.74" width="4.66" height="1.65" rx="0.58"/><rect class="a1ace5d6-0043-437f-a3a5-7e2d73fbc82a" x="20.65" y="278.74" width="12.28" height="1.65" rx="0.58"/><rect class="a1ace5d6-0043-437f-a3a5-7e2d73fbc82a" x="11.75" y="281.72" width="3.29" height="1.65" rx="0.58"/><rect class="ac22862a-cf24-4a15-adfc-a0556c833150" x="3.09" y="287.7" width="14.31" height="1.65" rx="0.58"/><rect class="a1ace5d6-0043-437f-a3a5-7e2d73fbc82a" x="3.09" y="284.9" width="11.81" height="1.65" rx="0.58"/><rect class="ac22862a-cf24-4a15-adfc-a0556c833150" x="16.22" y="284.9" width="11.81" height="1.65" rx="0.58"/><rect class="b0f8c087-2389-4293-835d-a9b2c0517c44" x="28.86" y="284.9" width="6.94" height="1.65" rx="0.58"/><rect class="b0f8c087-2389-4293-835d-a9b2c0517c44" x="36.72" y="284.9" width="9.13" height="1.65" rx="0.58"/><rect class="a1ace5d6-0043-437f-a3a5-7e2d73fbc82a" x="47.17" y="284.9" width="6.65" height="1.65" rx="0.58"/><rect class="a1ace5d6-0043-437f-a3a5-7e2d73fbc82a" x="54.67" y="284.9" width="14.88" height="1.65" rx="0.58"/><rect class="a1ace5d6-0043-437f-a3a5-7e2d73fbc82a" x="18.92" y="287.7" width="6.62" height="1.65" rx="0.58"/><rect class="a1ace5d6-0043-437f-a3a5-7e2d73fbc82a" x="26.52" y="287.7" width="6.62" height="1.65" rx="0.58"/><rect class="a1ace5d6-0043-437f-a3a5-7e2d73fbc82a" x="34.4" y="287.7" width="9.1" height="1.65" rx="0.58"/><rect class="a1ace5d6-0043-437f-a3a5-7e2d73fbc82a" x="44.72" y="287.7" width="6.5" height="1.65" rx="0.58"/><rect class="ac22862a-cf24-4a15-adfc-a0556c833150" x="5.68" y="290.6" width="4.66" height="1.65" rx="0.58"/><rect class="b0f8c087-2389-4293-835d-a9b2c0517c44" x="11.37" y="290.6" width="17.73" height="1.65" rx="0.58"/><rect class="a1ace5d6-0043-437f-a3a5-7e2d73fbc82a" x="30.27" y="290.6" width="4.85" height="1.65" rx="0.58"/><rect class="a1ace5d6-0043-437f-a3a5-7e2d73fbc82a" x="35.74" y="290.6" width="4.85" height="1.65" rx="0.58"/><rect class="a1ace5d6-0043-437f-a3a5-7e2d73fbc82a" x="9.51" y="293.67" width="6.33" height="1.65" rx="0.58"/><rect class="a1ace5d6-0043-437f-a3a5-7e2d73fbc82a" x="3.68" y="297.04" width="11.24" height="1.65" rx="0.58"/><rect class="ac22862a-cf24-4a15-adfc-a0556c833150" x="10.96" y="326.61" width="14.31" height="1.65" rx="0.58"/><rect class="a1ace5d6-0043-437f-a3a5-7e2d73fbc82a" x="16.28" y="297.04" width="4.87" height="1.65" rx="0.58"/><rect class="a1ace5d6-0043-437f-a3a5-7e2d73fbc82a" x="22.27" y="297.04" width="17.31" height="1.65" rx="0.58"/><rect class="a1ace5d6-0043-437f-a3a5-7e2d73fbc82a" x="40.63" y="297.04" width="3.29" height="1.65" rx="0.58"/><rect class="ac22862a-cf24-4a15-adfc-a0556c833150" x="7.07" y="300.13" width="6.62" height="1.65" rx="0.58"/><rect class="b0f8c087-2389-4293-835d-a9b2c0517c44" x="14.94" y="300.13" width="17.98" height="1.65" rx="0.58"/><rect class="a1ace5d6-0043-437f-a3a5-7e2d73fbc82a" x="6.54" y="302.9" width="3.29" height="1.65" rx="0.58"/><rect class="a1ace5d6-0043-437f-a3a5-7e2d73fbc82a" x="10.87" y="302.9" width="14.4" height="1.65" rx="0.58"/><rect class="a1ace5d6-0043-437f-a3a5-7e2d73fbc82a" x="26.8" y="302.9" width="6.62" height="1.65" rx="0.58"/><rect class="ac22862a-cf24-4a15-adfc-a0556c833150" x="7.1" y="305.97" width="4.66" height="1.65" rx="0.58"/><rect class="b0f8c087-2389-4293-835d-a9b2c0517c44" x="12.78" y="305.97" width="17.73" height="1.65" rx="0.58"/><rect class="a1ace5d6-0043-437f-a3a5-7e2d73fbc82a" x="31.68" y="305.97" width="4.85" height="1.65" rx="0.58"/><rect class="a1ace5d6-0043-437f-a3a5-7e2d73fbc82a" x="37.15" y="305.97" width="4.85" height="1.65" rx="0.58"/><rect class="a1ace5d6-0043-437f-a3a5-7e2d73fbc82a" x="10.92" y="309.04" width="6.33" height="1.65" rx="0.58"/><rect class="a1ace5d6-0043-437f-a3a5-7e2d73fbc82a" x="10.92" y="311.81" width="14.81" height="1.65" rx="0.58"/><rect class="a1ace5d6-0043-437f-a3a5-7e2d73fbc82a" x="10.45" y="314.57" width="4.66" height="1.65" rx="0.58"/><rect class="a1ace5d6-0043-437f-a3a5-7e2d73fbc82a" x="16" y="314.57" width="12.28" height="1.65" rx="0.58"/><rect class="a1ace5d6-0043-437f-a3a5-7e2d73fbc82a" x="7.1" y="317.56" width="3.29" height="1.65" rx="0.58"/><rect class="b0f8c087-2389-4293-835d-a9b2c0517c44" x="7.1" y="320.69" width="21.43" height="1.65" rx="0.58"/><rect class="a1ace5d6-0043-437f-a3a5-7e2d73fbc82a" x="29.58" y="320.69" width="4.53" height="1.65" rx="0.58"/><rect class="a1ace5d6-0043-437f-a3a5-7e2d73fbc82a" x="34.91" y="320.69" width="15.13" height="1.65" rx="0.58"/><rect class="a1ace5d6-0043-437f-a3a5-7e2d73fbc82a" x="51.38" y="320.69" width="6.44" height="1.65" rx="0.58"/><rect class="a1ace5d6-0043-437f-a3a5-7e2d73fbc82a" x="59.09" y="320.69" width="3.29" height="1.65" rx="0.58"/><rect class="ac22862a-cf24-4a15-adfc-a0556c833150" x="10.96" y="323.81" width="11.81" height="1.65" rx="0.58"/><rect class="ac22862a-cf24-4a15-adfc-a0556c833150" x="24.09" y="323.81" width="11.81" height="1.65" rx="0.58"/><rect class="b0f8c087-2389-4293-835d-a9b2c0517c44" x="36.73" y="323.81" width="6.94" height="1.65" rx="0.58"/><rect class="b0f8c087-2389-4293-835d-a9b2c0517c44" x="44.6" y="323.81" width="9.13" height="1.65" rx="0.58"/><rect class="a1ace5d6-0043-437f-a3a5-7e2d73fbc82a" x="55.04" y="323.81" width="6.65" height="1.65" rx="0.58"/><rect class="a1ace5d6-0043-437f-a3a5-7e2d73fbc82a" x="62.55" y="323.81" width="14.88" height="1.65" rx="0.58"/><rect class="a1ace5d6-0043-437f-a3a5-7e2d73fbc82a" x="26.8" y="326.61" width="6.62" height="1.65" rx="0.58"/><rect class="a1ace5d6-0043-437f-a3a5-7e2d73fbc82a" x="34.4" y="326.61" width="6.62" height="1.65" rx="0.58"/><rect class="a1ace5d6-0043-437f-a3a5-7e2d73fbc82a" x="42.28" y="326.61" width="9.1" height="1.65" rx="0.58"/><rect class="a1ace5d6-0043-437f-a3a5-7e2d73fbc82a" x="52.59" y="326.61" width="6.5" height="1.65" rx="0.58"/><rect class="a1ace5d6-0043-437f-a3a5-7e2d73fbc82a" x="7.21" y="329.41" width="9.13" height="1.65" rx="0.58"/><rect class="a1ace5d6-0043-437f-a3a5-7e2d73fbc82a" x="17.57" y="329.41" width="6.52" height="1.65" rx="0.58"/><rect class="a1ace5d6-0043-437f-a3a5-7e2d73fbc82a" x="6.96" y="332.53" width="15.18" height="1.65" rx="0.58"/><rect class="a1ace5d6-0043-437f-a3a5-7e2d73fbc82a" x="22.93" y="332.53" width="6.66" height="1.65" rx="0.58"/><rect class="a1ace5d6-0043-437f-a3a5-7e2d73fbc82a" x="30.78" y="332.53" width="3.33" height="1.65" rx="0.58"/><rect class="b0f8c087-2389-4293-835d-a9b2c0517c44" x="34.91" y="332.53" width="15.65" height="1.65" rx="0.58"/><rect class="ac22862a-cf24-4a15-adfc-a0556c833150" x="7.12" y="335.39" width="4.63" height="1.65" rx="0.58"/><rect class="a1ace5d6-0043-437f-a3a5-7e2d73fbc82a" x="12.78" y="335.39" width="11.78" height="1.65" rx="0.58"/><rect class="a1ace5d6-0043-437f-a3a5-7e2d73fbc82a" x="6.89" y="338.54" width="15.25" height="1.65" rx="0.58"/><rect class="a1ace5d6-0043-437f-a3a5-7e2d73fbc82a" x="7.21" y="341.19" width="6.27" height="1.65" rx="0.58"/><rect class="ac22862a-cf24-4a15-adfc-a0556c833150" x="3.76" y="344.4" width="20.81" height="1.65" rx="0.58"/><rect class="b0f8c087-2389-4293-835d-a9b2c0517c44" x="25.95" y="344.4" width="6.49" height="1.65" rx="0.58"/><rect class="a1ace5d6-0043-437f-a3a5-7e2d73fbc82a" x="33.49" y="344.4" width="12.17" height="1.65" rx="0.58"/><rect class="a1ace5d6-0043-437f-a3a5-7e2d73fbc82a" x="46.51" y="344.4" width="12.17" height="1.65" rx="0.58"/><rect class="a1ace5d6-0043-437f-a3a5-7e2d73fbc82a" x="59.29" y="344.4" width="7.26" height="1.65" rx="0.58"/><rect class="a1ace5d6-0043-437f-a3a5-7e2d73fbc82a" x="66.94" y="344.4" width="15.12" height="1.65" rx="0.58"/><rect class="a1ace5d6-0043-437f-a3a5-7e2d73fbc82a" x="82.81" y="344.4" width="7.16" height="1.65" rx="0.58"/><rect class="ac22862a-cf24-4a15-adfc-a0556c833150" x="3.4" y="347.33" width="6.49" height="1.65" rx="0.58"/><rect class="b0f8c087-2389-4293-835d-a9b2c0517c44" x="10.91" y="347.33" width="2.94" height="1.65" rx="0.58"/><rect class="b0f8c087-2389-4293-835d-a9b2c0517c44" x="14.57" y="347.33" width="6.49" height="1.65" rx="0.58"/><rect class="a1ace5d6-0043-437f-a3a5-7e2d73fbc82a" x="22.07" y="347.33" width="4.45" height="1.65" rx="0.58"/><rect class="a1ace5d6-0043-437f-a3a5-7e2d73fbc82a" x="27.53" y="347.33" width="18.13" height="1.65" rx="0.58"/><rect class="a1ace5d6-0043-437f-a3a5-7e2d73fbc82a" x="46.8" y="347.33" width="4.58" height="1.65" rx="0.58"/><rect class="a1ace5d6-0043-437f-a3a5-7e2d73fbc82a" x="52.19" y="347.33" width="4.72" height="1.65" rx="0.58"/><rect class="ac22862a-cf24-4a15-adfc-a0556c833150" x="3.71" y="350.25" width="2.32" height="1.65" rx="0.58"/><rect class="ac22862a-cf24-4a15-adfc-a0556c833150" x="6.64" y="350.25" width="15.07" height="1.65" rx="0.58"/><rect class="a1ace5d6-0043-437f-a3a5-7e2d73fbc82a" x="23.01" y="350.25" width="6.49" height="1.65" rx="0.58"/><rect class="a1ace5d6-0043-437f-a3a5-7e2d73fbc82a" x="3.04" y="353.38" width="4.89" height="1.65" rx="0.58"/><rect class="a1ace5d6-0043-437f-a3a5-7e2d73fbc82a" x="8.8" y="353.38" width="18" height="1.65" rx="0.58"/><rect class="b0f8c087-2389-4293-835d-a9b2c0517c44" x="27.67" y="353.38" width="4.45" height="1.65" rx="0.58"/><rect class="b0f8c087-2389-4293-835d-a9b2c0517c44" x="33.48" y="353.38" width="4.68" height="1.65" rx="0.58"/><rect class="a1ace5d6-0043-437f-a3a5-7e2d73fbc82a" x="38.97" y="353.38" width="17.94" height="1.65" rx="0.58"/><rect class="a1ace5d6-0043-437f-a3a5-7e2d73fbc82a" x="2.79" y="357.06" width="6.31" height="1.65" rx="0.58"/><rect class="ac22862a-cf24-4a15-adfc-a0556c833150" x="8.74" y="360.24" width="11.24" height="1.65" rx="0.58"/><rect class="a1ace5d6-0043-437f-a3a5-7e2d73fbc82a" x="21.34" y="360.24" width="4.87" height="1.65" rx="0.58"/><rect class="a1ace5d6-0043-437f-a3a5-7e2d73fbc82a" x="27.33" y="360.24" width="17.31" height="1.65" rx="0.58"/><rect class="a1ace5d6-0043-437f-a3a5-7e2d73fbc82a" x="45.7" y="360.24" width="3.29" height="1.65" rx="0.58"/><rect class="ac22862a-cf24-4a15-adfc-a0556c833150" x="12.14" y="363.33" width="6.62" height="1.65" rx="0.58"/><rect class="b0f8c087-2389-4293-835d-a9b2c0517c44" x="20.01" y="363.33" width="17.98" height="1.65" rx="0.58"/><rect class="a1ace5d6-0043-437f-a3a5-7e2d73fbc82a" x="14.6" y="366.1" width="3.29" height="1.65" rx="0.58"/><rect class="a1ace5d6-0043-437f-a3a5-7e2d73fbc82a" x="18.93" y="366.1" width="14.4" height="1.65" rx="0.58"/><rect class="a1ace5d6-0043-437f-a3a5-7e2d73fbc82a" x="34.86" y="366.1" width="6.62" height="1.65" rx="0.58"/><rect class="ac22862a-cf24-4a15-adfc-a0556c833150" x="15.16" y="369.17" width="4.66" height="1.65" rx="0.58"/><rect class="b0f8c087-2389-4293-835d-a9b2c0517c44" x="20.85" y="369.17" width="17.73" height="1.65" rx="0.58"/><rect class="a1ace5d6-0043-437f-a3a5-7e2d73fbc82a" x="39.75" y="369.17" width="4.85" height="1.65" rx="0.58"/><rect class="a1ace5d6-0043-437f-a3a5-7e2d73fbc82a" x="45.22" y="369.17" width="4.85" height="1.65" rx="0.58"/><rect class="a1ace5d6-0043-437f-a3a5-7e2d73fbc82a" x="15.98" y="372.25" width="6.33" height="1.65" rx="0.58"/><rect class="a1ace5d6-0043-437f-a3a5-7e2d73fbc82a" x="15.98" y="375.01" width="14.81" height="1.65" rx="0.58"/><rect class="a1ace5d6-0043-437f-a3a5-7e2d73fbc82a" x="15.52" y="377.78" width="4.66" height="1.65" rx="0.58"/><rect class="a1ace5d6-0043-437f-a3a5-7e2d73fbc82a" x="21.06" y="377.78" width="12.28" height="1.65" rx="0.58"/><rect class="a1ace5d6-0043-437f-a3a5-7e2d73fbc82a" x="12.16" y="380.76" width="3.29" height="1.65" rx="0.58"/><rect class="ac22862a-cf24-4a15-adfc-a0556c833150" x="3.5" y="386.74" width="14.31" height="1.65" rx="0.58"/><rect class="a1ace5d6-0043-437f-a3a5-7e2d73fbc82a" x="3.5" y="383.94" width="11.81" height="1.65" rx="0.58"/><rect class="ac22862a-cf24-4a15-adfc-a0556c833150" x="16.63" y="383.94" width="11.81" height="1.65" rx="0.58"/><rect class="b0f8c087-2389-4293-835d-a9b2c0517c44" x="29.27" y="383.94" width="6.94" height="1.65" rx="0.58"/><rect class="b0f8c087-2389-4293-835d-a9b2c0517c44" x="37.14" y="383.94" width="9.13" height="1.65" rx="0.58"/><rect class="a1ace5d6-0043-437f-a3a5-7e2d73fbc82a" x="47.58" y="383.94" width="6.65" height="1.65" rx="0.58"/><rect class="a1ace5d6-0043-437f-a3a5-7e2d73fbc82a" x="55.09" y="383.94" width="14.88" height="1.65" rx="0.58"/><rect class="a1ace5d6-0043-437f-a3a5-7e2d73fbc82a" x="19.34" y="386.74" width="6.62" height="1.65" rx="0.58"/><rect class="a1ace5d6-0043-437f-a3a5-7e2d73fbc82a" x="26.93" y="386.74" width="6.62" height="1.65" rx="0.58"/><rect class="a1ace5d6-0043-437f-a3a5-7e2d73fbc82a" x="34.82" y="386.74" width="9.1" height="1.65" rx="0.58"/><rect class="a1ace5d6-0043-437f-a3a5-7e2d73fbc82a" x="45.13" y="386.74" width="6.5" height="1.65" rx="0.58"/><rect class="ac22862a-cf24-4a15-adfc-a0556c833150" x="6.1" y="389.64" width="4.66" height="1.65" rx="0.58"/><rect class="b0f8c087-2389-4293-835d-a9b2c0517c44" x="11.78" y="389.64" width="17.73" height="1.65" rx="0.58"/><rect class="a1ace5d6-0043-437f-a3a5-7e2d73fbc82a" x="30.69" y="389.64" width="4.85" height="1.65" rx="0.58"/><rect class="a1ace5d6-0043-437f-a3a5-7e2d73fbc82a" x="36.15" y="389.64" width="4.85" height="1.65" rx="0.58"/><rect class="a1ace5d6-0043-437f-a3a5-7e2d73fbc82a" x="9.92" y="392.71" width="6.33" height="1.65" rx="0.58"/></svg>