<svg id="adff61f9-6cda-40f7-b641-349647179558" data-name="Layer 1" xmlns="http://www.w3.org/2000/svg" viewBox="0 0 87.6 196.36"><defs><style>.a3cb9cec-ea30-4183-a533-64563116d179{fill:#004fff;}.b7625e16-9b73-4661-a7a1-f2317d4b5e03{fill:#022563;}.a41df95e-68e5-45e2-a35c-56a20b9f6f7c{fill:#00c5d4;}.bd172b31-dc35-4bdf-88e4-4b41967d61f6{fill:#00aeef;}</style></defs><rect class="a3cb9cec-ea30-4183-a533-64563116d179" x="0.89" width="11.24" height="1.65" rx="0.58"/><rect class="b7625e16-9b73-4661-a7a1-f2317d4b5e03" x="8.17" y="29.57" width="14.31" height="1.65" rx="0.58"/><rect class="a3cb9cec-ea30-4183-a533-64563116d179" x="13.49" width="4.87" height="1.65" rx="0.58"/><rect class="a3cb9cec-ea30-4183-a533-64563116d179" x="19.48" width="17.31" height="1.65" rx="0.58"/><rect class="a3cb9cec-ea30-4183-a533-64563116d179" x="37.84" width="3.29" height="1.65" rx="0.58"/><rect class="b7625e16-9b73-4661-a7a1-f2317d4b5e03" x="4.28" y="3.09" width="6.62" height="1.65" rx="0.58"/><rect class="a41df95e-68e5-45e2-a35c-56a20b9f6f7c" x="12.15" y="3.09" width="17.98" height="1.65" rx="0.58"/><rect class="a3cb9cec-ea30-4183-a533-64563116d179" x="3.75" y="5.86" width="3.29" height="1.65" rx="0.58"/><rect class="a3cb9cec-ea30-4183-a533-64563116d179" x="8.08" y="5.86" width="14.4" height="1.65" rx="0.58"/><rect class="a3cb9cec-ea30-4183-a533-64563116d179" x="24.01" y="5.86" width="6.62" height="1.65" rx="0.58"/><rect class="b7625e16-9b73-4661-a7a1-f2317d4b5e03" x="4.31" y="8.94" width="4.66" height="1.65" rx="0.58"/><rect class="a41df95e-68e5-45e2-a35c-56a20b9f6f7c" x="9.99" y="8.94" width="17.73" height="1.65" rx="0.58"/><rect class="a3cb9cec-ea30-4183-a533-64563116d179" x="28.89" y="8.94" width="4.85" height="1.65" rx="0.58"/><rect class="a3cb9cec-ea30-4183-a533-64563116d179" x="34.36" y="8.94" width="4.85" height="1.65" rx="0.58"/><rect class="a3cb9cec-ea30-4183-a533-64563116d179" x="8.13" y="12.01" width="6.33" height="1.65" rx="0.58"/><rect class="a3cb9cec-ea30-4183-a533-64563116d179" x="8.13" y="14.77" width="14.81" height="1.65" rx="0.58"/><rect class="a3cb9cec-ea30-4183-a533-64563116d179" x="7.66" y="17.54" width="4.66" height="1.65" rx="0.58"/><rect class="a3cb9cec-ea30-4183-a533-64563116d179" x="13.21" y="17.54" width="12.28" height="1.65" rx="0.58"/><rect class="a3cb9cec-ea30-4183-a533-64563116d179" x="4.31" y="20.53" width="3.29" height="1.65" rx="0.58"/><rect class="a41df95e-68e5-45e2-a35c-56a20b9f6f7c" x="4.31" y="23.65" width="21.43" height="1.65" rx="0.58"/><rect class="a3cb9cec-ea30-4183-a533-64563116d179" x="26.79" y="23.65" width="4.53" height="1.65" rx="0.58"/><rect class="a3cb9cec-ea30-4183-a533-64563116d179" x="32.12" y="23.65" width="15.13" height="1.65" rx="0.58"/><rect class="a3cb9cec-ea30-4183-a533-64563116d179" x="48.59" y="23.65" width="6.44" height="1.65" rx="0.58"/><rect class="a3cb9cec-ea30-4183-a533-64563116d179" x="56.3" y="23.65" width="3.29" height="1.65" rx="0.58"/><rect class="b7625e16-9b73-4661-a7a1-f2317d4b5e03" x="8.17" y="26.77" width="11.81" height="1.65" rx="0.58"/><rect class="b7625e16-9b73-4661-a7a1-f2317d4b5e03" x="21.3" y="26.77" width="11.81" height="1.65" rx="0.58"/><rect class="a41df95e-68e5-45e2-a35c-56a20b9f6f7c" x="33.94" y="26.77" width="6.94" height="1.65" rx="0.58"/><rect class="a41df95e-68e5-45e2-a35c-56a20b9f6f7c" x="41.81" y="26.77" width="9.13" height="1.65" rx="0.58"/><rect class="a3cb9cec-ea30-4183-a533-64563116d179" x="52.25" y="26.77" width="6.65" height="1.65" rx="0.58"/><rect class="a3cb9cec-ea30-4183-a533-64563116d179" x="59.76" y="26.77" width="14.88" height="1.65" rx="0.58"/><rect class="a3cb9cec-ea30-4183-a533-64563116d179" x="75.66" y="26.77" width="6.65" height="1.65" rx="0.58"/><rect class="bd172b31-dc35-4bdf-88e4-4b41967d61f6" x="83.57" y="26.77" width="2.77" height="1.65" rx="0.58"/><rect class="a3cb9cec-ea30-4183-a533-64563116d179" x="24.01" y="29.57" width="6.62" height="1.65" rx="0.58"/><rect class="a3cb9cec-ea30-4183-a533-64563116d179" x="31.61" y="29.57" width="6.62" height="1.65" rx="0.58"/><rect class="a3cb9cec-ea30-4183-a533-64563116d179" x="39.49" y="29.57" width="9.1" height="1.65" rx="0.58"/><rect class="a3cb9cec-ea30-4183-a533-64563116d179" x="49.8" y="29.57" width="6.5" height="1.65" rx="0.58"/><rect class="a3cb9cec-ea30-4183-a533-64563116d179" x="4.42" y="32.38" width="9.13" height="1.65" rx="0.58"/><rect class="a3cb9cec-ea30-4183-a533-64563116d179" x="14.78" y="32.38" width="6.52" height="1.65" rx="0.58"/><rect class="a3cb9cec-ea30-4183-a533-64563116d179" x="4.17" y="35.49" width="15.18" height="1.65" rx="0.58"/><rect class="a3cb9cec-ea30-4183-a533-64563116d179" x="20.14" y="35.49" width="6.66" height="1.65" rx="0.58"/><rect class="a3cb9cec-ea30-4183-a533-64563116d179" x="27.99" y="35.49" width="3.33" height="1.65" rx="0.58"/><rect class="a41df95e-68e5-45e2-a35c-56a20b9f6f7c" x="32.12" y="35.49" width="15.65" height="1.65" rx="0.58"/><rect class="b7625e16-9b73-4661-a7a1-f2317d4b5e03" x="4.33" y="38.35" width="4.63" height="1.65" rx="0.58"/><rect class="a3cb9cec-ea30-4183-a533-64563116d179" x="9.99" y="38.35" width="11.78" height="1.65" rx="0.58"/><rect class="a3cb9cec-ea30-4183-a533-64563116d179" x="4.1" y="41.5" width="15.25" height="1.65" rx="0.58"/><rect class="a3cb9cec-ea30-4183-a533-64563116d179" x="4.42" y="44.16" width="6.27" height="1.65" rx="0.58"/><rect class="b7625e16-9b73-4661-a7a1-f2317d4b5e03" x="0.97" y="47.36" width="20.81" height="1.65" rx="0.58"/><rect class="a3cb9cec-ea30-4183-a533-64563116d179" x="23.16" y="47.36" width="6.49" height="1.65" rx="0.58"/><rect class="a3cb9cec-ea30-4183-a533-64563116d179" x="30.7" y="47.36" width="12.17" height="1.65" rx="0.58"/><rect class="a3cb9cec-ea30-4183-a533-64563116d179" x="43.72" y="47.36" width="12.17" height="1.65" rx="0.58"/><rect class="a3cb9cec-ea30-4183-a533-64563116d179" x="56.5" y="47.36" width="7.26" height="1.65" rx="0.58"/><rect class="a3cb9cec-ea30-4183-a533-64563116d179" x="64.15" y="47.36" width="15.12" height="1.65" rx="0.58"/><rect class="a3cb9cec-ea30-4183-a533-64563116d179" x="80.02" y="47.36" width="7.16" height="1.65" rx="0.58"/><rect class="b7625e16-9b73-4661-a7a1-f2317d4b5e03" x="0.61" y="50.29" width="6.49" height="1.65" rx="0.58"/><rect class="a41df95e-68e5-45e2-a35c-56a20b9f6f7c" x="8.12" y="50.29" width="2.94" height="1.65" rx="0.58"/><rect class="a41df95e-68e5-45e2-a35c-56a20b9f6f7c" x="11.78" y="50.29" width="6.49" height="1.65" rx="0.58"/><rect class="a3cb9cec-ea30-4183-a533-64563116d179" x="19.28" y="50.29" width="4.45" height="1.65" rx="0.58"/><rect class="a3cb9cec-ea30-4183-a533-64563116d179" x="24.74" y="50.29" width="18.13" height="1.65" rx="0.58"/><rect class="a3cb9cec-ea30-4183-a533-64563116d179" x="44.01" y="50.29" width="4.58" height="1.65" rx="0.58"/><rect class="a3cb9cec-ea30-4183-a533-64563116d179" x="49.4" y="50.29" width="4.72" height="1.65" rx="0.58"/><rect class="b7625e16-9b73-4661-a7a1-f2317d4b5e03" x="0.92" y="53.22" width="2.32" height="1.65" rx="0.58"/><rect class="b7625e16-9b73-4661-a7a1-f2317d4b5e03" x="3.85" y="53.22" width="15.07" height="1.65" rx="0.58"/><rect class="a3cb9cec-ea30-4183-a533-64563116d179" x="20.22" y="53.22" width="6.49" height="1.65" rx="0.58"/><rect class="a3cb9cec-ea30-4183-a533-64563116d179" x="0.25" y="56.34" width="4.89" height="1.65" rx="0.58"/><rect class="a3cb9cec-ea30-4183-a533-64563116d179" x="6.01" y="56.34" width="18" height="1.65" rx="0.58"/><rect class="a41df95e-68e5-45e2-a35c-56a20b9f6f7c" x="24.88" y="56.34" width="4.45" height="1.65" rx="0.58"/><rect class="a41df95e-68e5-45e2-a35c-56a20b9f6f7c" x="30.69" y="56.34" width="4.68" height="1.65" rx="0.58"/><rect class="a3cb9cec-ea30-4183-a533-64563116d179" x="36.18" y="56.34" width="17.94" height="1.65" rx="0.58"/><rect class="a3cb9cec-ea30-4183-a533-64563116d179" y="60.03" width="6.31" height="1.65" rx="0.58"/><rect class="b7625e16-9b73-4661-a7a1-f2317d4b5e03" x="5.95" y="63.2" width="11.24" height="1.65" rx="0.58"/><rect class="a3cb9cec-ea30-4183-a533-64563116d179" x="18.55" y="63.2" width="4.87" height="1.65" rx="0.58"/><rect class="a3cb9cec-ea30-4183-a533-64563116d179" x="24.54" y="63.2" width="17.31" height="1.65" rx="0.58"/><rect class="a3cb9cec-ea30-4183-a533-64563116d179" x="42.91" y="63.2" width="3.29" height="1.65" rx="0.58"/><rect class="b7625e16-9b73-4661-a7a1-f2317d4b5e03" x="9.35" y="66.29" width="6.62" height="1.65" rx="0.58"/><rect class="a41df95e-68e5-45e2-a35c-56a20b9f6f7c" x="17.22" y="66.29" width="17.98" height="1.65" rx="0.58"/><rect class="a3cb9cec-ea30-4183-a533-64563116d179" x="11.81" y="69.06" width="3.29" height="1.65" rx="0.58"/><rect class="a3cb9cec-ea30-4183-a533-64563116d179" x="16.14" y="69.06" width="14.4" height="1.65" rx="0.58"/><rect class="a3cb9cec-ea30-4183-a533-64563116d179" x="32.07" y="69.06" width="6.62" height="1.65" rx="0.58"/><rect class="b7625e16-9b73-4661-a7a1-f2317d4b5e03" x="12.37" y="72.14" width="4.66" height="1.65" rx="0.58"/><rect class="a41df95e-68e5-45e2-a35c-56a20b9f6f7c" x="18.06" y="72.14" width="17.73" height="1.65" rx="0.58"/><rect class="a3cb9cec-ea30-4183-a533-64563116d179" x="36.96" y="72.14" width="4.85" height="1.65" rx="0.58"/><rect class="a3cb9cec-ea30-4183-a533-64563116d179" x="42.42" y="72.14" width="4.85" height="1.65" rx="0.58"/><rect class="a3cb9cec-ea30-4183-a533-64563116d179" x="13.19" y="75.21" width="6.33" height="1.65" rx="0.58"/><rect class="a3cb9cec-ea30-4183-a533-64563116d179" x="13.19" y="77.98" width="14.81" height="1.65" rx="0.58"/><rect class="a3cb9cec-ea30-4183-a533-64563116d179" x="12.73" y="80.74" width="4.66" height="1.65" rx="0.58"/><rect class="a3cb9cec-ea30-4183-a533-64563116d179" x="18.27" y="80.74" width="12.28" height="1.65" rx="0.58"/><rect class="a3cb9cec-ea30-4183-a533-64563116d179" x="9.37" y="83.73" width="3.29" height="1.65" rx="0.58"/><rect class="b7625e16-9b73-4661-a7a1-f2317d4b5e03" x="0.71" y="89.71" width="14.31" height="1.65" rx="0.58"/><rect class="a3cb9cec-ea30-4183-a533-64563116d179" x="0.71" y="86.91" width="11.81" height="1.65" rx="0.58"/><rect class="b7625e16-9b73-4661-a7a1-f2317d4b5e03" x="13.84" y="86.91" width="11.81" height="1.65" rx="0.58"/><rect class="a41df95e-68e5-45e2-a35c-56a20b9f6f7c" x="26.48" y="86.91" width="6.94" height="1.65" rx="0.58"/><rect class="a41df95e-68e5-45e2-a35c-56a20b9f6f7c" x="34.35" y="86.91" width="9.13" height="1.65" rx="0.58"/><rect class="a3cb9cec-ea30-4183-a533-64563116d179" x="44.79" y="86.91" width="6.65" height="1.65" rx="0.58"/><rect class="a3cb9cec-ea30-4183-a533-64563116d179" x="52.3" y="86.91" width="14.88" height="1.65" rx="0.58"/><rect class="a3cb9cec-ea30-4183-a533-64563116d179" x="16.55" y="89.71" width="6.62" height="1.65" rx="0.58"/><rect class="a3cb9cec-ea30-4183-a533-64563116d179" x="24.14" y="89.71" width="6.62" height="1.65" rx="0.58"/><rect class="a3cb9cec-ea30-4183-a533-64563116d179" x="32.03" y="89.71" width="9.1" height="1.65" rx="0.58"/><rect class="a3cb9cec-ea30-4183-a533-64563116d179" x="42.34" y="89.71" width="6.5" height="1.65" rx="0.58"/><rect class="b7625e16-9b73-4661-a7a1-f2317d4b5e03" x="3.31" y="92.6" width="4.66" height="1.65" rx="0.58"/><rect class="a41df95e-68e5-45e2-a35c-56a20b9f6f7c" x="8.99" y="92.6" width="17.73" height="1.65" rx="0.58"/><rect class="a3cb9cec-ea30-4183-a533-64563116d179" x="27.9" y="92.6" width="4.85" height="1.65" rx="0.58"/><rect class="a3cb9cec-ea30-4183-a533-64563116d179" x="33.36" y="92.6" width="4.85" height="1.65" rx="0.58"/><rect class="a3cb9cec-ea30-4183-a533-64563116d179" x="7.13" y="95.68" width="6.33" height="1.65" rx="0.58"/><rect class="a3cb9cec-ea30-4183-a533-64563116d179" x="1.3" y="99.04" width="11.24" height="1.65" rx="0.58"/><rect class="b7625e16-9b73-4661-a7a1-f2317d4b5e03" x="8.59" y="128.62" width="14.31" height="1.65" rx="0.58"/><rect class="a3cb9cec-ea30-4183-a533-64563116d179" x="13.9" y="99.04" width="4.87" height="1.65" rx="0.58"/><rect class="a3cb9cec-ea30-4183-a533-64563116d179" x="19.89" y="99.04" width="17.31" height="1.65" rx="0.58"/><rect class="a3cb9cec-ea30-4183-a533-64563116d179" x="38.26" y="99.04" width="3.29" height="1.65" rx="0.58"/><rect class="b7625e16-9b73-4661-a7a1-f2317d4b5e03" x="4.7" y="102.13" width="6.62" height="1.65" rx="0.58"/><rect class="a41df95e-68e5-45e2-a35c-56a20b9f6f7c" x="12.57" y="102.13" width="17.98" height="1.65" rx="0.58"/><rect class="a3cb9cec-ea30-4183-a533-64563116d179" x="4.16" y="104.9" width="3.29" height="1.65" rx="0.58"/><rect class="a3cb9cec-ea30-4183-a533-64563116d179" x="8.49" y="104.9" width="14.4" height="1.65" rx="0.58"/><rect class="a3cb9cec-ea30-4183-a533-64563116d179" x="24.42" y="104.9" width="6.62" height="1.65" rx="0.58"/><rect class="b7625e16-9b73-4661-a7a1-f2317d4b5e03" x="4.72" y="107.98" width="4.66" height="1.65" rx="0.58"/><rect class="a41df95e-68e5-45e2-a35c-56a20b9f6f7c" x="10.41" y="107.98" width="17.73" height="1.65" rx="0.58"/><rect class="a3cb9cec-ea30-4183-a533-64563116d179" x="29.31" y="107.98" width="4.85" height="1.65" rx="0.58"/><rect class="a3cb9cec-ea30-4183-a533-64563116d179" x="34.77" y="107.98" width="4.85" height="1.65" rx="0.58"/><rect class="a3cb9cec-ea30-4183-a533-64563116d179" x="8.54" y="111.05" width="6.33" height="1.65" rx="0.58"/><rect class="a3cb9cec-ea30-4183-a533-64563116d179" x="8.54" y="113.81" width="14.81" height="1.65" rx="0.58"/><rect class="a3cb9cec-ea30-4183-a533-64563116d179" x="8.08" y="116.58" width="4.66" height="1.65" rx="0.58"/><rect class="a3cb9cec-ea30-4183-a533-64563116d179" x="13.62" y="116.58" width="12.28" height="1.65" rx="0.58"/><rect class="a3cb9cec-ea30-4183-a533-64563116d179" x="4.72" y="119.57" width="3.29" height="1.65" rx="0.58"/><rect class="a41df95e-68e5-45e2-a35c-56a20b9f6f7c" x="4.72" y="122.69" width="21.43" height="1.65" rx="0.58"/><rect class="a3cb9cec-ea30-4183-a533-64563116d179" x="27.21" y="122.69" width="4.53" height="1.65" rx="0.58"/><rect class="a3cb9cec-ea30-4183-a533-64563116d179" x="32.54" y="122.69" width="15.13" height="1.65" rx="0.58"/><rect class="a3cb9cec-ea30-4183-a533-64563116d179" x="49" y="122.69" width="6.44" height="1.65" rx="0.58"/><rect class="a3cb9cec-ea30-4183-a533-64563116d179" x="56.72" y="122.69" width="3.29" height="1.65" rx="0.58"/><rect class="b7625e16-9b73-4661-a7a1-f2317d4b5e03" x="8.59" y="125.81" width="11.81" height="1.65" rx="0.58"/><rect class="b7625e16-9b73-4661-a7a1-f2317d4b5e03" x="21.72" y="125.81" width="11.81" height="1.65" rx="0.58"/><rect class="a41df95e-68e5-45e2-a35c-56a20b9f6f7c" x="34.36" y="125.81" width="6.94" height="1.65" rx="0.58"/><rect class="a41df95e-68e5-45e2-a35c-56a20b9f6f7c" x="42.22" y="125.81" width="9.13" height="1.65" rx="0.58"/><rect class="a3cb9cec-ea30-4183-a533-64563116d179" x="52.67" y="125.81" width="6.65" height="1.65" rx="0.58"/><rect class="a3cb9cec-ea30-4183-a533-64563116d179" x="60.17" y="125.81" width="14.88" height="1.65" rx="0.58"/><rect class="a3cb9cec-ea30-4183-a533-64563116d179" x="24.42" y="128.62" width="6.62" height="1.65" rx="0.58"/><rect class="a3cb9cec-ea30-4183-a533-64563116d179" x="32.02" y="128.62" width="6.62" height="1.65" rx="0.58"/><rect class="a3cb9cec-ea30-4183-a533-64563116d179" x="39.9" y="128.62" width="9.1" height="1.65" rx="0.58"/><rect class="a3cb9cec-ea30-4183-a533-64563116d179" x="50.22" y="128.62" width="6.5" height="1.65" rx="0.58"/><rect class="a3cb9cec-ea30-4183-a533-64563116d179" x="4.83" y="131.42" width="9.13" height="1.65" rx="0.58"/><rect class="a3cb9cec-ea30-4183-a533-64563116d179" x="15.2" y="131.42" width="6.52" height="1.65" rx="0.58"/><rect class="a3cb9cec-ea30-4183-a533-64563116d179" x="4.58" y="134.53" width="15.18" height="1.65" rx="0.58"/><rect class="a3cb9cec-ea30-4183-a533-64563116d179" x="20.55" y="134.53" width="6.66" height="1.65" rx="0.58"/><rect class="a3cb9cec-ea30-4183-a533-64563116d179" x="28.4" y="134.53" width="3.33" height="1.65" rx="0.58"/><rect class="a41df95e-68e5-45e2-a35c-56a20b9f6f7c" x="32.54" y="134.53" width="15.65" height="1.65" rx="0.58"/><rect class="b7625e16-9b73-4661-a7a1-f2317d4b5e03" x="4.75" y="137.39" width="4.63" height="1.65" rx="0.58"/><rect class="a3cb9cec-ea30-4183-a533-64563116d179" x="10.41" y="137.39" width="11.78" height="1.65" rx="0.58"/><rect class="a3cb9cec-ea30-4183-a533-64563116d179" x="4.52" y="140.54" width="15.25" height="1.65" rx="0.58"/><rect class="a3cb9cec-ea30-4183-a533-64563116d179" x="4.83" y="143.2" width="6.27" height="1.65" rx="0.58"/><rect class="b7625e16-9b73-4661-a7a1-f2317d4b5e03" x="1.38" y="146.4" width="20.81" height="1.65" rx="0.58"/><rect class="a41df95e-68e5-45e2-a35c-56a20b9f6f7c" x="23.58" y="146.4" width="6.49" height="1.65" rx="0.58"/><rect class="a3cb9cec-ea30-4183-a533-64563116d179" x="31.11" y="146.4" width="12.17" height="1.65" rx="0.58"/><rect class="a3cb9cec-ea30-4183-a533-64563116d179" x="44.13" y="146.4" width="12.17" height="1.65" rx="0.58"/><rect class="a3cb9cec-ea30-4183-a533-64563116d179" x="56.91" y="146.4" width="7.26" height="1.65" rx="0.58"/><rect class="a3cb9cec-ea30-4183-a533-64563116d179" x="64.57" y="146.4" width="15.12" height="1.65" rx="0.58"/><rect class="a3cb9cec-ea30-4183-a533-64563116d179" x="80.44" y="146.4" width="7.16" height="1.65" rx="0.58"/><rect class="b7625e16-9b73-4661-a7a1-f2317d4b5e03" x="1.02" y="149.33" width="6.49" height="1.65" rx="0.58"/><rect class="a41df95e-68e5-45e2-a35c-56a20b9f6f7c" x="8.54" y="149.33" width="2.94" height="1.65" rx="0.58"/><rect class="a41df95e-68e5-45e2-a35c-56a20b9f6f7c" x="12.19" y="149.33" width="6.49" height="1.65" rx="0.58"/><rect class="a3cb9cec-ea30-4183-a533-64563116d179" x="19.7" y="149.33" width="4.45" height="1.65" rx="0.58"/><rect class="a3cb9cec-ea30-4183-a533-64563116d179" x="25.16" y="149.33" width="18.13" height="1.65" rx="0.58"/><rect class="a3cb9cec-ea30-4183-a533-64563116d179" x="44.42" y="149.33" width="4.58" height="1.65" rx="0.58"/><rect class="a3cb9cec-ea30-4183-a533-64563116d179" x="49.81" y="149.33" width="4.72" height="1.65" rx="0.58"/><rect class="b7625e16-9b73-4661-a7a1-f2317d4b5e03" x="1.33" y="152.26" width="2.32" height="1.65" rx="0.58"/><rect class="b7625e16-9b73-4661-a7a1-f2317d4b5e03" x="4.27" y="152.26" width="15.07" height="1.65" rx="0.58"/><rect class="a3cb9cec-ea30-4183-a533-64563116d179" x="20.63" y="152.26" width="6.49" height="1.65" rx="0.58"/><rect class="a3cb9cec-ea30-4183-a533-64563116d179" x="0.67" y="155.39" width="4.89" height="1.65" rx="0.58"/><rect class="a3cb9cec-ea30-4183-a533-64563116d179" x="6.43" y="155.39" width="18" height="1.65" rx="0.58"/><rect class="a41df95e-68e5-45e2-a35c-56a20b9f6f7c" x="25.29" y="155.39" width="4.45" height="1.65" rx="0.58"/><rect class="a41df95e-68e5-45e2-a35c-56a20b9f6f7c" x="31.1" y="155.39" width="4.68" height="1.65" rx="0.58"/><rect class="a3cb9cec-ea30-4183-a533-64563116d179" x="36.59" y="155.39" width="17.94" height="1.65" rx="0.58"/><rect class="a3cb9cec-ea30-4183-a533-64563116d179" x="0.41" y="159.07" width="6.31" height="1.65" rx="0.58"/><rect class="b7625e16-9b73-4661-a7a1-f2317d4b5e03" x="6.37" y="162.24" width="11.24" height="1.65" rx="0.58"/><rect class="a3cb9cec-ea30-4183-a533-64563116d179" x="18.96" y="162.24" width="4.87" height="1.65" rx="0.58"/><rect class="a3cb9cec-ea30-4183-a533-64563116d179" x="24.95" y="162.24" width="17.31" height="1.65" rx="0.58"/><rect class="a3cb9cec-ea30-4183-a533-64563116d179" x="43.32" y="162.24" width="3.29" height="1.65" rx="0.58"/><rect class="b7625e16-9b73-4661-a7a1-f2317d4b5e03" x="9.76" y="165.33" width="6.62" height="1.65" rx="0.58"/><rect class="a41df95e-68e5-45e2-a35c-56a20b9f6f7c" x="17.63" y="165.33" width="17.98" height="1.65" rx="0.58"/><rect class="a3cb9cec-ea30-4183-a533-64563116d179" x="12.23" y="168.11" width="3.29" height="1.65" rx="0.58"/><rect class="a3cb9cec-ea30-4183-a533-64563116d179" x="16.56" y="168.11" width="14.4" height="1.65" rx="0.58"/><rect class="a3cb9cec-ea30-4183-a533-64563116d179" x="32.49" y="168.11" width="6.62" height="1.65" rx="0.58"/><rect class="b7625e16-9b73-4661-a7a1-f2317d4b5e03" x="12.78" y="171.18" width="4.66" height="1.65" rx="0.58"/><rect class="a41df95e-68e5-45e2-a35c-56a20b9f6f7c" x="18.47" y="171.18" width="17.73" height="1.65" rx="0.58"/><rect class="a3cb9cec-ea30-4183-a533-64563116d179" x="37.37" y="171.18" width="4.85" height="1.65" rx="0.58"/><rect class="a3cb9cec-ea30-4183-a533-64563116d179" x="42.84" y="171.18" width="4.85" height="1.65" rx="0.58"/><rect class="a3cb9cec-ea30-4183-a533-64563116d179" x="13.61" y="174.25" width="6.33" height="1.65" rx="0.58"/><rect class="a3cb9cec-ea30-4183-a533-64563116d179" x="13.61" y="177.02" width="14.81" height="1.65" rx="0.58"/><rect class="a3cb9cec-ea30-4183-a533-64563116d179" x="13.14" y="179.78" width="4.66" height="1.65" rx="0.58"/><rect class="a3cb9cec-ea30-4183-a533-64563116d179" x="18.68" y="179.78" width="12.28" height="1.65" rx="0.58"/><rect class="a3cb9cec-ea30-4183-a533-64563116d179" x="9.78" y="182.77" width="3.29" height="1.65" rx="0.58"/><rect class="b7625e16-9b73-4661-a7a1-f2317d4b5e03" x="1.13" y="188.75" width="14.31" height="1.65" rx="0.58"/><rect class="a3cb9cec-ea30-4183-a533-64563116d179" x="1.13" y="185.95" width="11.81" height="1.65" rx="0.58"/><rect class="b7625e16-9b73-4661-a7a1-f2317d4b5e03" x="14.26" y="185.95" width="11.81" height="1.65" rx="0.58"/><rect class="a41df95e-68e5-45e2-a35c-56a20b9f6f7c" x="26.9" y="185.95" width="6.94" height="1.65" rx="0.58"/><rect class="a41df95e-68e5-45e2-a35c-56a20b9f6f7c" x="34.76" y="185.95" width="9.13" height="1.65" rx="0.58"/><rect class="a3cb9cec-ea30-4183-a533-64563116d179" x="45.21" y="185.95" width="6.65" height="1.65" rx="0.58"/><rect class="a3cb9cec-ea30-4183-a533-64563116d179" x="52.71" y="185.95" width="14.88" height="1.65" rx="0.58"/><rect class="a3cb9cec-ea30-4183-a533-64563116d179" x="16.96" y="188.75" width="6.62" height="1.65" rx="0.58"/><rect class="a3cb9cec-ea30-4183-a533-64563116d179" x="24.56" y="188.75" width="6.62" height="1.65" rx="0.58"/><rect class="a3cb9cec-ea30-4183-a533-64563116d179" x="32.44" y="188.75" width="9.1" height="1.65" rx="0.58"/><rect class="a3cb9cec-ea30-4183-a533-64563116d179" x="42.76" y="188.75" width="6.5" height="1.65" rx="0.58"/><rect class="b7625e16-9b73-4661-a7a1-f2317d4b5e03" x="3.72" y="191.64" width="4.66" height="1.65" rx="0.58"/><rect class="a41df95e-68e5-45e2-a35c-56a20b9f6f7c" x="9.41" y="191.64" width="17.73" height="1.65" rx="0.58"/><rect class="a3cb9cec-ea30-4183-a533-64563116d179" x="28.31" y="191.64" width="4.85" height="1.65" rx="0.58"/><rect class="a3cb9cec-ea30-4183-a533-64563116d179" x="33.78" y="191.64" width="4.85" height="1.65" rx="0.58"/><rect class="a3cb9cec-ea30-4183-a533-64563116d179" x="7.54" y="194.72" width="6.33" height="1.65" rx="0.58"/></svg>