<svg id="be1da126-aa90-46f9-a20e-fc5f081d0905" data-name="Layer 1" xmlns="http://www.w3.org/2000/svg"
    viewBox="0 0 203.99 364.24">
    <defs>
        <style>
            .a27bd349-bac4-4f26-afb7-36084af57b5f,
            .a947561e-ee8c-4ff2-a5d9-e11da465e228,
            .a96fb2b2-15bb-4663-bee4-8ab44f19a2fb,
            .b33fdb05-5e87-4126-b7cb-56fee4def5b6,
            .b5b899f4-7897-4ec8-9d5f-0d7af724478f,
            .b9a94712-c995-45ef-b4e8-49fd5bcc9277,
            .e2b4b10e-1839-41b0-baa9-ef97da020e50,
            .e8b104e4-1e83-42b6-a181-848f8ce49f00,
            .ecdebd9b-da31-4c1e-9148-cf0bb117bcb4 {
                fill: none;
            }

            .e2b4b10e-1839-41b0-baa9-ef97da020e50,
            .e8b104e4-1e83-42b6-a181-848f8ce49f00 {
                stroke: #00c5d4;
            }

            .a27bd349-bac4-4f26-afb7-36084af57b5f,
            .a947561e-ee8c-4ff2-a5d9-e11da465e228,
            .a96fb2b2-15bb-4663-bee4-8ab44f19a2fb,
            .b33fdb05-5e87-4126-b7cb-56fee4def5b6,
            .b5b899f4-7897-4ec8-9d5f-0d7af724478f,
            .b9a94712-c995-45ef-b4e8-49fd5bcc9277,
            .e2b4b10e-1839-41b0-baa9-ef97da020e50,
            .e2b6b1ac-a7c2-4377-b59b-e0335589d347,
            .e8b104e4-1e83-42b6-a181-848f8ce49f00,
            .ecdebd9b-da31-4c1e-9148-cf0bb117bcb4 {
                stroke-miterlimit: 10;
            }

            .a27bd349-bac4-4f26-afb7-36084af57b5f,
            .b33fdb05-5e87-4126-b7cb-56fee4def5b6,
            .ecdebd9b-da31-4c1e-9148-cf0bb117bcb4 {
                stroke: #ff592e;
            }

            .a947561e-ee8c-4ff2-a5d9-e11da465e228,
            .b33fdb05-5e87-4126-b7cb-56fee4def5b6 {
                stroke-width: 0.75px;
            }

            .baca0cec-0e6c-4a8c-995e-ba9b7a9f9f6b,
            .e2b6b1ac-a7c2-4377-b59b-e0335589d347 {
                fill: #fff;
            }

            .a947561e-ee8c-4ff2-a5d9-e11da465e228,
            .a96fb2b2-15bb-4663-bee4-8ab44f19a2fb,
            .b5b899f4-7897-4ec8-9d5f-0d7af724478f,
            .b9a94712-c995-45ef-b4e8-49fd5bcc9277,
            .e2b6b1ac-a7c2-4377-b59b-e0335589d347 {
                stroke: #fff;
            }

            .e2b6b1ac-a7c2-4377-b59b-e0335589d347 {
                stroke-width: 0.25px;
            }

            .b5b899f4-7897-4ec8-9d5f-0d7af724478f {
                stroke-width: 2px;
            }

            .a27bd349-bac4-4f26-afb7-36084af57b5f,
            .b9a94712-c995-45ef-b4e8-49fd5bcc9277,
            .e8b104e4-1e83-42b6-a181-848f8ce49f00 {
                stroke-width: 0.5px;
            }

            .f83a8298-57fa-4ac9-ba55-8fae4dd26e05 {
                fill: #ff592e;
            }

            .b7afc74c-52d7-4cef-8600-2b8efdb543f2 {
                fill: #00c5d4;
            }
        </style>
    </defs>
    <circle class="e2b4b10e-1839-41b0-baa9-ef97da020e50" cx="176.22" cy="216.22" r="4.6" />
    <circle class="b33fdb05-5e87-4126-b7cb-56fee4def5b6" cx="176.22" cy="216.22" r="6.6" />
    <path class="baca0cec-0e6c-4a8c-995e-ba9b7a9f9f6b"
        d="M63,178.17H76.93v67.46l-45.72,0-2.4,0m.81,0-14.94,0V178.17H65.31m-18.07,4.94a.79.79,0,0,0-.78.8.77.77,0,0,0,.78.8.8.8,0,0,0,.79-.8A.81.81,0,0,0,47.24,183.11Zm6.55,56.79a.8.8,0,0,0-.78-.8.8.8,0,0,0,0,1.59A.79.79,0,0,0,53.79,239.9Zm-3.66-56.79a.79.79,0,0,0-.79.8.77.77,0,0,0,.77.8.79.79,0,0,0,.8-.79A.81.81,0,0,0,50.13,183.11Zm.78,56.78a.81.81,0,0,0-.8-.79.77.77,0,0,0-.77.8.77.77,0,0,0,.79.79A.79.79,0,0,0,50.91,239.89ZM22.13,199.44a.77.77,0,0,0-.78-.8.81.81,0,0,0-.81.78.85.85,0,0,0,.79.82A.82.82,0,0,0,22.13,199.44Zm31.66-15.52a.82.82,0,0,0-.78-.81.79.79,0,0,0-.79.8.77.77,0,0,0,.77.8A.79.79,0,0,0,53.79,183.92ZM22.13,224.39a.79.79,0,0,0-.78-.81.84.84,0,0,0-.81.79.82.82,0,0,0,.79.8A.77.77,0,0,0,22.13,224.39ZM48,239.91a.77.77,0,0,0-.79-.8.73.73,0,0,0-.78.74.77.77,0,0,0,.75.84A.8.8,0,0,0,48,239.91Zm21.46-40.52a.79.79,0,0,0,.74.85.84.84,0,0,0,.83-.77.82.82,0,0,0-.76-.84A.76.76,0,0,0,69.49,199.39ZM44.33,239.11a.79.79,0,1,0,.82.77A.78.78,0,0,0,44.33,239.11Zm-2.84,1.59a.78.78,0,0,0,.77-.8.75.75,0,0,0-.78-.79.77.77,0,0,0-.78.79A.8.8,0,0,0,41.49,240.7ZM39.38,240c0-.59-.31-.94-.76-.93a.75.75,0,0,0-.8.73.78.78,0,0,0,.81.85A.71.71,0,0,0,39.38,240Zm-.75-55.33a.77.77,0,0,0,.76-.82.8.8,0,0,0-.82-.77.8.8,0,0,0,.06,1.59Zm31.65,40.47a.84.84,0,0,0,.79-.82.86.86,0,0,0-.82-.79.81.81,0,0,0,0,1.61ZM45.15,183.92a.79.79,0,1,0-1.57,0,.79.79,0,1,0,1.57,0Zm-2.88,0a.79.79,0,1,0-1.57.07.79.79,0,1,0,1.57-.07Zm28,37.87a.82.82,0,0,0,.82-.78.81.81,0,0,0-.79-.8.75.75,0,0,0-.8.77A.77.77,0,0,0,70.25,221.75ZM40.83,186.23a.79.79,0,0,0-1.57,0,.84.84,0,0,0,.79.83A.83.83,0,0,0,40.83,186.23ZM22.12,202.89a.79.79,0,1,0-1.57,0,.74.74,0,0,0,.74.78A.74.74,0,0,0,22.12,202.89Zm0,18.08a.75.75,0,0,0-.78-.79.77.77,0,0,0-.81.76.81.81,0,0,0,.79.81A.79.79,0,0,0,22.13,221Zm48.93-18.1a.81.81,0,0,0-.8-.81.76.76,0,0,0-.77.81.72.72,0,0,0,.75.77A.77.77,0,0,0,71.06,202.87ZM48.7,185.47a.75.75,0,0,0-.81.77.81.81,0,0,0,.8.8.77.77,0,0,0,.77-.76A.74.74,0,0,0,48.7,185.47Zm2.07.7a.86.86,0,0,0,.8.88.84.84,0,0,0,.77-.83.74.74,0,0,0-.82-.75A.73.73,0,0,0,50.77,186.17ZM40.16,238.34a.7.7,0,0,0,.67-.75.79.79,0,1,0-1.57,0A.78.78,0,0,0,40.16,238.34Zm2.66,0c.57,0,.9-.31.89-.77a.78.78,0,1,0-1.56,0A.7.7,0,0,0,42.82,238.34Zm9.52-.74a.79.79,0,1,0-1.57,0,.72.72,0,0,0,.74.78A.74.74,0,0,0,52.34,237.6Zm-2.88,0a.83.83,0,0,0-.78-.82.82.82,0,0,0-.79.82.72.72,0,0,0,.76.76A.74.74,0,0,0,49.46,237.58Zm-6.64-52.11a.69.69,0,0,0-.67.74.82.82,0,0,0,.76.84.85.85,0,0,0,.81-.81C43.72,185.79,43.4,185.47,42.82,185.47Zm2.2.71a.87.87,0,0,0,.8.87.85.85,0,0,0,.76-.84.74.74,0,0,0-.82-.74A.72.72,0,0,0,45,186.18Zm1.56,51.41a.84.84,0,0,0-.76-.83.81.81,0,0,0-.79.81.71.71,0,0,0,.73.77A.75.75,0,0,0,46.58,237.59Z"
        transform="translate(0 -48.83)" />
    <path
        d="M19.62,192.3V189a1,1,0,0,1,.27-.67L25,183.12a1,1,0,0,1,.68-.28h9.43a.94.94,0,0,1,.81.46l2.46,4.15a.94.94,0,0,0,.81.47L52,188a1,1,0,0,0,.81-.45l2.63-4.22a.92.92,0,0,1,.8-.44h8.46a.93.93,0,0,1,.64.25l5.39,5a1,1,0,0,1,.3.69v7.24a1.91,1.91,0,0,1-1,1.71h0a1.94,1.94,0,0,0-1,1.71v3.66a.93.93,0,0,0,.4.77l1.32.93a.93.93,0,0,1,.39.78l0,11.89a1,1,0,0,1-.27.65l-1.63,1.72a1,1,0,0,0-.27.67l.06,4.48a1,1,0,0,0,.32.69l1.46,1.3a.93.93,0,0,1,.32.71v7.4a1,1,0,0,1-.3.69l-4.82,4.48a1,1,0,0,1-.64.25H55.76a.93.93,0,0,1-.86-.55l-1.63-3.54a1,1,0,0,0-.85-.55l-13-.07a.9.9,0,0,0-.83.49l-2.06,3.73a.92.92,0,0,1-.83.49H25.87a.92.92,0,0,1-.65-.26l-5.31-5.14a.94.94,0,0,1-.29-.68v-7a1,1,0,0,1,.58-.88l1.88-.78a1,1,0,0,0,.58-.87l0-4.25a.94.94,0,0,0-.54-.85l-2-.94a1,1,0,0,1-.54-.86V205.93a.94.94,0,0,1,.51-.83l2.26-1.2a1,1,0,0,0,.5-.82l.06-4a1,1,0,0,0-.4-.79L20,196.57a1,1,0,0,1-.4-.78Z"
        transform="translate(0 -48.83)" />
    <path d="M18.33,237v4.53a.47.47,0,0,0,.47.47h4.87a.47.47,0,0,0,.32-.81l-4.87-4.53A.47.47,0,0,0,18.33,237Z"
        transform="translate(0 -48.83)" />
    <path d="M18.43,186.18v-4.53a.47.47,0,0,1,.47-.47h4.86a.47.47,0,0,1,.32.81l-4.86,4.53A.47.47,0,0,1,18.43,186.18Z"
        transform="translate(0 -48.83)" />
    <path d="M72.39,186.17v-4.53a.47.47,0,0,0-.47-.47H67.06a.47.47,0,0,0-.32.82l4.86,4.53A.47.47,0,0,0,72.39,186.17Z"
        transform="translate(0 -48.83)" />
    <path d="M72.39,237v4.53a.47.47,0,0,1-.47.47H67.06a.47.47,0,0,1-.32-.81l4.86-4.53A.47.47,0,0,1,72.39,237Z"
        transform="translate(0 -48.83)" />
    <path d="M28.16,245.69l.77-1.75a.22.22,0,0,1,.37,0l.84,1.76Z" transform="translate(0 -48.83)" />
    <path d="M59.22,178.17l.77,1.74a.22.22,0,0,0,.37,0l.84-1.76Z" transform="translate(0 -48.83)" />
    <path class="baca0cec-0e6c-4a8c-995e-ba9b7a9f9f6b"
        d="M84.6,211.32c0,.58-.42.71-.94.7-2,0-3.93,0-5.94,0v-2.57h.67c1.74,0,3.48,0,5.22,0,.53,0,.94.09,1,.72h16a.86.86,0,0,0,.77-.34,1.36,1.36,0,0,1,2-.07,1.39,1.39,0,0,1,0,1.94,1.42,1.42,0,0,1-2-.06,1,1,0,0,0-.59-.33c-5.31,0-10.62,0-15.93,0Z"
        transform="translate(0 -48.83)" />
    <path class="baca0cec-0e6c-4a8c-995e-ba9b7a9f9f6b"
        d="M84.6,218.12c0,.64-.46.72-1,.72H78.4c-.23,0-.45,0-.73-.05,0-.76,0-1.49,0-2.22a.46.46,0,0,1,.34-.31c2,0,3.94,0,5.9,0,.46,0,.61.31.68.72l.5,0h10a1.13,1.13,0,0,0,.7-.31,1.37,1.37,0,1,1,2,1.81,1.31,1.31,0,0,1-2,0,1.09,1.09,0,0,0-.92-.39l-10,0Z"
        transform="translate(0 -48.83)" />
    <path class="baca0cec-0e6c-4a8c-995e-ba9b7a9f9f6b"
        d="M84.6,203.36h4.12c2.13,0,4.27,0,6.41,0a.83.83,0,0,0,.76-.34,1.31,1.31,0,0,1,2-.07,1.37,1.37,0,1,1-2,1.84.94.94,0,0,0-.59-.3q-5.19,0-10.38,0l-.26,0c0,.65-.48.74-1,.73-1.8,0-3.59,0-5.39,0-.39,0-.54-.11-.52-.51,0-.68,0-1.36,0-2.1h2.42c1.18,0,2.35,0,3.52,0C84.15,202.61,84.56,202.7,84.6,203.36Z"
        transform="translate(0 -48.83)" />
    <path class="baca0cec-0e6c-4a8c-995e-ba9b7a9f9f6b"
        d="M77.69,232.41v-2.53a4.87,4.87,0,0,1,.51,0h5.44c.52,0,.89.14,1,.74l.46,0c3.37,0,6.73,0,10.09,0a1.18,1.18,0,0,0,.71-.31,1.34,1.34,0,0,1,2-.12,1.36,1.36,0,1,1-2,1.89,1,1,0,0,0-.54-.31H84.62c-.08.64-.49.74-1.05.73-1.77,0-3.55,0-5.33,0Z"
        transform="translate(0 -48.83)" />
    <path class="baca0cec-0e6c-4a8c-995e-ba9b7a9f9f6b"
        d="M84.6,224.9c-.06.63-.43.76-.95.75-1.78,0-3.56,0-5.33,0h-.61v-2.55a3.49,3.49,0,0,1,.44-.05c1.84,0,3.67,0,5.5,0,.52,0,.9.13.95.76,1.77,0,3.52,0,5.28,0,.17,0,.36-.22.51-.37a1.39,1.39,0,0,1,1.81-.15,1.37,1.37,0,0,1,.4,1.72,1.35,1.35,0,0,1-1.64.66.89.89,0,0,1-.47-.28c-.3-.47-.72-.46-1.18-.45Z"
        transform="translate(0 -48.83)" />
    <path class="baca0cec-0e6c-4a8c-995e-ba9b7a9f9f6b"
        d="M84.67,196.56c1.7,0,3.4,0,5.1,0a.85.85,0,0,0,.55-.29,1.37,1.37,0,1,1,2,1.82,1.4,1.4,0,0,1-2.06-.1.75.75,0,0,0-.49-.28c-1.71,0-3.43,0-5.21,0,0,.7-.48.75-1,.75H78.26l-.55,0V195.9a.41.41,0,0,1,.17-.07c2,0,4.08,0,6.12,0,.24,0,.47.36.71.55Z"
        transform="translate(0 -48.83)" />
    <path class="baca0cec-0e6c-4a8c-995e-ba9b7a9f9f6b"
        d="M7.11,212.88c0,.58.41.7.94.7,2,0,3.93,0,5.94,0V211h-.67c-1.74,0-3.48,0-5.22,0-.53,0-.94.09-1,.72"
        transform="translate(0 -48.83)" />
    <path class="baca0cec-0e6c-4a8c-995e-ba9b7a9f9f6b"
        d="M7.11,219.67c0,.64.46.73,1,.72h5.22c.22,0,.45,0,.73,0,0-.77,0-1.5,0-2.23,0-.11-.22-.31-.34-.31-2,0-3.93,0-5.89,0-.46,0-.61.3-.68.72"
        transform="translate(0 -48.83)" />
    <path class="baca0cec-0e6c-4a8c-995e-ba9b7a9f9f6b"
        d="M7.11,206.05c0,.66.48.74,1,.74,1.79,0,3.59,0,5.39,0,.38,0,.54-.11.52-.51,0-.68,0-1.35,0-2.1H11.61c-1.17,0-2.34,0-3.51,0-.54,0-.95.09-1,.74"
        transform="translate(0 -48.83)" />
    <path class="baca0cec-0e6c-4a8c-995e-ba9b7a9f9f6b"
        d="M7.09,233.28c.08.63.49.73,1,.72,1.78,0,3.56,0,5.33,0l.56,0v-2.54a4.87,4.87,0,0,0-.51-.05H8.07c-.53,0-.9.14-1,.74"
        transform="translate(0 -48.83)" />
    <path class="baca0cec-0e6c-4a8c-995e-ba9b7a9f9f6b"
        d="M7.11,192.45c0,.65.51.75,1.08.74h5.16l.69,0c0-.79,0-1.54,0-2.29,0-.1-.24-.28-.36-.28-2,0-3.94,0-5.9,0-.26,0-.73.64-.7.69"
        transform="translate(0 -48.83)" />
    <path class="baca0cec-0e6c-4a8c-995e-ba9b7a9f9f6b"
        d="M7.11,226.46c.06.63.43.75,1,.75,1.78,0,3.56,0,5.33,0H14v-2.55a3.71,3.71,0,0,0-.45-.06H8.06c-.53,0-.9.12-1,.75"
        transform="translate(0 -48.83)" />
    <path class="baca0cec-0e6c-4a8c-995e-ba9b7a9f9f6b"
        d="M7.11,199.23c0,.69.48.75,1,.74h5.32c.17,0,.34,0,.55,0v-2.48a.7.7,0,0,0-.17-.06c-2,0-4.08,0-6.12,0-.24,0-.69.66-.67.71"
        transform="translate(0 -48.83)" />
    <path class="baca0cec-0e6c-4a8c-995e-ba9b7a9f9f6b"
        d="M45.61,253.7c.58,0,.71-.42.7-.94,0-2,0-3.93,0-5.95H43.73v.68c0,1.74,0,3.48,0,5.22,0,.53.09.93.73,1v16a.87.87,0,0,1-.33.77,1.35,1.35,0,0,0-.07,2,1.39,1.39,0,0,0,1.94,0,1.41,1.41,0,0,0-.07-2,1,1,0,0,1-.32-.59c0-5.31,0-10.62,0-15.93A2.5,2.5,0,0,1,45.61,253.7Z"
        transform="translate(0 -48.83)" />
    <path class="baca0cec-0e6c-4a8c-995e-ba9b7a9f9f6b"
        d="M52.4,253.7c.64,0,.73-.46.73-1,0-1.74,0-3.48,0-5.21,0-.23,0-.45,0-.73-.76,0-1.5,0-2.23,0a.48.48,0,0,0-.31.34c0,2,0,3.93,0,5.9,0,.46.3.61.72.68,0,.17,0,.34,0,.5,0,3.35,0,6.69,0,10a1.07,1.07,0,0,1-.31.7A1.37,1.37,0,1,0,52.76,267a1.31,1.31,0,0,0,0-2,1.06,1.06,0,0,1-.39-.92c0-3.35,0-6.69,0-10C52.39,254,52.4,253.85,52.4,253.7Z"
        transform="translate(0 -48.83)" />
    <path class="baca0cec-0e6c-4a8c-995e-ba9b7a9f9f6b"
        d="M37.64,253.7v4.12c0,2.13,0,4.27,0,6.4a.89.89,0,0,1-.34.77,1.31,1.31,0,0,0-.07,2,1.37,1.37,0,1,0,1.84-2,1,1,0,0,1-.31-.59q0-5.19,0-10.38c0-.07,0-.15,0-.26.65,0,.74-.48.73-1,0-1.8,0-3.59,0-5.39,0-.39-.11-.54-.52-.52-.67,0-1.35,0-2.1,0v2.42c0,1.18,0,2.35,0,3.52C36.9,253.24,37,253.66,37.64,253.7Z"
        transform="translate(0 -48.83)" />
    <path class="baca0cec-0e6c-4a8c-995e-ba9b7a9f9f6b"
        d="M66.7,246.79H64.16c0,.18,0,.34,0,.51,0,1.81,0,3.63,0,5.44,0,.52.14.89.74.95,0,.16,0,.31,0,.46,0,3.36,0,6.73,0,10.09a1.15,1.15,0,0,1-.31.71,1.34,1.34,0,0,0-.11,2,1.36,1.36,0,1,0,1.89-2,.89.89,0,0,1-.31-.54c0-3.55,0-7.1,0-10.7.63-.08.73-.49.73-1.05,0-1.77,0-3.55,0-5.33C66.73,247.18,66.71,247,66.7,246.79Z"
        transform="translate(0 -48.83)" />
    <path class="baca0cec-0e6c-4a8c-995e-ba9b7a9f9f6b"
        d="M24,253.75v2.66c0,2.61,0,5.22,0,7.83a1.12,1.12,0,0,1-.31.71,1.4,1.4,0,0,0-.13,1.94,1.38,1.38,0,0,0,2,.07,1.27,1.27,0,0,0,0-1.91,1.16,1.16,0,0,1-.39-1c0-3.4,0-6.81,0-10.21a.8.8,0,0,1,0-.16c.65-.06.74-.51.74-1.08,0-1.72,0-3.44,0-5.16,0-.21,0-.41,0-.69-.79,0-1.54,0-2.29,0-.1,0-.28.23-.28.36,0,2,0,3.93,0,5.9,0,.26.35.51.54.77Z"
        transform="translate(0 -48.83)" />
    <path class="baca0cec-0e6c-4a8c-995e-ba9b7a9f9f6b"
        d="M59.19,253.69c.63-.05.76-.42.75-.95,0-1.77,0-3.55,0-5.33v-.6H57.38a3.49,3.49,0,0,0-.05.44c0,1.84,0,3.67,0,5.5,0,.52.13.9.75.94,0,1.78,0,3.53,0,5.29,0,.17-.23.35-.37.51a1.37,1.37,0,0,0,1.57,2.21,1.35,1.35,0,0,0,.66-1.64.93.93,0,0,0-.29-.48c-.46-.29-.45-.71-.45-1.17C59.2,256.86,59.19,255.31,59.19,253.69Z"
        transform="translate(0 -48.83)" />
    <path class="baca0cec-0e6c-4a8c-995e-ba9b7a9f9f6b"
        d="M30.84,253.77c0,1.7,0,3.4,0,5.1a.9.9,0,0,1-.29.55,1.36,1.36,0,1,0,1.81,2,1.38,1.38,0,0,0-.1-2.06.8.8,0,0,1-.28-.49c0-1.72,0-3.43,0-5.22.69,0,.75-.48.75-1,0-1.77,0-3.55,0-5.33,0-.16,0-.33,0-.54H30.19a.43.43,0,0,0-.07.16c0,2,0,4.08,0,6.12,0,.25.36.48.56.72Z"
        transform="translate(0 -48.83)" />
    <path class="baca0cec-0e6c-4a8c-995e-ba9b7a9f9f6b"
        d="M45,170.16c.58.05.7.41.7.94,0,2,0,3.93,0,5.94H43.08v-.67c0-1.74,0-3.48,0-5.22,0-.54.09-.94.73-1v-3.94c0-4,0-8.05,0-12.08a.86.86,0,0,0-.34-.77,1.35,1.35,0,0,1-.06-2,1.38,1.38,0,0,1,1.94,0,1.42,1.42,0,0,1-.07,2A.92.92,0,0,0,45,154q0,8,0,15.93C44.93,170,45,170.05,45,170.16Z"
        transform="translate(0 -48.83)" />
    <path class="baca0cec-0e6c-4a8c-995e-ba9b7a9f9f6b"
        d="M51.75,170.16c.64,0,.73.45.72,1,0,1.74,0,3.48,0,5.22,0,.22,0,.45,0,.73-.77,0-1.5,0-2.23,0-.11,0-.31-.22-.31-.34,0-2,0-3.93,0-5.89,0-.46.3-.62.72-.69,0-.17,0-.33,0-.5,0-3.34,0-6.69,0-10a1.08,1.08,0,0,0-.31-.7,1.37,1.37,0,1,1,1.82-2,1.31,1.31,0,0,1,0,2,1.06,1.06,0,0,0-.4.92c0,3.34,0,6.69,0,10C51.73,169.89,51.74,170,51.75,170.16Z"
        transform="translate(0 -48.83)" />
    <path class="baca0cec-0e6c-4a8c-995e-ba9b7a9f9f6b"
        d="M37,170.16V166c0-2.14,0-4.27,0-6.41a.87.87,0,0,0-.35-.77,1.31,1.31,0,0,1-.06-2,1.37,1.37,0,1,1,1.84,2,.9.9,0,0,0-.31.59c0,3.46,0,6.92,0,10.38,0,.08,0,.15,0,.26.66,0,.74.48.74,1,0,1.79,0,3.59,0,5.38,0,.39-.11.54-.51.53-.67,0-1.35,0-2.1,0v-2.43c0-1.17,0-2.34,0-3.52C36.24,170.61,36.34,170.2,37,170.16Z"
        transform="translate(0 -48.83)" />
    <path class="baca0cec-0e6c-4a8c-995e-ba9b7a9f9f6b"
        d="M66.05,177.06H63.51a4.7,4.7,0,0,1,0-.5c0-1.82,0-3.63,0-5.45,0-.52.14-.89.74-1,0-.16,0-.31,0-.46,0-3.36,0-6.72,0-10.09a1.1,1.1,0,0,0-.31-.7,1.36,1.36,0,1,1,1.77,0,1,1,0,0,0-.3.55c0,3.55,0,7.1,0,10.7.63.07.73.48.72,1,0,1.78,0,3.55,0,5.33C66.07,176.68,66.06,176.84,66.05,177.06Z"
        transform="translate(0 -48.83)" />
    <path class="baca0cec-0e6c-4a8c-995e-ba9b7a9f9f6b"
        d="M23.37,170.1v-2.66c0-2.61,0-5.22,0-7.83a1.2,1.2,0,0,0-.31-.71,1.36,1.36,0,1,1,1.85-2,1.27,1.27,0,0,1,0,1.9,1.17,1.17,0,0,0-.39,1c0,3.4,0,6.81,0,10.21,0,0,0,.08,0,.16.65.06.75.51.74,1.08,0,1.72,0,3.44,0,5.17,0,.2,0,.4,0,.68-.79,0-1.54,0-2.29,0a.5.5,0,0,1-.28-.37c0-2,0-3.93,0-5.9,0-.26.36-.51.55-.77Z"
        transform="translate(0 -48.83)" />
    <path class="baca0cec-0e6c-4a8c-995e-ba9b7a9f9f6b"
        d="M30.19,170.08c0-1.7,0-3.4,0-5.1a1,1,0,0,0-.29-.55,1.36,1.36,0,1,1,1.81-2,1.38,1.38,0,0,1-.1,2.06.85.85,0,0,0-.28.49c0,1.72,0,3.44,0,5.22.69,0,.75.48.74,1v5.33c0,.17,0,.33,0,.54H29.53c0-.06-.06-.11-.06-.16,0-2,0-4.08,0-6.12,0-.24.36-.48.55-.71Z"
        transform="translate(0 -48.83)" />
    <path class="baca0cec-0e6c-4a8c-995e-ba9b7a9f9f6b"
        d="M24.14,234.07,28,237.32a.86.86,0,0,0,.57.21l5.6-.07a.89.89,0,0,0,.8-.53l1.46-3.31a.86.86,0,0,1,.8-.52H54.51a.86.86,0,0,1,.75.43l2,3.37a.88.88,0,0,0,.75.42l5.43,0a.9.9,0,0,0,.54-.18L68.12,234l-3.61,3.93a.89.89,0,0,1-.63.29l-6.63.13a.88.88,0,0,1-.75-.4l-2-3.07a.89.89,0,0,0-.73-.39l-15.31-.06a.88.88,0,0,0-.73.38L35.55,238a.89.89,0,0,1-.73.39H28.27a.87.87,0,0,1-.66-.3Z"
        transform="translate(0 -48.83)" />
    <path class="baca0cec-0e6c-4a8c-995e-ba9b7a9f9f6b"
        d="M23.72,189.74l3.84-3.22a1,1,0,0,1,.67-.24l5.46.07a1,1,0,0,1,.92.61L36,190.1a1,1,0,0,0,.94.61H54a1,1,0,0,0,.88-.5L56.81,187a1.07,1.07,0,0,1,.88-.5H63a1,1,0,0,1,.63.21l4.09,3.15-3.56-3.89a1.08,1.08,0,0,0-.74-.33l-6.48-.13a1,1,0,0,0-.87.46l-1.95,2.94a1,1,0,0,1-.85.46l-15.16.06a1,1,0,0,1-.85-.45l-2.06-3a1,1,0,0,0-.85-.45H27.92a1,1,0,0,0-.77.35Z"
        transform="translate(0 -48.83)" />
    <rect class="baca0cec-0e6c-4a8c-995e-ba9b7a9f9f6b" x="28.81" y="145.9" width="33.72" height="34.03" rx="3.12" />
    <rect class="e2b6b1ac-a7c2-4377-b59b-e0335589d347" x="22.57" y="140.1" width="70.81" height="3.19"
        transform="translate(-83.71 150.84) rotate(-90)" />
    <rect class="baca0cec-0e6c-4a8c-995e-ba9b7a9f9f6b" x="-16.29" y="135.29" width="80.49" height="3.12" rx="1.56"
        transform="translate(-112.9 111.97) rotate(-90)" />
    <rect class="baca0cec-0e6c-4a8c-995e-ba9b7a9f9f6b" x="13.06" y="80.45" width="40.46" height="3.12" rx="1.56"
        transform="translate(-54.38 21) rotate(-60)" />
    <circle class="b5b899f4-7897-4ec8-9d5f-0d7af724478f" cx="47.11" cy="9.24" r="8.24" />
    <rect class="baca0cec-0e6c-4a8c-995e-ba9b7a9f9f6b" x="-32.09" y="294.73" width="103.8" height="3.12" rx="1.56"
        transform="translate(316.1 227.65) rotate(90)" />
    <rect class="baca0cec-0e6c-4a8c-995e-ba9b7a9f9f6b" x="77.66" y="140.49" width="50.11" height="1.56" />
    <circle class="b5b899f4-7897-4ec8-9d5f-0d7af724478f" cx="133.04" cy="141.49" r="6" />
    <rect class="baca0cec-0e6c-4a8c-995e-ba9b7a9f9f6b" x="76.05" y="173.95" width="101.64" height="3.12" />
    <circle class="b5b899f4-7897-4ec8-9d5f-0d7af724478f" cx="183.68" cy="175.54" r="6" />
    <rect class="baca0cec-0e6c-4a8c-995e-ba9b7a9f9f6b" x="91.63" y="104.49" width="4.63" height="37.25" />
    <circle class="b5b899f4-7897-4ec8-9d5f-0d7af724478f" cx="93.95" cy="98.42" r="6" />
    <polygon class="baca0cec-0e6c-4a8c-995e-ba9b7a9f9f6b"
        points="96.27 141.74 108.98 150.33 118.52 150.33 132.01 156.93 143.41 163.25 147.21 163.25 118.47 148.75 109.26 148.75 100.04 141.74 96.27 141.74" />
    <circle class="e2b4b10e-1839-41b0-baa9-ef97da020e50" cx="177.71" cy="86.04" r="6.78" />
    <circle class="a96fb2b2-15bb-4663-bee4-8ab44f19a2fb" cx="177.71" cy="86.04" r="9.72" />
    <rect class="baca0cec-0e6c-4a8c-995e-ba9b7a9f9f6b" x="-32.35" y="321.58" width="155" height="3.12"
        transform="translate(-277.99 319.46) rotate(-90)" />
    <circle class="b5b899f4-7897-4ec8-9d5f-0d7af724478f" cx="87.97" cy="217.21" r="6" />
    <rect class="baca0cec-0e6c-4a8c-995e-ba9b7a9f9f6b" x="93.95" y="215.39" width="81.9" height="1.82" />
    <polyline class="b9a94712-c995-45ef-b4e8-49fd5bcc9277"
        points="79.59 194.11 82.57 194.11 94.83 203.65 100.17 203.65 109.57 203.65 116.99 203.65 123.63 203.65 134.64 203.65 150.07 215.39" />
    <polyline class="b9a94712-c995-45ef-b4e8-49fd5bcc9277"
        points="79.59 190.3 84.22 190.3 95.27 199.83 111.55 199.83 126.15 199.83 137.68 199.83 147.99 199.83 165.09 199.83 174.31 205.5 183.68 205.49" />
    <polyline class="b9a94712-c995-45ef-b4e8-49fd5bcc9277"
        points="79.59 186.82 84.53 186.82 96.31 196.36 113.66 196.36 129.23 196.36 141.51 196.36 152.5 196.36 203.98 196.36" />
    <polyline class="b9a94712-c995-45ef-b4e8-49fd5bcc9277"
        points="130.33 216.21 131.29 216.21 133.58 221.7 136.94 221.7 139.97 221.7 142.35 221.7 144.48 221.7 148.02 221.7" />
    <rect class="f83a8298-57fa-4ac9-ba55-8fae4dd26e05" x="146.78" y="270.29" width="2.96" height="0.48"
        transform="translate(-122.27 369.96) rotate(-90)" />
    <polyline class="b9a94712-c995-45ef-b4e8-49fd5bcc9277"
        points="168.2 216.21 167.19 216.21 164.77 221.7 161.2 221.7 158 221.7 155.47 221.7 153.21 221.7 149.47 221.7" />
    <rect class="f83a8298-57fa-4ac9-ba55-8fae4dd26e05" x="147.79" y="270.33" width="2.96" height="0.4"
        transform="translate(-121.27 370.96) rotate(-90)" />
    <circle class="b5b899f4-7897-4ec8-9d5f-0d7af724478f" cx="45.01" cy="357.24" r="6" />
    <circle class="baca0cec-0e6c-4a8c-995e-ba9b7a9f9f6b" cx="184.95" cy="205.49" r="2.11" />
    <polyline class="b9a94712-c995-45ef-b4e8-49fd5bcc9277"
        points="107.2 196.36 121.64 185.4 151.36 185.4 160.53 175.51" />
    <polyline class="b9a94712-c995-45ef-b4e8-49fd5bcc9277"
        points="45.71 233.92 58.48 233.92 69.92 233.92 88.87 233.92 115.43 251.6" />
    <polyline class="b9a94712-c995-45ef-b4e8-49fd5bcc9277"
        points="46.58 267.32 57.23 267.32 65.63 267.32 73.15 267.32 108.37 267.32" />
    <polyline class="b9a94712-c995-45ef-b4e8-49fd5bcc9277" points="44.41 258.02 58.85 247.06 88.58 247.06" />
    <circle class="b7afc74c-52d7-4cef-8600-2b8efdb543f2" cx="89.95" cy="247.19" r="1.54" />
    <ellipse class="baca0cec-0e6c-4a8c-995e-ba9b7a9f9f6b" cx="140.25" cy="238.35" rx="1.54" ry="1.58" />
    <circle class="baca0cec-0e6c-4a8c-995e-ba9b7a9f9f6b" cx="115.43" cy="251.6" r="1.54" />
    <polyline class="b9a94712-c995-45ef-b4e8-49fd5bcc9277" points="20.42 233.57 31.41 247.99 31.47 277.72" />
    <circle class="f83a8298-57fa-4ac9-ba55-8fae4dd26e05" cx="31.34" cy="279.09" r="1.54" />
    <polyline class="b9a94712-c995-45ef-b4e8-49fd5bcc9277" points="46.13 286.21 35.14 300.63 35.09 330.36" />
    <circle class="b7afc74c-52d7-4cef-8600-2b8efdb543f2" cx="35.22" cy="331.73" r="1.54" />
    <polyline class="b9a94712-c995-45ef-b4e8-49fd5bcc9277" points="71.07 128.21 71.32 98.48 90.74 72.67" />
    <circle class="baca0cec-0e6c-4a8c-995e-ba9b7a9f9f6b" cx="91.1" cy="71.9" r="2.11" />
    <polyline class="b9a94712-c995-45ef-b4e8-49fd5bcc9277" points="75.19 128.21 75.19 123.01 91.64 123.01" />
    <polyline class="b9a94712-c995-45ef-b4e8-49fd5bcc9277"
        points="93.95 92.49 93.95 84.23 107.5 76.53 109.8 64.1 130.3 51.32" />
    <path class="b9a94712-c995-45ef-b4e8-49fd5bcc9277" d="M128.74,169.46" transform="translate(0 -48.83)" />
    <ellipse class="b5b899f4-7897-4ec8-9d5f-0d7af724478f" cx="19.81" cy="351.46" rx="4.28" ry="4.26"
        transform="matrix(1, -0.07, 0.07, 1, -25.93, -46.41)" />
    <line class="a96fb2b2-15bb-4663-bee4-8ab44f19a2fb" y1="143.05" x2="8.92" y2="143.05" />
    <line class="a96fb2b2-15bb-4663-bee4-8ab44f19a2fb" y1="150" x2="8.49" y2="150" />
    <line class="a96fb2b2-15bb-4663-bee4-8ab44f19a2fb" y1="156.65" x2="12.12" y2="156.65" />
    <line class="a96fb2b2-15bb-4663-bee4-8ab44f19a2fb" y1="163.45" x2="12.12" y2="163.45" />
    <line class="a96fb2b2-15bb-4663-bee4-8ab44f19a2fb" y1="170.26" x2="12.12" y2="170.26" />
    <line class="a96fb2b2-15bb-4663-bee4-8ab44f19a2fb" y1="177.06" x2="12.12" y2="177.06" />
    <line class="a96fb2b2-15bb-4663-bee4-8ab44f19a2fb" y1="183.87" x2="12.12" y2="183.87" />
    <circle class="b7afc74c-52d7-4cef-8600-2b8efdb543f2" cx="129.13" cy="51.78" r="2.85" />
    <circle class="f83a8298-57fa-4ac9-ba55-8fae4dd26e05" cx="176.22" cy="216.22" r="2.11" />
    <polyline class="b9a94712-c995-45ef-b4e8-49fd5bcc9277"
        points="73.86 59.01 90.47 59.01 101.22 59.01 119.58 45.38 121.9 38.26" />
    <circle class="f83a8298-57fa-4ac9-ba55-8fae4dd26e05" cx="123.49" cy="32.95" r="3.85" />
    <circle class="a947561e-ee8c-4ff2-a5d9-e11da465e228" cx="123.49" cy="32.95" r="5.52" />
    <rect class="baca0cec-0e6c-4a8c-995e-ba9b7a9f9f6b" x="104.76" y="98.64" width="15.11" height="1.85" rx="0.6"
        transform="translate(-37.16 37.09) rotate(-36.34)" />
    <polyline class="b9a94712-c995-45ef-b4e8-49fd5bcc9277" points="57.95 82.82 65.41 74.74 66.05 65.93 74.03 58.94" />
    <rect class="b9a94712-c995-45ef-b4e8-49fd5bcc9277" x="133.86" y="63.14" width="20.12" height="18.92" rx="1.38" />
    <rect class="a27bd349-bac4-4f26-afb7-36084af57b5f" x="137.15" y="66.23" width="13.54" height="12.73" rx="1.26" />
    <polyline class="a96fb2b2-15bb-4663-bee4-8ab44f19a2fb"
        points="107.99 140.92 126.34 126.16 136.33 103.1 163.75 102.82 171.73 93.83" />
    <polyline class="b9a94712-c995-45ef-b4e8-49fd5bcc9277"
        points="95.42 116.85 108.74 105.37 108.74 90.38 120.26 69.29 133.86 69.29" />
    <polyline class="b9a94712-c995-45ef-b4e8-49fd5bcc9277"
        points="95.78 121.58 112.77 107.48 112.61 90.48 121.84 72.67 133.86 72.67" />
    <polyline class="b9a94712-c995-45ef-b4e8-49fd5bcc9277"
        points="95.78 126.16 116.48 110.18 116.48 91.75 125.15 76.32 133.86 76.32" />
    <circle class="e2b4b10e-1839-41b0-baa9-ef97da020e50" cx="58.37" cy="46.78" r="10.68" />
    <rect class="baca0cec-0e6c-4a8c-995e-ba9b7a9f9f6b" x="75.73" y="160.33" width="84.8" height="3.12" rx="1.56" />
    <rect class="baca0cec-0e6c-4a8c-995e-ba9b7a9f9f6b" x="180.6" y="122.25" width="12.11" height="2.18" rx="1.09" />
    <rect class="baca0cec-0e6c-4a8c-995e-ba9b7a9f9f6b" x="180.6" y="126.79" width="12.11" height="2.18" rx="1.09" />
    <polyline class="b9a94712-c995-45ef-b4e8-49fd5bcc9277"
        points="133.86 135.08 144.15 123.79 144.46 111.36 152.49 111.36 158.02 111.36" />
    <polyline class="b9a94712-c995-45ef-b4e8-49fd5bcc9277"
        points="137.87 138.03 149.77 125.44 149.95 115.99 155.34 115.99 160.53 115.99" />
    <polyline class="b9a94712-c995-45ef-b4e8-49fd5bcc9277"
        points="168.88 115.99 172.38 115.99 172.38 127.88 182.23 127.88" />
    <polyline class="b9a94712-c995-45ef-b4e8-49fd5bcc9277"
        points="168.88 111.36 175.56 111.36 175.56 123.34 183.69 123.34" />
    <line class="b9a94712-c995-45ef-b4e8-49fd5bcc9277" x1="190.63" y1="123.34" x2="203.98" y2="123.34" />
    <line class="b9a94712-c995-45ef-b4e8-49fd5bcc9277" x1="190.63" y1="127.88" x2="203.98" y2="127.88" />
    <polyline class="b9a94712-c995-45ef-b4e8-49fd5bcc9277"
        points="95.78 135.87 105.18 135.88 118.13 126.16 118.13 119.35" />
    <circle class="baca0cec-0e6c-4a8c-995e-ba9b7a9f9f6b" cx="118.13" cy="118.35" r="2.11" />
    <rect class="b7afc74c-52d7-4cef-8600-2b8efdb543f2" x="156.17" y="110.27" width="14.03" height="2.18" rx="1.09" />
    <rect class="b7afc74c-52d7-4cef-8600-2b8efdb543f2" x="156.17" y="114.9" width="14.03" height="2.18" rx="1.09" />
    <polyline class="a96fb2b2-15bb-4663-bee4-8ab44f19a2fb" points="72.74 197.98 72.74 216.21 81.52 216.21" />
    <polyline class="b9a94712-c995-45ef-b4e8-49fd5bcc9277"
        points="46.37 227.15 98.25 227.15 117.08 238.35 140.25 238.35" />
    <rect class="b9a94712-c995-45ef-b4e8-49fd5bcc9277" x="108.37" y="262.18" width="20.12" height="18.92" rx="1.38" />
    <rect class="e8b104e4-1e83-42b6-a181-848f8ce49f00" x="111.66" y="265.27" width="13.54" height="12.73" rx="1.26" />
    <polyline class="b9a94712-c995-45ef-b4e8-49fd5bcc9277"
        points="46.58 272.1 57.23 272.1 65.63 272.1 73.15 272.1 108.37 272.1" />
    <polyline class="b9a94712-c995-45ef-b4e8-49fd5bcc9277"
        points="46.58 276.71 57.23 276.71 65.63 276.71 73.15 276.71 108.37 276.71" />
    <polyline class="b9a94712-c995-45ef-b4e8-49fd5bcc9277"
        points="128.49 269.1 154.54 269.1 181.4 305.06 203.98 305.06" />
    <polyline class="b9a94712-c995-45ef-b4e8-49fd5bcc9277"
        points="128.49 274.57 152.36 274.69 178.58 310.17 203.98 310.54" />
    <polyline class="a96fb2b2-15bb-4663-bee4-8ab44f19a2fb"
        points="45.01 282.09 74.98 291.31 85.06 321.55 121.29 346.5" />
    <circle class="ecdebd9b-da31-4c1e-9148-cf0bb117bcb4" cx="128.49" cy="351.81" r="8.95" />
    <polyline class="b9a94712-c995-45ef-b4e8-49fd5bcc9277"
        points="154.31 313.85 144.02 302.57 143.72 290.14 135.68 290.14 130.15 290.14" />
    <polyline class="b9a94712-c995-45ef-b4e8-49fd5bcc9277"
        points="150.3 316.81 138.4 304.21 138.22 294.77 132.83 294.77 127.64 294.77" />
    <polyline class="b9a94712-c995-45ef-b4e8-49fd5bcc9277"
        points="119.29 294.77 115.79 294.77 115.79 306.65 105.94 306.65" />
    <polyline class="b9a94712-c995-45ef-b4e8-49fd5bcc9277"
        points="119.29 290.14 112.61 290.14 112.61 302.11 104.48 302.11" />
    <line class="b9a94712-c995-45ef-b4e8-49fd5bcc9277" x1="97.54" y1="302.11" x2="78.59" y2="302.11" />
    <line class="b9a94712-c995-45ef-b4e8-49fd5bcc9277" x1="97.54" y1="306.65" x2="80.1" y2="306.65" />
    <rect class="b7afc74c-52d7-4cef-8600-2b8efdb543f2" x="117.97" y="337.88" width="14.03" height="2.18" rx="1.09"
        transform="translate(249.97 629.11) rotate(-180)" />
    <rect class="b7afc74c-52d7-4cef-8600-2b8efdb543f2" x="117.97" y="342.51" width="14.03" height="2.18" rx="1.09"
        transform="translate(249.97 638.37) rotate(-180)" />
    <circle class="e2b4b10e-1839-41b0-baa9-ef97da020e50" cx="157.77" cy="320.64" r="7.95" />
    <rect class="f83a8298-57fa-4ac9-ba55-8fae4dd26e05" x="95.46" y="349.86" width="12.11" height="2.18" rx="1.09"
        transform="translate(203.03 653.06) rotate(180)" />
    <rect class="f83a8298-57fa-4ac9-ba55-8fae4dd26e05" x="95.46" y="354.4" width="12.11" height="2.18" rx="1.09"
        transform="translate(203.03 662.14) rotate(180)" />
    <polyline class="b9a94712-c995-45ef-b4e8-49fd5bcc9277" points="138.72 269.1 153.15 257.84 182.88 257.84" />
    <ellipse class="baca0cec-0e6c-4a8c-995e-ba9b7a9f9f6b" cx="184.25" cy="257.97" rx="1.54" ry="1.58" />
    <line class="b5b899f4-7897-4ec8-9d5f-0d7af724478f" x1="159.63" y1="161.89" x2="180.06" y2="153.23" />
    <circle class="ecdebd9b-da31-4c1e-9148-cf0bb117bcb4" cx="187.66" cy="148.28" r="8.95" />
</svg>