<svg id="bc91cdb8-f144-4da9-aa65-28288c72c609" data-name="Layer 1" xmlns="http://www.w3.org/2000/svg" viewBox="0 0 77.06 95.03"><defs><style>.a393367b-cdcf-4fda-90ed-4b90cf52c57b,.aa492125-ec29-4701-86ef-ea2afb7b017d{fill:#fff;}.a393367b-cdcf-4fda-90ed-4b90cf52c57b{font-size:12px;font-family:ArialMT, Arial;}.b291556e-b549-4c0e-b78e-4b908570457e{letter-spacing:-0.11em;}</style></defs><path class="aa492125-ec29-4701-86ef-ea2afb7b017d" d="M50.66,2.74c.94.33,1.81.56,2.61.93q17.16,8,34.28,16c.66.31,1.55,1.11,1.53,1.65s-.9,1.32-1.58,1.63C76.06,28.29,64.59,33.53,53.15,38.83a5.54,5.54,0,0,1-5,0C36.77,33.57,25.35,28.35,14,23.07a9.31,9.31,0,0,1-1.91-1.67,8.63,8.63,0,0,1,2-1.83q16.86-8,33.78-15.81C48.7,3.34,49.69,3.08,50.66,2.74Z" transform="translate(-12.05 -2.74)"/><path class="aa492125-ec29-4701-86ef-ea2afb7b017d" d="M50.59,61.1c-.72-.25-1.53-.47-2.28-.81Q31,52.34,13.63,44.32c-.63-.29-1.55-1.11-1.47-1.51a3.06,3.06,0,0,1,1.54-1.68c1.85-1,3.82-1.75,5.68-2.73a5.33,5.33,0,0,1,5.14,0C32.3,42,40.13,45.54,47.9,49.19a6,6,0,0,0,5.49,0c7.71-3.63,15.5-7.1,23.21-10.73a5.65,5.65,0,0,1,5.48,0c1.9,1,3.93,1.79,5.85,2.79a2.42,2.42,0,0,1,1.18,1.55c0,.41-.66,1.1-1.18,1.34Q70.22,52.39,52.44,60.53A14.12,14.12,0,0,1,50.59,61.1Z" transform="translate(-12.05 -2.74)"/><path class="aa492125-ec29-4701-86ef-ea2afb7b017d" d="M50.49,82.44a18.35,18.35,0,0,1-2.3-.72Q31.08,73.89,14,66a9.07,9.07,0,0,1-1.92-1.67,10.53,10.53,0,0,1,2-1.83c1.79-1,3.71-1.71,5.52-2.64a5.13,5.13,0,0,1,4.83,0C32.14,63.46,40,67,47.75,70.64a6.27,6.27,0,0,0,5.82,0C61.29,67,69.07,63.49,76.8,59.87a5.26,5.26,0,0,1,5,0c2,1,4,1.85,6,2.88.57.29,1.28.94,1.3,1.45s-.66,1.25-1.21,1.5Q70.24,73.9,52.53,82A10.25,10.25,0,0,1,50.49,82.44Z" transform="translate(-12.05 -2.74)"/><text class="a393367b-cdcf-4fda-90ed-4b90cf52c57b" transform="translate(11.18 91.14)"><tspan class="b291556e-b549-4c0e-b78e-4b908570457e">T</tspan><tspan x="6" y="0">ech Stack</tspan></text></svg>