<svg id="b609c38c-a0e8-448d-9827-1184e431f900" data-name="Layer 1" xmlns="http://www.w3.org/2000/svg"
    viewBox="0 0 60.24 60.24">
    <defs>
        <style>
            .b239502c-56c2-41ba-898d-26e7c3a53d78 {
                fill: #004fff;
            }

            .bcd8d073-a935-4d08-962a-30e68ce2550c {
                fill: #fff;
            }
        </style>
    </defs>
    <!-- <circle class="b239502c-56c2-41ba-898d-26e7c3a53d78" cx="30.12" cy="30.12" r="30.12" /> -->
    <path class="bcd8d073-a935-4d08-962a-30e68ce2550c"
        d="M50,30.16a11.3,11.3,0,0,1,1.28.44q8.61,4,17.2,8c.31.15.7.51.7.77s-.4.63-.7.77c-5.8,2.69-11.61,5.35-17.41,8a2.43,2.43,0,0,1-2.15,0c-5.77-2.67-11.55-5.32-17.32-8-.31-.14-.78-.53-.74-.74a1.37,1.37,0,0,1,.75-.84q8.54-4,17.11-8A12,12,0,0,1,50,30.16Z"
        transform="translate(-19.88 -19.88)" />
    <path class="bcd8d073-a935-4d08-962a-30e68ce2550c"
        d="M35.76,47.46c.42.16.88.3,1.31.5C41,49.73,44.83,51.5,48.7,53.31a2.86,2.86,0,0,0,2.64,0c3.87-1.82,7.76-3.56,11.63-5.37a2.72,2.72,0,0,1,2.64,0c1,.52,2,.92,3,1.42.25.13.59.47.57.69a1.17,1.17,0,0,1-.6.75c-5.87,2.73-11.75,5.45-17.66,8.11a2.59,2.59,0,0,1-1.86,0q-8.82-4-17.58-8.06c-.28-.13-.64-.48-.64-.74s.34-.6.62-.75c1.09-.55,2.21-1,3.32-1.55A7.2,7.2,0,0,1,35.76,47.46Z"
        transform="translate(-19.88 -19.88)" />
    <path class="bcd8d073-a935-4d08-962a-30e68ce2550c"
        d="M49.94,69.84a7,7,0,0,1-1.08-.31q-8.64-4-17.25-8c-.33-.15-.78-.55-.77-.81s.46-.64.79-.82c.93-.48,1.91-.87,2.84-1.34a2.6,2.6,0,0,1,2.48,0c3.84,1.79,7.71,3.52,11.54,5.33a3.15,3.15,0,0,0,3,0c3.86-1.82,7.76-3.57,11.63-5.37a2.53,2.53,0,0,1,2.39,0c1,.51,2.07.94,3.07,1.47a1.18,1.18,0,0,1,.61.75c0,.21-.32.56-.57.68q-8.82,4.09-17.66,8.12A4.6,4.6,0,0,1,49.94,69.84Z"
        transform="translate(-19.88 -19.88)" />
</svg>