<svg id="b7a6ae99-8446-49d7-a57e-3fc1e3c474bb" data-name="Layer 1" xmlns="http://www.w3.org/2000/svg" viewBox="0 0 91.94 90.04"><defs><style>.a9ab59bc-874d-4933-9fe8-a1809f844415,.aab9ce9a-084a-40b0-b791-cd0d8d602948,.ab380e7f-aa0d-4cf6-a160-a52705db1361,.b5193920-20f5-41eb-bd23-1636f1773265,.bfdcf528-ad9a-406e-afef-d8c278630107,.f4491551-d757-4478-8785-517996e89ec5{fill:#022563;stroke:#00c5d4;stroke-miterlimit:10;stroke-width:0.5px;}.a9ab59bc-874d-4933-9fe8-a1809f844415{opacity:0.1;}.f4491551-d757-4478-8785-517996e89ec5{opacity:0.4;}.bfdcf528-ad9a-406e-afef-d8c278630107{opacity:0.6;}.aab9ce9a-084a-40b0-b791-cd0d8d602948{opacity:0.8;}.ab380e7f-aa0d-4cf6-a160-a52705db1361{opacity:0.9;}</style></defs><path class="a9ab59bc-874d-4933-9fe8-a1809f844415" d="M7.8,52.15a10.31,10.31,0,0,1,.23,2c1.29,19,11.91,31.26,25.19,36.7a4.94,4.94,0,0,1,1.37.67L33.33,95a4.74,4.74,0,0,1-1.59-.48c-14.45-5.91-26-19.22-27.41-39.93a9.55,9.55,0,0,1,0-2.23Z" transform="translate(-4.03 -5.53)"/><path class="f4491551-d757-4478-8785-517996e89ec5" d="M17.48,77.52c.06,0,.35.23.65.61A39.05,39.05,0,0,0,38,91.17c.45.13.8.29.78.36l-1,3.75c0,.08-.43,0-.93-.11A42.81,42.81,0,0,1,15,80.85c-.34-.41-.55-.8-.49-.85Z" transform="translate(-4.03 -5.53)"/><path class="bfdcf528-ad9a-406e-afef-d8c278630107" d="M23.12,82.3A3.56,3.56,0,0,1,24,83,41.12,41.12,0,0,0,53.3,91.89a3.22,3.22,0,0,1,1.12,0c.09.89.19,1.79.28,2.68a3.54,3.54,0,0,1-1.17.2,44,44,0,0,1-31.28-9.55,3.28,3.28,0,0,1-.86-.86C22,83.68,22.55,83,23.12,82.3Z" transform="translate(-4.03 -5.53)"/><path class="aab9ce9a-084a-40b0-b791-cd0d8d602948" d="M39.73,88.12c0-.08.48,0,1,.11a39.58,39.58,0,0,0,28.35-3.86c.5-.28.93-.46,1-.4.69,1.16,1.37,2.31,2.06,3.45,0,.07-.37.4-.93.71a43.92,43.92,0,0,1-31.47,4.28c-.62-.15-1.09-.34-1.07-.42Z" transform="translate(-4.03 -5.53)"/><path class="ab380e7f-aa0d-4cf6-a160-a52705db1361" d="M54,87.55c0-.08.37-.19.85-.25a35.23,35.23,0,0,0,21.73-11c.33-.36.65-.63.71-.57l3.1,2.91c.07.06-.18.45-.56.86A39.55,39.55,0,0,1,55.4,91.84c-.54.07-1,0-1,0Z" transform="translate(-4.03 -5.53)"/><path class="b5193920-20f5-41eb-bd23-1636f1773265" d="M72,79.68c0-.07.24-.38.64-.7,6.85-5.62,11.7-14.25,12.38-25.9a2.94,2.94,0,0,1,.2-1.24l4,.18a3.41,3.41,0,0,1,.08,1.4c-.76,13.07-6.19,22.76-13.88,29.06-.45.37-.87.6-.92.53Z" transform="translate(-4.03 -5.53)"/><path class="a9ab59bc-874d-4933-9fe8-a1809f844415" d="M92.2,52.15a10.31,10.31,0,0,0-.23,2c-1.29,19-11.91,31.26-25.19,36.7a4.94,4.94,0,0,0-1.37.67L66.67,95a4.74,4.74,0,0,0,1.59-.48c14.45-5.91,26-19.22,27.41-39.93a9.55,9.55,0,0,0,0-2.23Z" transform="translate(-4.03 -5.53)"/><path class="f4491551-d757-4478-8785-517996e89ec5" d="M82.52,77.52c-.06,0-.35.23-.65.61A39.05,39.05,0,0,1,62,91.17c-.45.13-.8.29-.78.36l1,3.75c0,.08.44,0,.93-.11A42.81,42.81,0,0,0,85,80.85c.34-.41.55-.8.49-.85Z" transform="translate(-4.03 -5.53)"/><path class="bfdcf528-ad9a-406e-afef-d8c278630107" d="M76.88,82.3A3.56,3.56,0,0,0,76,83,41.12,41.12,0,0,1,46.7,91.89a3.13,3.13,0,0,0-1.11,0c-.1.89-.19,1.79-.29,2.68a3.61,3.61,0,0,0,1.17.2,44,44,0,0,0,31.29-9.55,3.34,3.34,0,0,0,.85-.86C78,83.68,77.45,83,76.88,82.3Z" transform="translate(-4.03 -5.53)"/><path class="aab9ce9a-084a-40b0-b791-cd0d8d602948" d="M60.27,88.12c0-.08-.48,0-1,.11a39.58,39.58,0,0,1-28.35-3.86c-.5-.28-.93-.46-1-.4-.68,1.16-1.37,2.31-2.05,3.45,0,.07.36.4.92.71a43.92,43.92,0,0,0,31.47,4.28c.62-.15,1.1-.34,1.07-.42Z" transform="translate(-4.03 -5.53)"/><path class="ab380e7f-aa0d-4cf6-a160-a52705db1361" d="M46,87.55c0-.08-.37-.19-.85-.25a35.23,35.23,0,0,1-21.73-11c-.33-.36-.65-.63-.71-.57l-3.1,2.91c-.06.06.18.45.56.86A39.55,39.55,0,0,0,44.6,91.84c.54.07,1,0,1,0Z" transform="translate(-4.03 -5.53)"/><path class="b5193920-20f5-41eb-bd23-1636f1773265" d="M28,79.68c0-.07-.25-.38-.65-.7C20.54,73.36,15.69,64.73,15,53.08a2.94,2.94,0,0,0-.2-1.24l-4,.18a3.22,3.22,0,0,0-.08,1.4c.76,13.07,6.19,22.76,13.89,29.06.45.37.86.6.91.53Z" transform="translate(-4.03 -5.53)"/><path class="a9ab59bc-874d-4933-9fe8-a1809f844415" d="M7.8,48.94a10,10,0,0,0,.23-2c1.29-19,11.91-31.26,25.19-36.69a4.8,4.8,0,0,0,1.37-.68L33.33,6.15a4.74,4.74,0,0,0-1.59.48c-14.45,5.91-26,19.22-27.41,39.93a9.45,9.45,0,0,0,0,2.22Z" transform="translate(-4.03 -5.53)"/><path class="f4491551-d757-4478-8785-517996e89ec5" d="M17.48,23.57c.06.05.35-.22.65-.6A39.07,39.07,0,0,1,38,9.92c.45-.13.8-.28.78-.36l-1-3.75c0-.07-.43,0-.93.11A42.94,42.94,0,0,0,15,20.24c-.33.42-.55.81-.49.86Z" transform="translate(-4.03 -5.53)"/><path class="bfdcf528-ad9a-406e-afef-d8c278630107" d="M23.12,18.8a3.56,3.56,0,0,0,.92-.66A41.12,41.12,0,0,1,53.3,9.21a3.92,3.92,0,0,0,1.12,0c.09-.89.18-1.79.28-2.68a3.26,3.26,0,0,0-1.17-.2,43.91,43.91,0,0,0-31.28,9.55,3.52,3.52,0,0,0-.86.85Z" transform="translate(-4.03 -5.53)"/><path class="aab9ce9a-084a-40b0-b791-cd0d8d602948" d="M39.73,13c0,.08.48,0,1-.11a39.58,39.58,0,0,1,28.35,3.85c.5.28.93.47,1,.4l2.06-3.45c0-.07-.37-.39-.93-.71A43.91,43.91,0,0,0,39.75,8.69a2.27,2.27,0,0,0-1.07.41Z" transform="translate(-4.03 -5.53)"/><path class="ab380e7f-aa0d-4cf6-a160-a52705db1361" d="M54,13.54c0,.09.37.19.85.26a35.22,35.22,0,0,1,21.73,11c.33.37.65.63.71.57,1-1,2.07-1.93,3.1-2.9.07-.06-.18-.45-.56-.87A39.6,39.6,0,0,0,55.4,9.25c-.54-.06-1,0-1,.05Z" transform="translate(-4.03 -5.53)"/><path class="b5193920-20f5-41eb-bd23-1636f1773265" d="M72,21.42c0,.06.24.37.64.7C79.46,27.74,84.31,36.37,85,48a3,3,0,0,0,.2,1.24l4-.18a3.44,3.44,0,0,0,.08-1.41c-.76-13.07-6.19-22.75-13.88-29-.46-.37-.87-.6-.92-.54Z" transform="translate(-4.03 -5.53)"/><path class="a9ab59bc-874d-4933-9fe8-a1809f844415" d="M92.2,48.94a10,10,0,0,1-.23-2c-1.29-19-11.91-31.26-25.19-36.69a4.8,4.8,0,0,1-1.37-.68l1.26-3.38a4.74,4.74,0,0,1,1.59.48c14.45,5.91,26,19.22,27.41,39.93a8.55,8.55,0,0,1,0,2.22Z" transform="translate(-4.03 -5.53)"/><path class="f4491551-d757-4478-8785-517996e89ec5" d="M82.52,23.57c-.06.05-.35-.22-.65-.6A39.07,39.07,0,0,0,62,9.92c-.45-.13-.8-.28-.78-.36l1-3.75c0-.07.43,0,.93.11A42.94,42.94,0,0,1,85,20.24c.34.42.55.81.49.86Z" transform="translate(-4.03 -5.53)"/><path class="bfdcf528-ad9a-406e-afef-d8c278630107" d="M76.88,18.8a3.56,3.56,0,0,1-.92-.66A41.12,41.12,0,0,0,46.7,9.21a3.81,3.81,0,0,1-1.11,0c-.1-.89-.19-1.79-.29-2.68a3.32,3.32,0,0,1,1.17-.2,44,44,0,0,1,31.29,9.55,3.59,3.59,0,0,1,.85.85Z" transform="translate(-4.03 -5.53)"/><path class="aab9ce9a-084a-40b0-b791-cd0d8d602948" d="M60.27,13c0,.08-.48,0-1-.11a39.58,39.58,0,0,0-28.35,3.85c-.5.28-.93.47-1,.4l-2.05-3.45c0-.07.36-.39.92-.71A43.91,43.91,0,0,1,60.25,8.69c.62.14,1.1.34,1.07.41Z" transform="translate(-4.03 -5.53)"/><path class="ab380e7f-aa0d-4cf6-a160-a52705db1361" d="M46,13.54c0,.09-.37.19-.85.26a35.22,35.22,0,0,0-21.73,11c-.33.37-.65.63-.71.57l-3.1-2.9c-.06-.06.18-.45.56-.87A39.6,39.6,0,0,1,44.6,9.25c.54-.06,1,0,1,.05Z" transform="translate(-4.03 -5.53)"/><path class="b5193920-20f5-41eb-bd23-1636f1773265" d="M28,21.42c0,.06-.25.37-.65.7C20.54,27.74,15.69,36.37,15,48a3,3,0,0,1-.2,1.24l-4-.18a3.25,3.25,0,0,1-.08-1.41c.76-13.07,6.19-22.75,13.89-29,.45-.37.86-.6.91-.54Z" transform="translate(-4.03 -5.53)"/><path class="a9ab59bc-874d-4933-9fe8-a1809f844415" d="M21.23,51a7.11,7.11,0,0,1,.16,1.39c.88,13,8.12,21.31,17.17,25a3.64,3.64,0,0,1,.94.46c-.29.77-.58,1.54-.86,2.31a3.44,3.44,0,0,1-1.09-.33c-9.85-4-17.73-13.1-18.69-27.22a6.74,6.74,0,0,1,0-1.52Z" transform="translate(-4.03 -5.53)"/><path class="f4491551-d757-4478-8785-517996e89ec5" d="M27.83,68.34s.24.15.44.41a26.61,26.61,0,0,0,13.57,8.89c.3.09.54.2.52.25l-.69,2.56s-.3,0-.63-.08a29.21,29.21,0,0,1-14.89-9.76c-.23-.29-.37-.55-.33-.58Z" transform="translate(-4.03 -5.53)"/><path class="bfdcf528-ad9a-406e-afef-d8c278630107" d="M31.68,71.59a2.81,2.81,0,0,1,.62.45,28,28,0,0,0,20,6.09,2.3,2.3,0,0,1,.76,0c.07.61.13,1.22.19,1.83a2.28,2.28,0,0,1-.79.14,30,30,0,0,1-21.33-6.51c-.35-.29-.61-.56-.58-.59Z" transform="translate(-4.03 -5.53)"/><path class="aab9ce9a-084a-40b0-b791-cd0d8d602948" d="M43,75.56s.33,0,.71.08A27,27,0,0,0,63,73c.34-.19.64-.32.67-.27l1.4,2.35s-.25.27-.63.48A30,30,0,0,1,43,78.49a1.57,1.57,0,0,1-.73-.29Z" transform="translate(-4.03 -5.53)"/><path class="ab380e7f-aa0d-4cf6-a160-a52705db1361" d="M52.7,75.18c0-.06.25-.13.58-.18a24,24,0,0,0,14.81-7.47c.23-.25.45-.43.49-.39l2.11,2s-.12.31-.38.59A26.93,26.93,0,0,1,53.68,78.1c-.37.05-.67,0-.67,0C52.9,77.11,52.8,76.14,52.7,75.18Z" transform="translate(-4.03 -5.53)"/><path class="b5193920-20f5-41eb-bd23-1636f1773265" d="M65,69.81s.16-.26.43-.48c4.68-3.83,8-9.72,8.44-17.66a2.24,2.24,0,0,1,.14-.85l2.72.13a2.41,2.41,0,0,1,.05,1c-.52,8.91-4.22,15.51-9.47,19.8-.3.26-.59.42-.62.37Z" transform="translate(-4.03 -5.53)"/><path class="a9ab59bc-874d-4933-9fe8-a1809f844415" d="M78.77,51a7.11,7.11,0,0,0-.16,1.39c-.88,13-8.12,21.31-17.17,25a3.64,3.64,0,0,0-.94.46c.29.77.58,1.54.86,2.31a3.44,3.44,0,0,0,1.09-.33c9.85-4,17.73-13.1,18.69-27.22a6.74,6.74,0,0,0,0-1.52Z" transform="translate(-4.03 -5.53)"/><path class="f4491551-d757-4478-8785-517996e89ec5" d="M72.17,68.34s-.23.15-.44.41a26.58,26.58,0,0,1-13.56,8.89c-.31.09-.55.2-.53.25l.69,2.56s.3,0,.63-.08a29.21,29.21,0,0,0,14.89-9.76c.23-.29.37-.55.33-.58Z" transform="translate(-4.03 -5.53)"/><path class="bfdcf528-ad9a-406e-afef-d8c278630107" d="M68.32,71.59a2.81,2.81,0,0,0-.62.45,28,28,0,0,1-20,6.09,2.3,2.3,0,0,0-.76,0c-.06.61-.13,1.22-.19,1.83a2.28,2.28,0,0,0,.79.14,30,30,0,0,0,21.33-6.51c.35-.29.61-.56.58-.59Z" transform="translate(-4.03 -5.53)"/><path class="aab9ce9a-084a-40b0-b791-cd0d8d602948" d="M57,75.56s-.33,0-.71.08A27,27,0,0,1,37,73c-.34-.19-.64-.32-.67-.27l-1.4,2.35a1.67,1.67,0,0,0,.63.48A30,30,0,0,0,57,78.49c.42-.1.75-.24.73-.29Z" transform="translate(-4.03 -5.53)"/><path class="ab380e7f-aa0d-4cf6-a160-a52705db1361" d="M47.3,75.18c0-.06-.25-.13-.58-.18a24,24,0,0,1-14.81-7.47c-.23-.25-.45-.43-.49-.39l-2.11,2s.12.31.38.59A27,27,0,0,0,46.32,78.1c.37.05.67,0,.68,0Z" transform="translate(-4.03 -5.53)"/><path class="b5193920-20f5-41eb-bd23-1636f1773265" d="M35,69.81s-.17-.26-.45-.48c-4.67-3.83-8-9.72-8.43-17.66a2.24,2.24,0,0,0-.14-.85L23.3,51a2.12,2.12,0,0,0-.06,1c.52,8.91,4.22,15.51,9.47,19.8.3.26.59.42.62.37C33.89,71.32,34.46,70.57,35,69.81Z" transform="translate(-4.03 -5.53)"/><path class="a9ab59bc-874d-4933-9fe8-a1809f844415" d="M21.23,48.75a7.11,7.11,0,0,0,.16-1.39c.88-13,8.12-21.32,17.17-25a3.64,3.64,0,0,0,.94-.46c-.29-.77-.58-1.54-.86-2.31a3.44,3.44,0,0,0-1.09.33c-9.85,4-17.73,13.1-18.69,27.22a6.74,6.74,0,0,0,0,1.52Z" transform="translate(-4.03 -5.53)"/><path class="f4491551-d757-4478-8785-517996e89ec5" d="M27.83,31.45s.24-.15.44-.41a26.7,26.7,0,0,1,13.56-8.9c.31-.08.55-.19.53-.24l-.69-2.56c0-.05-.3,0-.63.08a29.21,29.21,0,0,0-14.89,9.76c-.23.29-.37.55-.33.58Z" transform="translate(-4.03 -5.53)"/><path class="bfdcf528-ad9a-406e-afef-d8c278630107" d="M31.68,28.19a2.27,2.27,0,0,0,.62-.44,28,28,0,0,1,20-6.09,2.3,2.3,0,0,0,.76,0c.07-.61.13-1.22.19-1.83a2.28,2.28,0,0,0-.79-.14A30,30,0,0,0,31.08,26.2c-.35.29-.61.56-.58.59C30.89,27.26,31.28,27.73,31.68,28.19Z" transform="translate(-4.03 -5.53)"/><path class="aab9ce9a-084a-40b0-b791-cd0d8d602948" d="M43,24.23c0,.05.33,0,.71-.08A27,27,0,0,1,63,26.78c.34.19.64.32.67.27l1.4-2.35c0-.05-.25-.27-.63-.48A30,30,0,0,0,43,21.3a1.57,1.57,0,0,0-.73.29Z" transform="translate(-4.03 -5.53)"/><path class="ab380e7f-aa0d-4cf6-a160-a52705db1361" d="M52.7,24.61c0,.06.25.13.58.18a24,24,0,0,1,14.81,7.47c.23.25.45.43.49.39l2.11-2s-.12-.3-.38-.58a26.93,26.93,0,0,0-16.63-8.39c-.37-.05-.67,0-.68,0Z" transform="translate(-4.03 -5.53)"/><path class="b5193920-20f5-41eb-bd23-1636f1773265" d="M65,30c0,.05.16.26.43.48,4.68,3.83,8,9.72,8.44,17.66A2.24,2.24,0,0,0,74,49l2.72-.13a2.44,2.44,0,0,0,.05-1c-.52-8.91-4.22-15.51-9.47-19.81-.3-.25-.59-.41-.62-.36Z" transform="translate(-4.03 -5.53)"/><path class="a9ab59bc-874d-4933-9fe8-a1809f844415" d="M78.77,48.75a7.11,7.11,0,0,1-.16-1.39c-.88-13-8.12-21.32-17.17-25a3.64,3.64,0,0,1-.94-.46c.29-.77.58-1.54.86-2.31a3.44,3.44,0,0,1,1.09.33c9.85,4,17.73,13.1,18.69,27.22a6.74,6.74,0,0,1,0,1.52Z" transform="translate(-4.03 -5.53)"/><path class="f4491551-d757-4478-8785-517996e89ec5" d="M72.17,31.45s-.23-.15-.44-.41a26.7,26.7,0,0,0-13.56-8.9c-.31-.08-.55-.19-.53-.24l.69-2.56c0-.05.3,0,.63.08a29.21,29.21,0,0,1,14.89,9.76c.23.29.37.55.33.58Z" transform="translate(-4.03 -5.53)"/><path class="bfdcf528-ad9a-406e-afef-d8c278630107" d="M68.32,28.19a2.27,2.27,0,0,1-.62-.44,28,28,0,0,0-20-6.09,2.3,2.3,0,0,1-.76,0c-.06-.61-.13-1.22-.19-1.83a2.28,2.28,0,0,1,.79-.14A30,30,0,0,1,68.92,26.2c.35.29.61.56.58.59C69.11,27.26,68.72,27.73,68.32,28.19Z" transform="translate(-4.03 -5.53)"/><path class="aab9ce9a-084a-40b0-b791-cd0d8d602948" d="M57,24.23c0,.05-.33,0-.71-.08A27,27,0,0,0,37,26.78c-.34.19-.64.32-.67.27L34.9,24.7c0-.05.25-.27.63-.48A30,30,0,0,1,57,21.3c.42.1.75.24.73.29Z" transform="translate(-4.03 -5.53)"/><path class="ab380e7f-aa0d-4cf6-a160-a52705db1361" d="M47.3,24.61c0,.06-.25.13-.58.18a24,24,0,0,0-14.81,7.47c-.23.25-.45.43-.49.39l-2.11-2s.12-.3.38-.58a27,27,0,0,1,16.63-8.39c.37-.05.67,0,.68,0Z" transform="translate(-4.03 -5.53)"/><path class="b5193920-20f5-41eb-bd23-1636f1773265" d="M35,30c0,.05-.17.26-.45.48-4.67,3.83-8,9.72-8.43,17.66A2.24,2.24,0,0,1,26,49l-2.71-.13a2.15,2.15,0,0,1-.06-1c.52-8.91,4.22-15.51,9.47-19.81.3-.25.59-.41.62-.36C33.89,28.47,34.46,29.22,35,30Z" transform="translate(-4.03 -5.53)"/><path class="a9ab59bc-874d-4933-9fe8-a1809f844415" d="M31.05,50.24a5.06,5.06,0,0,1,.1.91c.58,8.55,5.35,14,11.31,16.48a2.51,2.51,0,0,1,.62.31l-.57,1.52a2.14,2.14,0,0,1-.71-.22c-6.49-2.65-11.68-8.63-12.31-17.93a4,4,0,0,1,0-1Z" transform="translate(-4.03 -5.53)"/><path class="f4491551-d757-4478-8785-517996e89ec5" d="M35.39,61.63s.16.1.3.27a17.48,17.48,0,0,0,8.93,5.86c.2.06.36.13.35.16-.15.57-.31,1.13-.46,1.69,0,0-.19,0-.42,0a19.29,19.29,0,0,1-9.8-6.43c-.15-.19-.25-.36-.22-.39Z" transform="translate(-4.03 -5.53)"/><path class="bfdcf528-ad9a-406e-afef-d8c278630107" d="M37.93,63.78a1.47,1.47,0,0,1,.41.29,18.46,18.46,0,0,0,13.14,4,1.73,1.73,0,0,1,.5,0c.05.4.09.81.13,1.21a1.58,1.58,0,0,1-.52.09,19.79,19.79,0,0,1-14.06-4.29c-.23-.19-.4-.37-.38-.39Z" transform="translate(-4.03 -5.53)"/><path class="aab9ce9a-084a-40b0-b791-cd0d8d602948" d="M45.39,66.39a1,1,0,0,1,.46,0,17.82,17.82,0,0,0,12.74-1.73c.22-.13.42-.21.43-.18L60,66.08s-.17.18-.42.32A19.75,19.75,0,0,1,45.4,68.32a1.16,1.16,0,0,1-.49-.19Z" transform="translate(-4.03 -5.53)"/><path class="ab380e7f-aa0d-4cf6-a160-a52705db1361" d="M51.78,66.14s.16-.09.38-.12a15.84,15.84,0,0,0,9.76-4.92c.15-.16.29-.28.32-.26l1.39,1.31s-.08.2-.25.39a17.76,17.76,0,0,1-11,5.52c-.24,0-.44,0-.44,0C51.91,67.41,51.84,66.77,51.78,66.14Z" transform="translate(-4.03 -5.53)"/><path class="b5193920-20f5-41eb-bd23-1636f1773265" d="M59.87,62.6s.11-.17.29-.32a15.75,15.75,0,0,0,5.56-11.63,1.16,1.16,0,0,1,.09-.56l1.78.08a1.45,1.45,0,0,1,0,.64,17.6,17.6,0,0,1-6.24,13c-.2.16-.38.27-.41.24Z" transform="translate(-4.03 -5.53)"/><path class="a9ab59bc-874d-4933-9fe8-a1809f844415" d="M69,50.24a5.06,5.06,0,0,0-.1.91c-.58,8.55-5.35,14-11.31,16.48a2.51,2.51,0,0,0-.62.31l.57,1.52a2.14,2.14,0,0,0,.71-.22c6.49-2.65,11.68-8.63,12.31-17.93a4,4,0,0,0,0-1Z" transform="translate(-4.03 -5.53)"/><path class="f4491551-d757-4478-8785-517996e89ec5" d="M64.61,61.63s-.16.1-.3.27a17.44,17.44,0,0,1-8.93,5.86c-.2.06-.36.13-.35.16.15.57.31,1.13.46,1.69,0,0,.19,0,.42,0a19.29,19.29,0,0,0,9.8-6.43c.15-.19.25-.36.22-.39Z" transform="translate(-4.03 -5.53)"/><path class="bfdcf528-ad9a-406e-afef-d8c278630107" d="M62.07,63.78a1.64,1.64,0,0,0-.41.29,18.46,18.46,0,0,1-13.14,4,1.73,1.73,0,0,0-.5,0c-.05.4-.09.81-.13,1.21a1.58,1.58,0,0,0,.52.09,19.79,19.79,0,0,0,14.06-4.29c.23-.19.4-.37.38-.39Z" transform="translate(-4.03 -5.53)"/><path class="aab9ce9a-084a-40b0-b791-cd0d8d602948" d="M54.61,66.39a1,1,0,0,0-.46,0,17.82,17.82,0,0,1-12.74-1.73c-.22-.13-.42-.21-.43-.18l-.93,1.55a1.14,1.14,0,0,0,.42.32A19.75,19.75,0,0,0,54.6,68.32a1.16,1.16,0,0,0,.49-.19Z" transform="translate(-4.03 -5.53)"/><path class="ab380e7f-aa0d-4cf6-a160-a52705db1361" d="M48.22,66.14s-.16-.09-.38-.12a15.81,15.81,0,0,1-9.76-4.92c-.15-.16-.29-.28-.32-.26l-1.39,1.31s.08.2.25.39a17.76,17.76,0,0,0,11,5.52c.24,0,.44,0,.44,0C48.09,67.41,48.16,66.77,48.22,66.14Z" transform="translate(-4.03 -5.53)"/><path class="b5193920-20f5-41eb-bd23-1636f1773265" d="M40.13,62.6s-.11-.17-.29-.32a15.72,15.72,0,0,1-5.56-11.63,1.16,1.16,0,0,0-.09-.56l-1.78.08a1.45,1.45,0,0,0,0,.64,17.6,17.6,0,0,0,6.24,13c.2.16.38.27.41.24Z" transform="translate(-4.03 -5.53)"/><path class="a9ab59bc-874d-4933-9fe8-a1809f844415" d="M31.05,48.61a5.22,5.22,0,0,0,.1-.91c.58-8.55,5.35-14,11.31-16.49a2.3,2.3,0,0,0,.62-.3l-.57-1.52a2.26,2.26,0,0,0-.71.21c-6.49,2.66-11.68,8.64-12.31,17.94a4,4,0,0,0,0,1Z" transform="translate(-4.03 -5.53)"/><path class="f4491551-d757-4478-8785-517996e89ec5" d="M35.39,37.22s.16-.1.3-.28a17.53,17.53,0,0,1,8.93-5.85c.2-.06.36-.13.35-.17-.15-.56-.31-1.12-.46-1.68,0,0-.19,0-.42.05a19.23,19.23,0,0,0-9.8,6.43c-.15.19-.25.36-.22.39Z" transform="translate(-4.03 -5.53)"/><path class="bfdcf528-ad9a-406e-afef-d8c278630107" d="M37.93,35.07a1.78,1.78,0,0,0,.41-.29,18.47,18.47,0,0,1,13.14-4,1.56,1.56,0,0,0,.5,0c.05-.41.09-.81.13-1.21a1.58,1.58,0,0,0-.52-.09,19.79,19.79,0,0,0-14.06,4.29,1.61,1.61,0,0,0-.38.38Z" transform="translate(-4.03 -5.53)"/><path class="aab9ce9a-084a-40b0-b791-cd0d8d602948" d="M45.39,32.46a1,1,0,0,0,.46-.05,17.82,17.82,0,0,1,12.74,1.73c.22.13.42.21.43.18L60,32.77s-.17-.18-.42-.32A19.75,19.75,0,0,0,45.4,30.53c-.28.07-.5.15-.49.19Z" transform="translate(-4.03 -5.53)"/><path class="ab380e7f-aa0d-4cf6-a160-a52705db1361" d="M51.78,32.71s.16.09.38.12a15.84,15.84,0,0,1,9.76,4.92c.15.16.29.28.32.25l1.39-1.3s-.08-.2-.25-.39a17.78,17.78,0,0,0-11-5.53.78.78,0,0,0-.44,0C51.91,31.44,51.84,32.08,51.78,32.71Z" transform="translate(-4.03 -5.53)"/><path class="b5193920-20f5-41eb-bd23-1636f1773265" d="M59.87,36.25s.11.17.29.32A15.75,15.75,0,0,1,65.72,48.2a1.2,1.2,0,0,0,.09.56l1.78-.09a1.37,1.37,0,0,0,0-.63,17.6,17.6,0,0,0-6.24-13c-.2-.16-.38-.27-.41-.24Z" transform="translate(-4.03 -5.53)"/><path class="a9ab59bc-874d-4933-9fe8-a1809f844415" d="M69,48.61a5.22,5.22,0,0,1-.1-.91c-.58-8.55-5.35-14-11.31-16.49a2.3,2.3,0,0,1-.62-.3l.57-1.52a2.26,2.26,0,0,1,.71.21c6.49,2.66,11.68,8.64,12.31,17.94a4,4,0,0,1,0,1Z" transform="translate(-4.03 -5.53)"/><path class="f4491551-d757-4478-8785-517996e89ec5" d="M64.61,37.22s-.16-.1-.3-.28a17.53,17.53,0,0,0-8.93-5.85C55.18,31,55,31,55,30.92c.15-.56.31-1.12.46-1.68,0,0,.19,0,.42.05a19.23,19.23,0,0,1,9.8,6.43c.15.19.25.36.22.39Z" transform="translate(-4.03 -5.53)"/><path class="bfdcf528-ad9a-406e-afef-d8c278630107" d="M62.07,35.07a1.78,1.78,0,0,1-.41-.29,18.47,18.47,0,0,0-13.14-4,1.56,1.56,0,0,1-.5,0c-.05-.41-.09-.81-.13-1.21a1.58,1.58,0,0,1,.52-.09,19.79,19.79,0,0,1,14.06,4.29,1.61,1.61,0,0,1,.38.38Z" transform="translate(-4.03 -5.53)"/><path class="aab9ce9a-084a-40b0-b791-cd0d8d602948" d="M54.61,32.46a1,1,0,0,1-.46-.05,17.82,17.82,0,0,0-12.74,1.73c-.22.13-.42.21-.43.18l-.93-1.55s.17-.18.42-.32A19.75,19.75,0,0,1,54.6,30.53c.28.07.5.15.49.19Z" transform="translate(-4.03 -5.53)"/><path class="ab380e7f-aa0d-4cf6-a160-a52705db1361" d="M48.22,32.71s-.16.09-.38.12a15.81,15.81,0,0,0-9.76,4.92c-.15.16-.29.28-.32.25l-1.39-1.3s.08-.2.25-.39a17.78,17.78,0,0,1,11-5.53.78.78,0,0,1,.44,0C48.09,31.44,48.16,32.08,48.22,32.71Z" transform="translate(-4.03 -5.53)"/><path class="b5193920-20f5-41eb-bd23-1636f1773265" d="M40.13,36.25s-.11.17-.29.32A15.72,15.72,0,0,0,34.28,48.2a1.2,1.2,0,0,1-.09.56l-1.78-.09a1.37,1.37,0,0,1,0-.63,17.6,17.6,0,0,1,6.24-13c.2-.16.38-.27.41-.24Z" transform="translate(-4.03 -5.53)"/><path class="a9ab59bc-874d-4933-9fe8-a1809f844415" d="M38,50a2.87,2.87,0,0,1,.06.58A11.54,11.54,0,0,0,45.24,61a1.27,1.27,0,0,1,.39.2l-.36,1a1.7,1.7,0,0,1-.45-.14c-4.1-1.68-7.38-5.45-7.77-11.33a2.23,2.23,0,0,1,0-.63Z" transform="translate(-4.03 -5.53)"/><path class="f4491551-d757-4478-8785-517996e89ec5" d="M40.78,57.19s.09.07.18.18a11.17,11.17,0,0,0,5.64,3.7c.13,0,.23.08.22.1-.09.35-.19.71-.29,1.06,0,0-.12,0-.26,0a12.17,12.17,0,0,1-6.19-4.06c-.1-.12-.16-.23-.14-.24Z" transform="translate(-4.03 -5.53)"/><path class="bfdcf528-ad9a-406e-afef-d8c278630107" d="M42.38,58.55a1.12,1.12,0,0,1,.26.18,11.66,11.66,0,0,0,8.3,2.54.68.68,0,0,1,.31,0c0,.25.06.51.08.76a1.28,1.28,0,0,1-.33.06,12.5,12.5,0,0,1-8.87-2.71,1.26,1.26,0,0,1-.25-.25Z" transform="translate(-4.03 -5.53)"/><path class="aab9ce9a-084a-40b0-b791-cd0d8d602948" d="M47.09,60.2s.13,0,.29,0a11.25,11.25,0,0,0,8-1.09c.14-.08.27-.14.28-.12l.58,1s-.1.11-.26.2a12.51,12.51,0,0,1-8.93,1.22c-.17-.05-.31-.1-.3-.12Z" transform="translate(-4.03 -5.53)"/><path class="ab380e7f-aa0d-4cf6-a160-a52705db1361" d="M51.12,60s.11-.06.24-.07a10,10,0,0,0,6.17-3.11c.09-.11.18-.18.2-.16l.88.82s0,.13-.16.25a11.24,11.24,0,0,1-6.92,3.49c-.15,0-.28,0-.28,0C51.21,60.84,51.16,60.44,51.12,60Z" transform="translate(-4.03 -5.53)"/><path class="b5193920-20f5-41eb-bd23-1636f1773265" d="M56.23,57.81s.07-.11.18-.2a9.92,9.92,0,0,0,3.51-7.35,1.11,1.11,0,0,1,.06-.35l1.13.05a.89.89,0,0,1,0,.4A11.12,11.12,0,0,1,57.2,58.6c-.13.1-.25.17-.26.15Z" transform="translate(-4.03 -5.53)"/><path class="a9ab59bc-874d-4933-9fe8-a1809f844415" d="M62,50a2.87,2.87,0,0,0-.06.58A11.54,11.54,0,0,1,54.76,61a1.27,1.27,0,0,0-.39.2l.36,1a1.7,1.7,0,0,0,.45-.14c4.1-1.68,7.38-5.45,7.77-11.33A2.23,2.23,0,0,0,63,50Z" transform="translate(-4.03 -5.53)"/><path class="f4491551-d757-4478-8785-517996e89ec5" d="M59.22,57.19s-.09.07-.18.18a11.17,11.17,0,0,1-5.64,3.7c-.13,0-.23.08-.22.1.09.35.19.71.29,1.06,0,0,.12,0,.26,0a12.17,12.17,0,0,0,6.19-4.06c.1-.12.16-.23.14-.24Z" transform="translate(-4.03 -5.53)"/><path class="bfdcf528-ad9a-406e-afef-d8c278630107" d="M57.62,58.55a1.12,1.12,0,0,0-.26.18,11.66,11.66,0,0,1-8.3,2.54.68.68,0,0,0-.31,0c0,.25-.06.51-.08.76a1.28,1.28,0,0,0,.33.06,12.5,12.5,0,0,0,8.87-2.71,1.26,1.26,0,0,0,.25-.25Z" transform="translate(-4.03 -5.53)"/><path class="aab9ce9a-084a-40b0-b791-cd0d8d602948" d="M52.91,60.2s-.13,0-.29,0a11.25,11.25,0,0,1-8-1.09c-.14-.08-.27-.14-.28-.12l-.58,1s.1.11.26.2a12.5,12.5,0,0,0,8.93,1.22c.17-.05.31-.1.3-.12Z" transform="translate(-4.03 -5.53)"/><path class="ab380e7f-aa0d-4cf6-a160-a52705db1361" d="M48.88,60s-.11-.06-.24-.07a10,10,0,0,1-6.17-3.11c-.09-.11-.18-.18-.2-.16l-.88.82s0,.13.16.25a11.24,11.24,0,0,0,6.92,3.49c.15,0,.28,0,.28,0C48.79,60.84,48.84,60.44,48.88,60Z" transform="translate(-4.03 -5.53)"/><path class="b5193920-20f5-41eb-bd23-1636f1773265" d="M43.77,57.81s-.07-.11-.18-.2a9.92,9.92,0,0,1-3.51-7.35,1.11,1.11,0,0,0-.06-.35L38.89,50a.89.89,0,0,0,0,.4,11.09,11.09,0,0,0,3.94,8.24c.12.1.24.17.25.15Z" transform="translate(-4.03 -5.53)"/><path class="a9ab59bc-874d-4933-9fe8-a1809f844415" d="M38,48.85a3.34,3.34,0,0,0,.07-.58,11.54,11.54,0,0,1,7.14-10.41,1.39,1.39,0,0,0,.39-.19l-.36-1a1.35,1.35,0,0,0-.45.14c-4.1,1.68-7.38,5.45-7.77,11.33a2.23,2.23,0,0,0,0,.63Z" transform="translate(-4.03 -5.53)"/><path class="f4491551-d757-4478-8785-517996e89ec5" d="M40.78,41.66s.09-.07.18-.18a11.17,11.17,0,0,1,5.64-3.7c.13,0,.23-.08.22-.1-.09-.35-.19-.71-.29-1.06,0,0-.12,0-.26,0a12.17,12.17,0,0,0-6.19,4.06c-.1.12-.16.23-.14.24Z" transform="translate(-4.03 -5.53)"/><path class="bfdcf528-ad9a-406e-afef-d8c278630107" d="M42.38,40.3a1.12,1.12,0,0,0,.26-.18,11.62,11.62,0,0,1,8.3-2.54.9.9,0,0,0,.31,0c0-.25.06-.51.08-.76a1.28,1.28,0,0,0-.33-.06,12.45,12.45,0,0,0-8.87,2.71c-.15.12-.25.23-.24.25C42.05,39.91,42.21,40.11,42.38,40.3Z" transform="translate(-4.03 -5.53)"/><path class="aab9ce9a-084a-40b0-b791-cd0d8d602948" d="M47.09,38.65s.13,0,.29,0a11.25,11.25,0,0,1,8,1.09c.14.08.27.14.28.12l.58-1s-.1-.11-.26-.2a12.45,12.45,0,0,0-8.93-1.22c-.17,0-.31.1-.3.12Z" transform="translate(-4.03 -5.53)"/><path class="ab380e7f-aa0d-4cf6-a160-a52705db1361" d="M51.12,38.81s.11.06.24.07A10,10,0,0,1,57.53,42c.09.1.18.18.2.16l.88-.82s0-.13-.16-.25a11.24,11.24,0,0,0-6.92-3.49c-.15,0-.28,0-.28,0C51.21,38,51.17,38.41,51.12,38.81Z" transform="translate(-4.03 -5.53)"/><path class="b5193920-20f5-41eb-bd23-1636f1773265" d="M56.23,41s.07.11.18.2a9.92,9.92,0,0,1,3.51,7.35,1.11,1.11,0,0,0,.06.35l1.13,0a.89.89,0,0,0,0-.4,11.1,11.1,0,0,0-3.93-8.24c-.13-.1-.25-.17-.26-.15Z" transform="translate(-4.03 -5.53)"/><path class="a9ab59bc-874d-4933-9fe8-a1809f844415" d="M62,48.85a2.87,2.87,0,0,1-.06-.58,11.57,11.57,0,0,0-7.15-10.41,1.39,1.39,0,0,1-.39-.19l.36-1a1.35,1.35,0,0,1,.45.14c4.1,1.68,7.38,5.45,7.77,11.33a2.23,2.23,0,0,1,0,.63Z" transform="translate(-4.03 -5.53)"/><path class="f4491551-d757-4478-8785-517996e89ec5" d="M59.22,41.66s-.09-.07-.18-.18a11.17,11.17,0,0,0-5.64-3.7c-.13,0-.23-.08-.22-.1.09-.35.19-.71.29-1.06,0,0,.12,0,.26,0a12.17,12.17,0,0,1,6.19,4.06c.1.12.16.23.14.24Z" transform="translate(-4.03 -5.53)"/><path class="bfdcf528-ad9a-406e-afef-d8c278630107" d="M57.62,40.3a1.12,1.12,0,0,1-.26-.18,11.62,11.62,0,0,0-8.3-2.54.9.9,0,0,1-.31,0c0-.25-.06-.51-.08-.76a1.28,1.28,0,0,1,.33-.06,12.45,12.45,0,0,1,8.87,2.71,1,1,0,0,1,.25.25Z" transform="translate(-4.03 -5.53)"/><path class="aab9ce9a-084a-40b0-b791-cd0d8d602948" d="M52.91,38.65s-.13,0-.29,0a11.25,11.25,0,0,0-8,1.09c-.14.08-.27.14-.28.12l-.58-1s.1-.11.26-.2a12.46,12.46,0,0,1,8.93-1.22c.17,0,.31.1.3.12Z" transform="translate(-4.03 -5.53)"/><path class="ab380e7f-aa0d-4cf6-a160-a52705db1361" d="M48.88,38.81s-.11.06-.24.07A10,10,0,0,0,42.47,42c-.09.1-.18.18-.2.16l-.88-.82s0-.13.16-.25a11.24,11.24,0,0,1,6.92-3.49c.15,0,.28,0,.28,0C48.79,38,48.84,38.41,48.88,38.81Z" transform="translate(-4.03 -5.53)"/><path class="b5193920-20f5-41eb-bd23-1636f1773265" d="M43.77,41s-.07.11-.18.2a9.92,9.92,0,0,0-3.51,7.35,1.11,1.11,0,0,1-.06.35l-1.13,0a.89.89,0,0,1,0-.4,11.08,11.08,0,0,1,3.94-8.24c.12-.1.24-.17.25-.15Z" transform="translate(-4.03 -5.53)"/></svg>