<svg id="a966fb24-ca33-4912-bac3-9f0f4127b15b" data-name="Layer 1" xmlns="http://www.w3.org/2000/svg" xmlns:xlink="http://www.w3.org/1999/xlink" viewBox="0 0 1334.7 578.53"><defs><style>.a09fbd51-539d-450e-b043-23920023576e,.a0cb627e-5aa5-4ecb-a64a-66b0c0668dd2,.a15631dd-b9c9-4f21-86b9-208bd60b4717,.a2c508f3-2054-4c80-adef-54c94aa47234,.a33c3ed2-3e9c-41f6-abcc-13078ffc9a25,.a388fe9a-cb8a-46b7-9915-ca00cc41a9e8,.a428e2e9-f705-4ceb-a9a6-2d5183f61c6c,.a558d6d7-8fa9-4b6c-86c4-d2f11557b3aa,.a5ee7445-3a35-416c-a19f-062adbc7eb06,.a6188409-c91c-4f25-baf9-681590ec4132,.a762bb89-ce1e-4311-a296-cd9b35444fc3,.a76d4a63-f19e-4be7-bf00-96be1e623072,.a771d294-dac2-4c27-b2e1-a5a5aa038978,.a916fbba-f459-4536-a7b6-33ee708a91b1,.ab3ace38-51dc-4e1d-8428-6a6752e71f0a,.ab71ba82-abb8-4d8e-9a55-36c4ff535372,.aba53e7b-3eb6-409b-a83b-4ef3deefc09d,.acccbbd6-39d2-4c47-a19b-903c797bdf87,.acd0000f-126c-4d45-a471-b6df9e94ff7f,.af132598-1b6c-4a5d-a380-78c491bb2701,.af875ba8-ca2d-4f0a-88a5-a6047a9ec671,.b180205b-171a-4c92-8d27-46b6f01c7d59,.b21a4d5b-5f8b-40a5-8134-b4e3a52fda9f,.b2c3e24e-6639-48f4-8854-6513f365f243,.b358796b-61fb-4899-9d78-df5a14760754,.b5b7376a-582b-47f9-9076-336ebbe92f9b,.b6432b75-66d9-4fcf-b720-b97b6d90be4d,.b6b4fa2c-bf35-4ba6-bcaf-8fa40701e325,.b74a6f3f-049b-4b9b-b5de-0494c4362c86,.b7d05f48-0f85-4cd0-9541-c5b84f9276a6,.b8c10313-630e-4527-8b8e-0b665d078ac8,.ba97e5a9-91ea-4534-bde8-901cbfb8e296,.bb2b0189-4647-491a-bbb7-6ca7ee0beaed,.bb4bc068-913d-42ea-a8c1-157e20e11683,.bbc2b9bb-8a2c-4045-89a9-6efe915d0fc9,.bbe8ad29-ebca-41ea-8169-d0243398926a,.bc31d1b9-1d87-42d5-a00a-d121579b5a1f,.bc9edddc-0a35-4bd1-acd7-0f6384c2eddb,.bcb0338b-1b1d-4e16-8739-4b2d34128d10,.bd7748f8-786e-4641-b8be-04bc6fd5dcdf,.bdb973d4-9c94-4b53-8abf-c4153d280f06,.bddae2da-1e55-497c-a45c-8f448be9feba,.be0d2bdc-86c8-47cf-a5b2-238409b24830,.bfba1da9-9961-4aed-95ca-88c495492cb3,.e1a3c113-8c85-43eb-8645-8e92470c15e8,.e1abe6d2-60a0-4a61-89dc-49f2a7c53625,.e2681f2e-9134-40f5-9942-2f62e1802716,.e2b255ba-4c75-4015-9502-7cd2af09ebe1,.e328c32b-0ac4-4320-a667-7bd452650e81,.e4dff452-3694-44a9-b650-fc3db5696c22,.e4eee975-85ed-434e-b113-6712fc3a0207,.e691a9ef-ef2e-4f18-9c72-0f2082a6c9ce,.e79a2d1a-c2c3-46bc-b987-951e2af53823,.e7e4a300-ca1c-4637-8a61-ea3d90721ca4,.ea078a52-51ca-45f5-a820-ea2a23856010,.f15c1cb7-faab-4a69-8aca-f06ee0f54f92,.f3128c4f-f516-4a18-a162-5540980b461d,.f8dbcbca-281a-496a-9a59-fe0084350c49,.f9d59ef1-7de4-415d-9029-1e3529788a2b,.ff1b9f59-3727-4a12-9456-31716b492b6a,.ffb3d589-4ac6-4d84-b4e5-1e1f789037c4{fill:none;stroke-miterlimit:10;}.a762bb89-ce1e-4311-a296-cd9b35444fc3{stroke:url(#ad24f4b1-19a6-4ca1-b97e-75cb14d3fc9a);}.e79a2d1a-c2c3-46bc-b987-951e2af53823{stroke:url(#f022497d-29de-4cce-a4af-7ce8fece726f);}.bc31d1b9-1d87-42d5-a00a-d121579b5a1f{stroke:url(#bc2ec1ea-8d2a-49cd-80b6-d2d219117adc);}.b6432b75-66d9-4fcf-b720-b97b6d90be4d{stroke:url(#f0a1bfcb-bd95-4fb9-8efb-b409feeeb38c);}.b8c10313-630e-4527-8b8e-0b665d078ac8{stroke:url(#ab170d53-a899-4d9c-8af6-272704e9974a);}.bbe8ad29-ebca-41ea-8169-d0243398926a{stroke:url(#ff4a3d81-1841-4613-aec5-e53be5565b2a);}.f3128c4f-f516-4a18-a162-5540980b461d{stroke:url(#bc454a70-53b8-4cb5-b791-efca299e1db8);}.b7d05f48-0f85-4cd0-9541-c5b84f9276a6{stroke:url(#a5dfb7e7-e0c2-4030-a69a-4a825a9526a5);}.a15631dd-b9c9-4f21-86b9-208bd60b4717{stroke:url(#e439da3a-7f71-438a-88db-014095d66272);}.bb4bc068-913d-42ea-a8c1-157e20e11683{stroke:url(#f6687c3e-4a23-418f-b6ed-b5a62bcd031c);}.af875ba8-ca2d-4f0a-88a5-a6047a9ec671{stroke:url(#fc69b502-2a8d-481b-ae5f-b3c2f2bc3189);}.a428e2e9-f705-4ceb-a9a6-2d5183f61c6c{stroke:url(#e2e620a7-c115-4799-9807-0c1f592270f1);}.bfba1da9-9961-4aed-95ca-88c495492cb3{stroke:url(#f24e50ff-104b-4102-8bf0-429af1cb88a9);}.a2c508f3-2054-4c80-adef-54c94aa47234{stroke:url(#fa559618-f948-48ef-a45b-d940ae44bb88);}.a76d4a63-f19e-4be7-bf00-96be1e623072{stroke:url(#b6f8c6ba-5a98-462f-8dd0-7da758cfef6c);}.e4eee975-85ed-434e-b113-6712fc3a0207{stroke:url(#a01b5b30-b6c9-496f-8091-bb3681b92650);}.acccbbd6-39d2-4c47-a19b-903c797bdf87{stroke:url(#b40514f1-b745-45ac-99d0-c8623c50f3b4);}.a33c3ed2-3e9c-41f6-abcc-13078ffc9a25{stroke:url(#ff30ab50-93c5-48db-a07e-4c1769912fdc);}.e2b255ba-4c75-4015-9502-7cd2af09ebe1{stroke:url(#b0463bfb-3f5c-4a0e-bd2e-3825e3682eca);}.ba97e5a9-91ea-4534-bde8-901cbfb8e296{stroke:url(#a0356c11-49b7-4800-955c-91e86cc91e16);}.f8dbcbca-281a-496a-9a59-fe0084350c49{stroke:url(#bb6cedea-776c-4526-ac79-a3529ad9c4c9);}.a09fbd51-539d-450e-b043-23920023576e{stroke:url(#e9611452-a297-4627-bede-f502d82b821b);}.e328c32b-0ac4-4320-a667-7bd452650e81{stroke:url(#bdb69550-a21e-4690-ae30-8f8be21d01f5);}.a916fbba-f459-4536-a7b6-33ee708a91b1{stroke:url(#b388f27d-ba73-4e99-bae0-368ece4fb8b7);}.ff1b9f59-3727-4a12-9456-31716b492b6a{stroke:url(#aeaf0ad9-6044-419b-883b-5c74fabf3248);}.aba53e7b-3eb6-409b-a83b-4ef3deefc09d{stroke:url(#a966650b-dd6f-48bb-a3d5-00084b06ecf7);}.b358796b-61fb-4899-9d78-df5a14760754{stroke:url(#f53902df-21e5-46ce-960c-c733e9c24b0c);}.bd7748f8-786e-4641-b8be-04bc6fd5dcdf{stroke:url(#f146ea9a-074e-4b82-8bc4-6f9af537cf54);}.bbc2b9bb-8a2c-4045-89a9-6efe915d0fc9{stroke:url(#a012a412-fda1-45a0-9a10-a5f4bbbaf1bf);}.b5b7376a-582b-47f9-9076-336ebbe92f9b{stroke:url(#fe15ecb8-3418-4f43-b124-a593c5bdd3f1);}.be0d2bdc-86c8-47cf-a5b2-238409b24830{stroke:url(#f5c3fb91-8693-4ae6-a9ba-671823f07400);}.a5ee7445-3a35-416c-a19f-062adbc7eb06{stroke:url(#a12f4dc3-8b77-443e-a337-49227c525320);}.e2681f2e-9134-40f5-9942-2f62e1802716{stroke:url(#ad94d15e-b8f5-4256-a250-141316bbc8a5);}.e4dff452-3694-44a9-b650-fc3db5696c22{stroke:url(#bd3c6deb-4741-4873-8b4d-e5d02316a272);}.a6188409-c91c-4f25-baf9-681590ec4132{stroke:url(#a553fbc0-7add-4898-b17a-cbf95db16349);}.a558d6d7-8fa9-4b6c-86c4-d2f11557b3aa{stroke:url(#bc614d9d-1664-4ea3-8578-a40387a18ba8);}.bc9edddc-0a35-4bd1-acd7-0f6384c2eddb{stroke:url(#a6d8ce39-433e-4704-8c1f-5fa71a70e28a);}.bddae2da-1e55-497c-a45c-8f448be9feba{stroke:url(#f66393fa-a48e-4afe-9600-51402f205bff);}.ab3ace38-51dc-4e1d-8428-6a6752e71f0a{stroke:url(#bda8fc2e-ee15-486a-b85c-b66aa687516d);}.b6b4fa2c-bf35-4ba6-bcaf-8fa40701e325{stroke:url(#be405129-f8f4-4af3-84cd-83c619b0a9e7);}.b74a6f3f-049b-4b9b-b5de-0494c4362c86{stroke:url(#ac700935-d1b4-4cef-a145-a6d5d8c71901);}.f9d59ef1-7de4-415d-9029-1e3529788a2b{stroke:url(#f2479215-6379-446a-9b0e-8856c4bf2691);}.ab71ba82-abb8-4d8e-9a55-36c4ff535372{stroke:url(#e64fac04-a543-4eab-a41e-e26a6f0976f9);}.af132598-1b6c-4a5d-a380-78c491bb2701{stroke:url(#beee10db-c2b4-4d37-b5b6-1c63c6442207);}.e7e4a300-ca1c-4637-8a61-ea3d90721ca4{stroke:url(#f5a8a04d-a9ee-40a9-b930-b9333606ca0c);}.a0cb627e-5aa5-4ecb-a64a-66b0c0668dd2{stroke:url(#bd31236b-f962-472b-a386-31c11892d0cf);}.f15c1cb7-faab-4a69-8aca-f06ee0f54f92{stroke:url(#acf91fe3-411a-4ad2-8cdc-e470bf263f0e);}.e1abe6d2-60a0-4a61-89dc-49f2a7c53625{stroke:url(#bf3c8043-be47-493d-86b9-caa2a78a9bf3);}.b21a4d5b-5f8b-40a5-8134-b4e3a52fda9f{stroke:url(#b1f7d7e8-3360-4c18-97bd-b0f7d39b2350);}.a388fe9a-cb8a-46b7-9915-ca00cc41a9e8{stroke:url(#e371e6fe-84aa-4fa9-8d32-bf4fa2e45eeb);}.b180205b-171a-4c92-8d27-46b6f01c7d59{stroke:url(#a30b8fe0-bd04-4983-bf6f-5a8f42491c84);}.ea078a52-51ca-45f5-a820-ea2a23856010{stroke:url(#a1bc5074-c191-4973-975f-bbac3954d0a7);}.bb2b0189-4647-491a-bbb7-6ca7ee0beaed{stroke:url(#f7a1fbbc-5efc-42d9-803d-0b7f1f4fb51f);}.acd0000f-126c-4d45-a471-b6df9e94ff7f{stroke:url(#a69d3513-c314-41ec-822a-e4893b93e9ee);}.bcb0338b-1b1d-4e16-8739-4b2d34128d10{stroke:url(#fce5c3f7-34a7-4626-931d-5206f725bcf1);}.e1a3c113-8c85-43eb-8645-8e92470c15e8{stroke:url(#b318499e-cd3a-4373-85ee-de91b2c44e1d);}.b2c3e24e-6639-48f4-8854-6513f365f243{stroke:url(#b488533a-29ff-4785-bd4c-3215fc55aac2);}.bdb973d4-9c94-4b53-8abf-c4153d280f06{stroke:url(#fb81d345-3541-4385-92a0-42d598956afd);}.a771d294-dac2-4c27-b2e1-a5a5aa038978{stroke:url(#f9088fc3-53f3-4849-bc04-12b0ff9ccd85);}.e691a9ef-ef2e-4f18-9c72-0f2082a6c9ce{stroke:url(#a3d1c506-f8b9-48d9-a00d-8e41b757c659);}.ffb3d589-4ac6-4d84-b4e5-1e1f789037c4{stroke:url(#be3c05ba-fb20-4b96-8f5e-3349af256cdc);}</style><radialGradient id="ad24f4b1-19a6-4ca1-b97e-75cb14d3fc9a" cx="795.43" cy="1041.15" r="484.14" gradientTransform="translate(0 130.15) scale(1 0.87)" gradientUnits="userSpaceOnUse"><stop offset="0" stop-color="#022563"/><stop offset="1" stop-color="#00c5d4"/></radialGradient><radialGradient id="f022497d-29de-4cce-a4af-7ce8fece726f" cx="794.35" cy="1038.14" r="483.14" gradientTransform="translate(0 129.77) scale(1 0.87)" xlink:href="#ad24f4b1-19a6-4ca1-b97e-75cb14d3fc9a"/><radialGradient id="bc2ec1ea-8d2a-49cd-80b6-d2d219117adc" cx="792.07" cy="1042.21" r="481" gradientTransform="translate(0 130.28) scale(1 0.87)" xlink:href="#ad24f4b1-19a6-4ca1-b97e-75cb14d3fc9a"/><radialGradient id="f0a1bfcb-bd95-4fb9-8efb-b409feeeb38c" cx="788.83" cy="1052" r="477.97" gradientTransform="translate(0 131.51) scale(1 0.87)" xlink:href="#ad24f4b1-19a6-4ca1-b97e-75cb14d3fc9a"/><radialGradient id="ab170d53-a899-4d9c-8af6-272704e9974a" cx="784.87" cy="1066.08" r="474.27" gradientTransform="translate(0 133.26) scale(1 0.87)" xlink:href="#ad24f4b1-19a6-4ca1-b97e-75cb14d3fc9a"/><radialGradient id="ff4a3d81-1841-4613-aec5-e53be5565b2a" cx="780.41" cy="1081.46" r="470.42" gradientTransform="translate(0 135.19) scale(1 0.87)" xlink:href="#ad24f4b1-19a6-4ca1-b97e-75cb14d3fc9a"/><radialGradient id="bc454a70-53b8-4cb5-b791-efca299e1db8" cx="775.69" cy="1075.77" r="470.03" gradientTransform="translate(0 134.48) scale(1 0.87)" xlink:href="#ad24f4b1-19a6-4ca1-b97e-75cb14d3fc9a"/><radialGradient id="a5dfb7e7-e0c2-4030-a69a-4a825a9526a5" cx="770.92" cy="1067.25" r="470.07" gradientTransform="translate(0 133.41) scale(1 0.87)" xlink:href="#ad24f4b1-19a6-4ca1-b97e-75cb14d3fc9a"/><radialGradient id="e439da3a-7f71-438a-88db-014095d66272" cx="766.36" cy="1059.01" r="470.46" gradientTransform="translate(0 132.38) scale(1 0.87)" xlink:href="#ad24f4b1-19a6-4ca1-b97e-75cb14d3fc9a"/><radialGradient id="f6687c3e-4a23-418f-b6ed-b5a62bcd031c" cx="762.25" cy="1050.45" r="471.09" gradientTransform="translate(0 131.31) scale(1 0.87)" xlink:href="#ad24f4b1-19a6-4ca1-b97e-75cb14d3fc9a"/><radialGradient id="fc69b502-2a8d-481b-ae5f-b3c2f2bc3189" cx="758.83" cy="1042.3" r="472" gradientTransform="translate(0 130.29) scale(1 0.87)" xlink:href="#ad24f4b1-19a6-4ca1-b97e-75cb14d3fc9a"/><radialGradient id="e2e620a7-c115-4799-9807-0c1f592270f1" cx="756.34" cy="1033.67" r="472.83" gradientTransform="translate(0 129.21) scale(1 0.87)" xlink:href="#ad24f4b1-19a6-4ca1-b97e-75cb14d3fc9a"/><radialGradient id="f24e50ff-104b-4102-8bf0-429af1cb88a9" cx="755.01" cy="1024.68" r="473.43" gradientTransform="translate(0 128.09) scale(1 0.87)" xlink:href="#ad24f4b1-19a6-4ca1-b97e-75cb14d3fc9a"/><radialGradient id="fa559618-f948-48ef-a45b-d940ae44bb88" cx="754.87" cy="1014.95" r="473.48" gradientTransform="translate(0 126.87) scale(1 0.87)" xlink:href="#ad24f4b1-19a6-4ca1-b97e-75cb14d3fc9a"/><radialGradient id="b6f8c6ba-5a98-462f-8dd0-7da758cfef6c" cx="754.88" cy="1004.02" r="472.82" gradientTransform="translate(0 125.51) scale(1 0.87)" xlink:href="#ad24f4b1-19a6-4ca1-b97e-75cb14d3fc9a"/><radialGradient id="a01b5b30-b6c9-496f-8091-bb3681b92650" cx="754.88" cy="992.14" r="471.65" gradientTransform="translate(0 124.02) scale(1 0.87)" xlink:href="#ad24f4b1-19a6-4ca1-b97e-75cb14d3fc9a"/><radialGradient id="b40514f1-b745-45ac-99d0-c8623c50f3b4" cx="754.88" cy="979.42" r="470.07" gradientTransform="translate(0 122.43) scale(1 0.87)" xlink:href="#ad24f4b1-19a6-4ca1-b97e-75cb14d3fc9a"/><radialGradient id="ff30ab50-93c5-48db-a07e-4c1769912fdc" cx="754.88" cy="966.01" r="468.16" gradientTransform="translate(0 120.76) scale(1 0.87)" xlink:href="#ad24f4b1-19a6-4ca1-b97e-75cb14d3fc9a"/><radialGradient id="b0463bfb-3f5c-4a0e-bd2e-3825e3682eca" cx="754.87" cy="952" r="466.02" gradientTransform="translate(0 119) scale(1 0.87)" xlink:href="#ad24f4b1-19a6-4ca1-b97e-75cb14d3fc9a"/><radialGradient id="a0356c11-49b7-4800-955c-91e86cc91e16" cx="754.87" cy="937.54" r="463.74" gradientTransform="translate(0 117.2) scale(1 0.87)" xlink:href="#ad24f4b1-19a6-4ca1-b97e-75cb14d3fc9a"/><radialGradient id="bb6cedea-776c-4526-ac79-a3529ad9c4c9" cx="754.86" cy="922.75" r="461.41" gradientTransform="translate(0 115.35) scale(1 0.87)" xlink:href="#ad24f4b1-19a6-4ca1-b97e-75cb14d3fc9a"/><radialGradient id="e9611452-a297-4627-bede-f502d82b821b" cx="754.85" cy="907.89" r="459.14" gradientTransform="translate(0 113.49) scale(1 0.87)" xlink:href="#ad24f4b1-19a6-4ca1-b97e-75cb14d3fc9a"/><radialGradient id="bdb69550-a21e-4690-ae30-8f8be21d01f5" cx="754.85" cy="892.91" r="456.94" gradientTransform="translate(0 111.62) scale(1 0.87)" xlink:href="#ad24f4b1-19a6-4ca1-b97e-75cb14d3fc9a"/><radialGradient id="b388f27d-ba73-4e99-bae0-368ece4fb8b7" cx="754.84" cy="888" r="456.53" gradientTransform="translate(0 111) scale(1 0.87)" xlink:href="#ad24f4b1-19a6-4ca1-b97e-75cb14d3fc9a"/><radialGradient id="aeaf0ad9-6044-419b-883b-5c74fabf3248" cx="754.85" cy="895.01" r="458.2" gradientTransform="translate(0 111.88) scale(1 0.87)" xlink:href="#ad24f4b1-19a6-4ca1-b97e-75cb14d3fc9a"/><radialGradient id="a966650b-dd6f-48bb-a3d5-00084b06ecf7" cx="754.85" cy="901.6" r="459.91" gradientTransform="translate(0 112.7) scale(1 0.87)" xlink:href="#ad24f4b1-19a6-4ca1-b97e-75cb14d3fc9a"/><radialGradient id="f53902df-21e5-46ce-960c-c733e9c24b0c" cx="754.86" cy="907.43" r="461.59" gradientTransform="translate(0 113.43) scale(1 0.87)" xlink:href="#ad24f4b1-19a6-4ca1-b97e-75cb14d3fc9a"/><radialGradient id="f146ea9a-074e-4b82-8bc4-6f9af537cf54" cx="754.86" cy="912.26" r="463.21" gradientTransform="translate(0 114.04) scale(1 0.87)" xlink:href="#ad24f4b1-19a6-4ca1-b97e-75cb14d3fc9a"/><radialGradient id="a012a412-fda1-45a0-9a10-a5f4bbbaf1bf" cx="754.86" cy="915.63" r="464.68" gradientTransform="translate(0 114.46) scale(1 0.87)" xlink:href="#ad24f4b1-19a6-4ca1-b97e-75cb14d3fc9a"/><radialGradient id="fe15ecb8-3418-4f43-b124-a593c5bdd3f1" cx="754.86" cy="917.17" r="465.93" gradientTransform="translate(0 114.65) scale(1 0.87)" xlink:href="#ad24f4b1-19a6-4ca1-b97e-75cb14d3fc9a"/><radialGradient id="f5c3fb91-8693-4ae6-a9ba-671823f07400" cx="754.86" cy="916.61" r="466.88" gradientTransform="translate(0 114.58) scale(1 0.87)" xlink:href="#ad24f4b1-19a6-4ca1-b97e-75cb14d3fc9a"/><radialGradient id="a12f4dc3-8b77-443e-a337-49227c525320" cx="754.85" cy="913.6" r="467.49" gradientTransform="translate(0 114.2) scale(1 0.87)" xlink:href="#ad24f4b1-19a6-4ca1-b97e-75cb14d3fc9a"/><radialGradient id="ad94d15e-b8f5-4256-a250-141316bbc8a5" cx="754.86" cy="907.83" r="467.67" gradientTransform="translate(0 113.48) scale(1 0.87)" xlink:href="#ad24f4b1-19a6-4ca1-b97e-75cb14d3fc9a"/><radialGradient id="bd3c6deb-4741-4873-8b4d-e5d02316a272" cx="755.02" cy="900.98" r="467.49" gradientTransform="translate(0 112.63) scale(1 0.87)" xlink:href="#ad24f4b1-19a6-4ca1-b97e-75cb14d3fc9a"/><radialGradient id="a553fbc0-7add-4898-b17a-cbf95db16349" cx="755.36" cy="894.42" r="467.12" gradientTransform="translate(0 111.81) scale(1 0.87)" xlink:href="#ad24f4b1-19a6-4ca1-b97e-75cb14d3fc9a"/><radialGradient id="bc614d9d-1664-4ea3-8578-a40387a18ba8" cx="755.87" cy="888.28" r="466.63" gradientTransform="translate(0 111.04) scale(1 0.87)" xlink:href="#ad24f4b1-19a6-4ca1-b97e-75cb14d3fc9a"/><radialGradient id="a6d8ce39-433e-4704-8c1f-5fa71a70e28a" cx="756.54" cy="882.32" r="465.98" gradientTransform="translate(0 110.29) scale(1 0.87)" xlink:href="#ad24f4b1-19a6-4ca1-b97e-75cb14d3fc9a"/><radialGradient id="f66393fa-a48e-4afe-9600-51402f205bff" cx="757.37" cy="876.48" r="465.21" gradientTransform="translate(0 109.56) scale(1 0.87)" xlink:href="#ad24f4b1-19a6-4ca1-b97e-75cb14d3fc9a"/><radialGradient id="bda8fc2e-ee15-486a-b85c-b66aa687516d" cx="758.33" cy="871.25" r="464.44" gradientTransform="translate(0 108.91) scale(1 0.87)" xlink:href="#ad24f4b1-19a6-4ca1-b97e-75cb14d3fc9a"/><radialGradient id="be405129-f8f4-4af3-84cd-83c619b0a9e7" cx="759.43" cy="866.12" r="463.62" gradientTransform="translate(0 108.27) scale(1 0.87)" xlink:href="#ad24f4b1-19a6-4ca1-b97e-75cb14d3fc9a"/><radialGradient id="ac700935-d1b4-4cef-a145-a6d5d8c71901" cx="760.65" cy="861.26" r="462.82" gradientTransform="translate(0 107.66) scale(1 0.87)" xlink:href="#ad24f4b1-19a6-4ca1-b97e-75cb14d3fc9a"/><radialGradient id="f2479215-6379-446a-9b0e-8856c4bf2691" cx="761.98" cy="856.66" r="462.07" gradientTransform="translate(0 107.09) scale(1 0.87)" xlink:href="#ad24f4b1-19a6-4ca1-b97e-75cb14d3fc9a"/><radialGradient id="e64fac04-a543-4eab-a41e-e26a6f0976f9" cx="763.41" cy="852.15" r="461.4" gradientTransform="translate(0 106.52) scale(1 0.87)" xlink:href="#ad24f4b1-19a6-4ca1-b97e-75cb14d3fc9a"/><radialGradient id="beee10db-c2b4-4d37-b5b6-1c63c6442207" cx="764.95" cy="848.11" r="460.84" gradientTransform="translate(0 106.02) scale(1 0.87)" xlink:href="#ad24f4b1-19a6-4ca1-b97e-75cb14d3fc9a"/><radialGradient id="f5a8a04d-a9ee-40a9-b930-b9333606ca0c" cx="766.57" cy="844.33" r="460.43" gradientTransform="translate(0 105.55) scale(1 0.87)" xlink:href="#ad24f4b1-19a6-4ca1-b97e-75cb14d3fc9a"/><radialGradient id="bd31236b-f962-472b-a386-31c11892d0cf" cx="768.26" cy="843.26" r="460.47" gradientTransform="translate(0 105.41) scale(1 0.87)" xlink:href="#ad24f4b1-19a6-4ca1-b97e-75cb14d3fc9a"/><radialGradient id="acf91fe3-411a-4ad2-8cdc-e470bf263f0e" cx="770.01" cy="851.75" r="461.81" gradientTransform="translate(0 106.47) scale(1 0.87)" xlink:href="#ad24f4b1-19a6-4ca1-b97e-75cb14d3fc9a"/><radialGradient id="bf3c8043-be47-493d-86b9-caa2a78a9bf3" cx="771.82" cy="860.5" r="463.19" gradientTransform="translate(0 107.57) scale(1 0.87)" xlink:href="#ad24f4b1-19a6-4ca1-b97e-75cb14d3fc9a"/><radialGradient id="b1f7d7e8-3360-4c18-97bd-b0f7d39b2350" cx="773.67" cy="869.41" r="464.59" gradientTransform="translate(0 108.68) scale(1 0.87)" xlink:href="#ad24f4b1-19a6-4ca1-b97e-75cb14d3fc9a"/><radialGradient id="e371e6fe-84aa-4fa9-8d32-bf4fa2e45eeb" cx="775.55" cy="878.3" r="466.01" gradientTransform="translate(0 109.79) scale(1 0.87)" xlink:href="#ad24f4b1-19a6-4ca1-b97e-75cb14d3fc9a"/><radialGradient id="a30b8fe0-bd04-4983-bf6f-5a8f42491c84" cx="777.45" cy="887.08" r="467.45" gradientTransform="translate(0 110.89) scale(1 0.87)" xlink:href="#ad24f4b1-19a6-4ca1-b97e-75cb14d3fc9a"/><radialGradient id="a1bc5074-c191-4973-975f-bbac3954d0a7" cx="779.36" cy="895.6" r="468.89" gradientTransform="translate(0 111.95) scale(1 0.87)" xlink:href="#ad24f4b1-19a6-4ca1-b97e-75cb14d3fc9a"/><radialGradient id="f7a1fbbc-5efc-42d9-803d-0b7f1f4fb51f" cx="781.27" cy="903.7" r="470.34" gradientTransform="translate(0 112.97) scale(1 0.87)" xlink:href="#ad24f4b1-19a6-4ca1-b97e-75cb14d3fc9a"/><radialGradient id="a69d3513-c314-41ec-822a-e4893b93e9ee" cx="783.18" cy="911.34" r="471.77" gradientTransform="translate(0 113.92) scale(1 0.87)" xlink:href="#ad24f4b1-19a6-4ca1-b97e-75cb14d3fc9a"/><radialGradient id="fce5c3f7-34a7-4626-931d-5206f725bcf1" cx="785.06" cy="918.38" r="473.19" gradientTransform="translate(0 114.8) scale(1 0.87)" xlink:href="#ad24f4b1-19a6-4ca1-b97e-75cb14d3fc9a"/><radialGradient id="b318499e-cd3a-4373-85ee-de91b2c44e1d" cx="786.91" cy="925.41" r="474.66" gradientTransform="translate(0 115.68) scale(1 0.87)" xlink:href="#ad24f4b1-19a6-4ca1-b97e-75cb14d3fc9a"/><radialGradient id="b488533a-29ff-4785-bd4c-3215fc55aac2" cx="788.73" cy="932.12" r="476.15" gradientTransform="translate(0 116.52) scale(1 0.87)" xlink:href="#ad24f4b1-19a6-4ca1-b97e-75cb14d3fc9a"/><radialGradient id="fb81d345-3541-4385-92a0-42d598956afd" cx="790.49" cy="937.74" r="477.57" gradientTransform="translate(0 117.22) scale(1 0.87)" xlink:href="#ad24f4b1-19a6-4ca1-b97e-75cb14d3fc9a"/><radialGradient id="f9088fc3-53f3-4849-bc04-12b0ff9ccd85" cx="792.19" cy="942.16" r="478.88" gradientTransform="translate(0 117.78) scale(1 0.87)" xlink:href="#ad24f4b1-19a6-4ca1-b97e-75cb14d3fc9a"/><radialGradient id="a3d1c506-f8b9-48d9-a00d-8e41b757c659" cx="793.82" cy="945.35" r="480.08" gradientTransform="translate(0 118.17) scale(1 0.87)" xlink:href="#ad24f4b1-19a6-4ca1-b97e-75cb14d3fc9a"/><radialGradient id="be3c05ba-fb20-4b96-8f5e-3349af256cdc" cx="795.37" cy="946.41" r="481.25" gradientTransform="translate(0 118.31) scale(1 0.87)" xlink:href="#ad24f4b1-19a6-4ca1-b97e-75cb14d3fc9a"/></defs><path class="a762bb89-ce1e-4311-a296-cd9b35444fc3" d="M128.16,908.64c68.36,5.6,135.87,30.6,201,50.78,84.73,26.28,169,54.49,254.32,78.65,44.3,12.54,88.66,25.94,135,26.3,25.07.2,50.16-.16,75.23-.17q71.08-.06,142.19.14c45.24.06,94-5.13,138.84.5,74.14,9.31-32.78,86.87-8,119.21,9.95,13,39.46,10.63,52.08,7,39.75-11.45,72.5-49.1,100.06-78.19,40.73-43,78.15-89,118.18-132.59,33.77-36.8,73.65-84.07,125.7-91.9" transform="translate(-128.04 -684.03)"/><path class="e79a2d1a-c2c3-46bc-b987-951e2af53823" d="M128.16,904.8c73.62,9.26,145.93,30,217.64,48.44,89.76,23.13,179.22,47.54,269.35,69.16,47.18,11.32,95.7,25.65,144.46,26.18,22,.24,43.93-.19,65.91.32,41.83,1,83.62,3.17,125.43,4.7,40.62,1.5,83.29-2.66,123.54,1.57,73.34,7.69-30.34,92.11-5.08,124.45,10.3,13.18,39.33,10.05,52.2,6.25,39.53-11.7,71.81-48.36,99.2-77.47,39.65-42.15,75.92-87.34,114.86-130.14,33.74-37.1,72.88-82.7,124.84-91.16" transform="translate(-128.04 -684.03)"/><path class="bc31d1b9-1d87-42d5-a00a-d121579b5a1f" d="M128.16,909.8c170.34,22.35,338.5,64.48,507.25,96.17,49.39,9.27,100.16,22.06,150.52,22.86,20,.32,39.87.37,59.87,1.69,38.37,2.54,76.54,7.35,114.82,10.91,37.78,3.5,76.36.47,113.81,4.29,73.65,7.51-26.47,100.15.26,133.89,10.74,13.56,38.9,10.6,52.53,6.56,38.74-11.48,70.13-47,96.79-75.68,38-41,72.62-85,109.91-126.57,33-36.82,70.91-80.61,122-89.06" transform="translate(-128.04 -684.03)"/><path class="b6432b75-66d9-4fcf-b720-b97b6d90be4d" d="M128.16,922c168.6,19.18,336.61,43.77,504.91,65.35,55.57,7.12,111.91,17.17,168,18.6a559.44,559.44,0,0,1,57.1,4c37,4.73,73.53,12.67,110.36,18.62,35.49,5.74,70.89,3.67,106.13,7.8,73.68,8.64-19.64,109.54,6.59,145.8,10.49,14.49,36.17,13.3,51.46,9.4,37.79-9.65,68.28-44.06,93.61-71.65,36.38-39.63,69-82.49,104.48-123,32-36.52,68.5-79,118.72-87.1" transform="translate(-128.04 -684.03)"/><path class="b8c10313-630e-4527-8b8e-0b665d078ac8" d="M128.16,939.67c164.5,13.18,329.48,20.81,494.21,30.38,76,4.42,156.32,2.53,231.63,16.22,37.43,6.81,73.84,18.18,110.76,27.19a530.75,530.75,0,0,0,53,10.63c18.91,2.62,38.14.73,56.87,3.26,76.67,10.38-15,122.56,16.3,162,12.38,15.59,38.1,14,55,9,37-10.89,65.87-45.07,90.37-72.85,34-38.62,64.31-80.39,98.34-119,29.25-33.2,61.18-69.11,106.92-76" transform="translate(-128.04 -684.03)"/><path class="bbe8ad29-ebca-41ea-8169-d0243398926a" d="M128.16,961.24c164.48,5.62,329.71-3.79,494.17-6.93,74.64-1.43,155.27-10.09,228.78,8.33,38.93,9.76,76.25,24.85,114.48,36.88,17.93,5.64,36.09,10.82,54.61,14.15,18.19,3.28,36.72,1.54,54.71,4.58,79.74,13.46-10,137.48,26.66,180.45,13.56,15.91,40.6,15.35,58.51,9.13,35.44-12.31,62.8-45.81,86-73.57,29.12-34.89,55.27-72.16,84.72-106.78,27.58-32.43,57.64-66.79,101.84-72.87" transform="translate(-128.04 -684.03)"/><path class="f3128c4f-f516-4a18-a162-5540980b461d" d="M128.16,985c161.9-3.35,323.92-30,484.82-46.63,75.36-7.76,154-23,228-.31,41.11,12.63,80,31.36,120.15,46.57,18.71,7.08,37.72,13.66,57.26,18.08,18.87,4.27,38,2.87,56.71,6.59,82.56,16.48-2.36,151.34,37,198.66,43.56,52.43,114.35-27,138.9-57.63,26.51-33,50-68.42,76.8-101.2,25.54-31.2,53.35-63.31,95.41-68.32" transform="translate(-128.04 -684.03)"/><path class="b7d05f48-0f85-4cd0-9541-c5b84f9276a6" d="M128.16,1009.35c71.61-5.85,142.4-20.86,212.81-34.74,87.87-17.33,175.48-36,263.45-52.78,50.68-9.7,107.82-26.62,160.09-23.17,22.19,1.47,44.32,8.25,65.11,15.74,44.2,15.91,85.62,38.51,128.8,56.84,18.56,7.88,37.42,15.16,56.92,20.38,19.88,5.32,40,4.69,59.83,8.92,84.4,18,7.9,163.87,46.34,215.38,40.91,54.82,107.73-14.71,133.08-47.58,26-33.74,48.22-70.29,74.92-103.52,22.41-27.87,47-53.84,84.16-57.58" transform="translate(-128.04 -684.03)"/><path class="a15631dd-b9c9-4f21-86b9-208bd60b4717" d="M128.16,1032.59c70.6-10.15,139.49-31.84,207.84-51.77,86-25.07,171.56-51.63,257.77-76,45.54-12.85,104.69-37,152.86-32.67,24.06,2.19,47.78,10.6,70,19.55,44.36,17.86,85.87,42,129,62.41,21.46,10.15,43.37,19.78,66.17,26.56,21.13,6.28,42.73,5.43,63.65,10.79,85.62,21.92,17.55,174.92,54.94,231.32,37.69,56.86,102.14-2.92,127.86-37.76,37.36-50.63,74.48-147,146.29-153" transform="translate(-128.04 -684.03)"/><path class="bb4bc068-913d-42ea-a8c1-157e20e11683" d="M128.16,1053.08c68.84-13.75,134.91-41.5,200.24-66.67,83.47-32.15,166.29-66,250.11-97.22,42.43-15.82,101.43-46.21,148-41.93,25.62,2.35,51.06,12.2,74.44,22.28C848.3,890,892.44,917,938.42,940.16c22.76,11.47,46.07,22.34,70.41,30.06,22.15,7,44.91,6.3,66.82,12.34,44.41,12.24,46.24,66.89,47,104.67.94,43.76-8.68,103.73,16.87,142.55,12.64,19.2,36.76,27.67,59,23,28.32-5.91,48.85-32.88,64.33-55.1,33.81-48.53,64.94-139.28,133.46-144" transform="translate(-128.04 -684.03)"/><path class="af875ba8-ca2d-4f0a-88a5-a6047a9ec671" d="M128.16,1069.17c68-16.31,132.67-50.3,195.51-80.09,81.65-38.7,162.42-79.3,244.66-116.74,41-18.68,95.56-52.92,141.82-47.26,23.43,2.86,46.29,11.24,67.88,20.45,54.85,23.41,105,56.3,157.85,83.73,24,12.49,48.8,24.31,74.73,32.39,21.41,6.67,43.74,6.25,65,12,46.37,12.61,48.75,72.6,50.57,111.8,2.18,46.74-6,110.27,22.56,150.66,36.35,51.34,92.08,10,117.3-28,31.65-47.64,56.66-133.74,123.57-138" transform="translate(-128.04 -684.03)"/><path class="a428e2e9-f705-4ceb-a9a6-2d5183f61c6c" d="M128.16,1079.19c67.68-17,131.49-56.9,192.11-90.31,80.21-44.2,159.18-90.83,240.45-133.09,38.22-19.87,86.41-53.72,131.09-50.24,26.65,2.07,53,12.5,77.25,23.32,55.73,24.88,106.63,59.18,160.31,88,23.62,12.67,47.79,24.65,73.19,33.39,24.29,8.36,49.15,7.2,73.14,14.15,45.48,13.18,49.72,72.56,52.59,111.58,3.66,49.73-4.87,121.6,27.67,163.68,36.07,46.65,88.33,11.83,112.49-26.09,30.06-47.18,50.18-129.26,116.15-133.82" transform="translate(-128.04 -684.03)"/><path class="bfba1da9-9961-4aed-95ca-88c495492cb3" d="M128.16,1081.5c67.12-14.54,130.75-59.76,188.62-94.93,79-48,156.3-99,236.75-144.47,37.78-21.37,83.86-55.08,129.14-51.62,27.43,2.09,54.26,12.45,79.11,23.73,57.38,26,109.45,62.23,164.57,92.48,24.14,13.25,48.9,25.79,75,34.77,24.79,8.53,49.76,6.79,74.22,13.61,46,12.82,50.5,74.95,53.92,113.92,4.46,51-3.2,125,30.13,168,35.29,45.63,87.92,12.32,111.17-25.75,29.12-47.68,45.26-124.88,111.14-130.55" transform="translate(-128.04 -684.03)"/><path class="a2c508f3-2054-4c80-adef-54c94aa47234" d="M128.16,1075c67.14-10.87,131.86-59.48,188.15-95.08,78.3-49.52,154.64-102.57,234.83-149,38.5-22.31,83-53.89,129.42-50.77,27.76,1.86,54.56,11.69,79.66,23.21C818,829.78,869.77,867.39,925,898.52c24.1,13.59,48.89,26.43,75.15,35.35,24.75,8.41,50.09,5.8,74.33,12.83,45.23,13.11,50.29,75.57,54.15,114,5.14,51.13-1.27,124,31.83,167.18,35.11,45.86,86.61,12,110.12-25.77,29.68-47.74,46-121.25,111-129.18" transform="translate(-128.04 -684.03)"/><path class="a76d4a63-f19e-4be7-bf00-96be1e623072" d="M128.16,1066c67.3-11,131.26-58.93,187.51-95C392.55,921.83,467.36,869,546.2,822.89c38.9-22.73,83.17-53.5,130.06-51.13,27.9,1.4,54.71,11.14,79.72,23.07,57.1,27.22,107.36,66.62,161.51,98.92,23.66,14.11,48.11,27.4,74.23,36.39,24.5,8.42,50.69,5.17,74.42,13,43.32,14.3,50.44,73,55.35,111.1,6.41,49.77,2.72,117.82,35.09,159.64,35.61,46,84.21,13.16,109.82-24.12,31.81-46.32,52.13-115.94,115.19-125.73" transform="translate(-128.04 -684.03)"/><path class="e4eee975-85ed-434e-b113-6712fc3a0207" d="M128.16,1057.11c66.8-11,129.5-58.24,185-94.44,74.87-48.8,147.59-101.36,224.51-146.93,38.75-22.94,82.48-53.13,129.32-51.11,27.9,1.2,54.49,11.14,79.17,23.68,56.12,28.5,104.35,70.08,157,104.05,23,14.81,46.91,28.79,72.74,38.09,24.43,8.8,50.57,5.25,74.2,13.42,41.5,14.34,51.45,67.66,57.93,105.14,8.18,47.27,7.84,109.84,39.9,148.75,36.69,44.52,83.17,13.38,111.51-22.58,35.06-44.47,60.27-109.27,122.06-120" transform="translate(-128.04 -684.03)"/><path class="acccbbd6-39d2-4c47-a19b-903c797bdf87" d="M128.16,1048.3c65.73-10.8,126.73-57.42,181-93.6,72.36-48.28,142.48-100.4,217-145.39,38.09-23,81-52.77,127.37-50.76,27.77,1.2,54,11.62,78.06,24.93,54.85,30.3,100.63,74.4,151.53,110.46,22.14,15.68,45.34,30.54,70.75,40.39,24.46,9.49,49.84,5.93,73.7,14,39.79,13.49,52.94,60.2,61.74,96.54,10.62,43.88,14,100.07,46.07,134.91,38.36,41.61,83.39,12.74,115-21.12,39.17-42,70.08-101.42,131.3-112.3" transform="translate(-128.04 -684.03)"/><path class="a33c3ed2-3e9c-41f6-abcc-13078ffc9a25" d="M128.16,1039.57c64.18-10.53,123.07-56.49,175.49-92.48,69.42-47.67,136.51-99.24,208.15-143.59,37-22.91,79-52.39,124.38-50.12,27.56,1.38,53.2,12.54,76.48,26.76,53.34,32.57,96.28,79.44,145.09,118,21.13,16.68,43.44,32.59,68.33,43.2,24.49,10.43,48.62,7.16,73,14.79,84,26.3,63.09,151.69,120,204.2,40.57,37.44,84.79,11.3,119.94-19.75,44-38.83,81.23-92.51,142.6-102.87" transform="translate(-128.04 -684.03)"/><path class="e2b255ba-4c75-4015-9502-7cd2af09ebe1" d="M128.16,1030.92c62.23-10.17,118.67-55.46,168.85-91.12,66.11-47,129.8-97.91,198.22-141.55,35.61-22.72,76.32-52,120.52-49.24,27.29,1.7,52.23,13.83,74.5,29,51.63,35.27,91.43,85.09,137.88,126.4,20,17.77,41.26,34.88,65.56,46.42s47.1,8.93,72,15.7c80.47,21.84,74.25,128.44,134.06,172.92,43.25,32.17,87.26,9.24,126.18-18.43,49.22-35,93.34-82.68,155.62-92" transform="translate(-128.04 -684.03)"/><path class="ba97e5a9-91ea-4534-bde8-901cbfb8e296" d="M128.16,1022.36c60-9.74,113.66-54.36,161.26-89.57,62.51-46.24,122.5-96.44,187.41-139.34,33.93-22.43,73.22-51.56,116-48.15,27,2.16,51.11,15.44,72.21,31.71,49.73,38.34,86.15,91.23,130,135.57,18.72,18.92,38.86,37.38,62.51,50,24,12.81,45.49,11.15,71,16.71,75.91,16.58,87.59,103.61,149.65,138.39,46.21,25.91,90.67,6.71,133.43-17.16,54.77-30.56,106-72.09,170-80" transform="translate(-128.04 -684.03)"/><path class="f8dbcbca-281a-496a-9a59-fe0084350c49" d="M128.16,1013.89c57.48-9.25,108.2-53.21,152.94-87.86C339.79,880.58,395.84,831.17,457,789,489.08,767,526.79,738,567.86,742.12c26.71,2.71,49.89,17.35,69.69,34.67,47.68,41.71,80.55,97.74,121.73,145.32,17.4,20.1,36.29,40,59.24,53.83,23.33,14.08,43.93,13.72,69.75,17.8,70.83,11.21,103.05,77.17,166.39,101.39,49.25,18.84,94.92,3.9,141.47-15.92,60.48-25.76,118.82-60.91,185.46-67.16" transform="translate(-128.04 -684.03)"/><path class="a09fbd51-539d-450e-b043-23920023576e" d="M128.16,1005.53c54.84-8.74,102.42-52,144.12-86.06,54.7-44.63,106.66-93.2,164-134.54,30.06-21.69,66-50.57,105.36-45.59,26.43,3.35,48.57,19.48,67,37.84,45.49,45.33,74.75,104.49,113.12,155.44,16,21.31,33.6,42.65,55.82,57.84,22.4,15.33,42.46,16.49,68.47,19,67.32,6.41,119.3,48.73,183.93,62.69,121.32,26.22,232.4-61,351.66-68.4" transform="translate(-128.04 -684.03)"/><path class="e328c32b-0ac4-4320-a667-7bd452650e81" d="M128.16,997.27c52.15-8.21,96.46-50.85,135-84.2,50.63-43.79,98.4-91.49,151.74-132,28-21.29,62.14-50,99.68-44.19,26.19,4,47.21,21.79,64.2,41.11,43.2,49.11,68.84,111.38,104.33,165.79,14.68,22.5,30.88,45.32,52.34,61.94s41,19.29,67.15,20.14c68.09,2.24,134.13,18.64,201.93,23.07,129.81,8.49,248.72-49.51,377-53.42" transform="translate(-128.04 -684.03)"/><path class="a916fbba-f459-4536-a7b6-33ee708a91b1" d="M128.16,989.12c49.47-7.68,90.47-49.68,125.84-82.32,46.58-43,90.31-89.41,139.46-129.53,25.77-21,58.32-49.33,94-42.78,26,4.77,45.84,24.19,61.41,44.39,40.83,53,62.91,118.3,95.53,176.17C670.8,1002,701.1,1043.93,759,1042.43c73.61-1.9,146.63-11.71,220-16.68,56.16-3.81,111.9-4.78,167.82-12.3,77.9-10.47,155.86-26,234.7-26.1" transform="translate(-128.04 -684.03)"/><path class="ff1b9f59-3727-4a12-9456-31716b492b6a" d="M128.16,981.09c46.91-7.18,84.59-48.54,116.83-80.48,42.54-42.16,82.1-87.69,127.34-127.05,23.79-20.7,54.39-48.66,88.36-41.41,25.84,5.51,44.49,26.63,58.69,47.62,38.43,56.82,57.07,125.1,86.85,186.39,22.72,46.75,51.68,97.18,110,92.59,82-6.46,157.58-41.1,237.87-55.8,58.12-10.65,117.71-7.22,176.53-11.07,83.5-5.47,167.2-14.65,251-12.54" transform="translate(-128.04 -684.03)"/><path class="aba53e7b-3eb6-409b-a83b-4ef3deefc09d" d="M128.16,973.17c44.53-6.7,79-47.42,108.2-78.71,38.62-41.35,74.12-86,115.58-124.64,21.93-20.43,50.59-48,83.06-40.12,25.74,6.21,43.2,29,56.11,50.68,36.06,60.57,51.43,131.69,78.47,196.3,19.42,46.42,46.66,104.89,105.51,97.58,91.29-11.35,167.85-69,255.1-93.5,60.25-17,122.84-9.33,184.79-9.8,88.83-.67,177.84-3.72,266.61.5" transform="translate(-128.04 -684.03)"/><path class="b358796b-61fb-4899-9d78-df5a14760754" d="M128.16,965.39c42.42-6.3,73.73-46.34,100.16-77.07,34.91-40.58,66.51-84.42,104.4-122.35,20.24-20.26,47-47.29,78.23-39,25.69,6.86,42,31.23,53.74,53.5,33.79,64.14,46.08,137.94,70.53,205.71,16.59,46,41.81,111.87,101.35,102.25,100.36-16.21,177.8-94.83,271.37-129,62.34-22.75,127.38-11.14,192.37-8.49,93.77,3.82,187.63,6.65,281.28,12.73" transform="translate(-128.04 -684.03)"/><path class="bd7748f8-786e-4641-b8be-04bc6fd5dcdf" d="M128.16,957.74c40.67-6,69.05-45.29,93-75.59,31.44-39.87,59.38-82.94,94-120.23,18.75-20.2,43.88-46.64,74-38,25.71,7.39,41,33.2,51.67,56,31.68,67.43,41.12,143.75,63.17,214.45,13.92,44.65,37.57,119.14,97.64,106.48,109-23,186.34-118.26,286.33-161.51,23-10,47.62-18.66,72.88-17.06,42.07,2.67,84.1,6.54,126.12,9.93,98.22,7.93,196.41,16.31,294.65,23.88" transform="translate(-128.04 -684.03)"/><path class="bbc2b9bb-8a2c-4045-89a9-6efe915d0fc9" d="M128.16,950.22c39.33-5.73,65.07-44.25,86.77-74.32,28.31-39.22,52.91-81.6,84.58-118.3,17.49-20.28,41.24-46.05,70.63-37.22,25.81,7.76,40.14,34.82,50,58,29.81,70.37,36.66,149,56.55,222.32,11.87,43.78,33.65,124.87,94.48,110.18,116.71-28.18,194.18-139.11,299.61-190.28,23.06-11.2,48.1-21.07,74-19.21,43.57,3.12,87,8.6,130.44,13.52,102.06,11.57,204,25.15,306.38,33.66" transform="translate(-128.04 -684.03)"/><path class="b5b7376a-582b-47f9-9076-336ebbe92f9b" d="M128.16,942.85c38.48-5.6,61.94-43.21,81.86-73.32,25.57-38.65,47.2-80.44,76.35-116.61,16.53-20.5,39.26-45.56,68.2-36.72,26,7.94,39.59,36,48.72,59.53,28.25,72.9,32.79,153.55,50.82,229.16,10.44,43.79,30.12,128.59,92,113.24,55.53-13.78,103.16-53.26,146.2-89C745,985.41,795.77,935.66,857,903.61c23.08-12.09,48.26-22.5,74.64-20.53,44.77,3.33,89.41,10.18,133.86,16.37,105.17,14.65,210.26,33.09,316.14,41.8" transform="translate(-128.04 -684.03)"/><path class="be0d2bdc-86c8-47cf-a5b2-238409b24830" d="M128.16,935.63C166.32,930,188,893.49,206.6,863c23.3-38.17,42.38-79.5,69.53-115.21C292,726.91,314.2,702.62,343,711.25c26.3,7.88,39.37,36.6,48,60.45,27.08,74.94,29.61,157.31,46.13,234.79,9.46,44.34,27.25,130.6,90.26,115.53,57.5-13.76,106.42-58.14,149.55-96,54.23-47.68,106.29-102.41,170.17-137.39,23-12.63,48-22.76,74.64-20.88,45.62,3.21,91.09,11.17,136.22,18.35,107.41,17.08,215,40.06,323.6,48" transform="translate(-128.04 -684.03)"/><path class="a5ee7445-3a35-416c-a19f-062adbc7eb06" d="M128.16,928.56c38.4-5.7,58.9-41,76.72-72.26,21.57-37.81,38.61-78.84,64.33-114.15,15.62-21.45,37.83-44.93,66.89-36.72C362.8,713,375.64,742,384,766.08c26.37,76.42,27.22,160.18,42.63,239,9,46,25.11,130.18,89.41,116.94,58.68-12.08,109.1-61.41,151.61-100.27,55.24-50.5,108.22-109.26,174.25-146,65.68-36.55,141.39-12.88,211.31-.79,108.6,18.77,218.12,46,328.41,52" transform="translate(-128.04 -684.03)"/><path class="e2681f2e-9134-40f5-9942-2f62e1802716" d="M128.16,921.66c39.12-5.9,59.18-40,76.8-72.27,20.54-37.6,36.27-78.52,61.25-113.53C282,713.79,304.75,691,334.28,698.72c27.09,7.11,40,36,48.23,60.35,26.15,77.06,26,161.54,40.89,241,9,47.85,24.26,128.36,89.38,117.37,58.85-9.93,110.59-62.75,152.25-101.38,55.7-51.64,109.23-112.33,176.37-149.5,64.71-35.82,141.79-11.8,210.36.4,108.79,19.35,219.12,48.68,329.85,53.17" transform="translate(-128.04 -684.03)"/><path class="e4dff452-3694-44a9-b650-fc3db5696c22" d="M128.16,916c39.05-5.77,59.16-40.11,76.78-72.22,20.66-37.66,36.54-78.64,61.63-113.72,15.64-21.86,38.48-45.17,67.79-36.67,26.71,7.75,39.63,36.73,48,60.93,26.24,76,27,159.34,42.36,237.79,9.07,46.22,25.27,129.2,89.21,117,58.26-11.07,110.17-62.51,152.43-100.4C722.58,958.34,776.69,900,843.3,863c65.46-36.35,140.59-12.63,210.33-.75,108.66,18.5,218,44.81,328.29,51.34" transform="translate(-128.04 -684.03)"/><path class="a6188409-c91c-4f25-baf9-681590ec4132" d="M128.16,912.28c39-5.68,59.23-40.24,76.9-72.26,20.84-37.75,36.91-78.81,62.15-114,15.6-21.74,38.48-45.39,67.65-36.36,26.35,8.15,39.46,36.86,48,60.9,26.54,74.53,28.33,156.36,44.35,233.36,9.39,45.12,26.73,128.68,89.5,115.87,57.68-11.77,109.79-61.21,152.81-98,56.81-48.65,111.63-104.37,177.75-140.54,22.67-12.39,46.88-22.32,73.05-20.49,45.79,3.21,91.42,11.24,136.72,18.45,108,17.18,216.3,40.34,325.53,48.07" transform="translate(-128.04 -684.03)"/><path class="a558d6d7-8fa9-4b6c-86c4-d2f11557b3aa" d="M128.16,910.37c39.07-5.63,59.39-40.41,77.16-72.38,21-37.86,37.35-79,62.78-114.33,15.63-21.68,38.53-45.55,67.65-36.19,26,8.36,39.43,36.51,48.29,60.32,27,72.63,30,152.67,46.83,227.84,9.65,43.14,28.95,128.45,90.23,113.91,57.52-13.65,108.63-58.28,153.36-94.43C731.89,948.69,787.52,896,853.2,861.24c22.71-12,47.09-22.41,73.15-20.51,45.36,3.3,90.58,10.54,135.57,17,106.93,15.43,213.9,35.27,321.69,43.5" transform="translate(-128.04 -684.03)"/><path class="bc9edddc-0a35-4bd1-acd7-0f6384c2eddb" d="M128.16,910.13c39.14-5.6,59.63-40.61,77.54-72.57,21.29-38,37.87-79.32,63.53-114.73,15.71-21.69,38.61-45.67,67.77-36.17,25.7,8.37,39.53,35.73,48.79,59.24,27.69,70.33,32,148.31,49.74,221.32,10.4,42.71,31.21,125.66,91.35,111.22,57-13.69,108.31-55.21,154.08-89.65,58.1-43.74,114.61-93,179.91-125.9,22.84-11.51,47.34-21.95,73.26-20.1,44.78,3.18,89.44,9.45,134,15.07C1173.55,871.15,1279,887.47,1385,895.6" transform="translate(-128.04 -684.03)"/><path class="bddae2da-1e55-497c-a45c-8f448be9feba" d="M128.16,911.45c39.25-5.61,59.94-40.86,78-72.83,21.58-38.16,38.47-79.65,64.39-115.21,15.85-21.74,38.73-45.72,68-36.25,25.4,8.21,39.75,34.55,49.48,57.67,28.5,67.7,34.22,143.36,53.07,213.89,11.75,44,33.36,120.21,92.82,107.88,56.06-11.63,108.95-52,154.94-83.81C747.71,942.15,805.18,896.68,870.15,866c23-10.85,47.61-21,73.38-19.3,44.06,2.88,88,8,132,12.61,103.63,10.8,207.19,23.42,311.13,30.93" transform="translate(-128.04 -684.03)"/><path class="ab3ace38-51dc-4e1d-8428-6a6752e71f0a" d="M128.16,914.18c39-5.52,59.82-40.38,78-72.06,21.83-38,39-79.38,64.72-115.11,16.86-23.41,41.36-49.07,72.8-37.25,22.2,8.34,36.1,31.32,45.72,51.67,31.13,65.87,38,141.28,58.67,210.61,12.64,42.43,37,115.67,94.16,102,58-13.86,110.88-48.71,160.78-80,57-35.69,113-74.84,174.72-102,25.36-11.18,51.41-21.3,79.38-19.41,43.25,2.92,86.47,6.37,129.69,9.77,100.56,7.92,201.08,16.53,301.75,23" transform="translate(-128.04 -684.03)"/><path class="b6b4fa2c-bf35-4ba6-bcaf-8fa40701e325" d="M128.16,918.2c39.15-5.57,60.25-40.68,78.66-72.43C229,807.54,246.52,766,272.56,730.09c17.12-23.6,41.51-49,73.25-37.59,22,7.9,36.5,29.66,46.69,49.49,32.15,62.55,40.79,135.15,62.77,201.41,14.12,42.55,40,110.14,96.22,97.64,57.52-12.8,110.9-43.71,161.94-72,57.72-32,114.71-67,176.27-91.36,25.6-10.13,51.76-19.33,79.51-17.85q63.46,3.39,126.94,6.46c98.19,4.86,196.41,9.41,294.59,14.45" transform="translate(-128.04 -684.03)"/><path class="b74a6f3f-049b-4b9b-b5de-0494c4362c86" d="M128.16,923.38c39.35-5.63,60.74-41,79.4-72.84,22.53-38.44,40.45-80.2,66.84-116.3,17.42-23.82,41.69-48.87,73.78-38,21.83,7.37,37,27.77,47.8,47,33.24,59,43.74,128.59,67.16,191.55,15.88,42.69,43.25,103.91,98.52,92.83,121-24.27,225.37-103.21,341.13-143.21,66.73-23.06,134-14.32,203.55-13.18,95.61,1.57,191.28,1.88,286.85,5.28" transform="translate(-128.04 -684.03)"/><path class="f9d59ef1-7de4-415d-9029-1e3529788a2b" d="M128.16,929.59c39.57-5.72,61.27-41.34,80.21-73.29,22.91-38.66,41.24-80.65,68-116.95,17.75-24.09,41.9-48.72,74.39-38.58,21.66,6.76,37.45,25.71,49,44.29,34.36,55.19,46.86,121.65,71.79,181.13,17.92,42.75,46.67,97.08,101,87.62,120-20.89,227.92-87.72,344.22-121.69,65.77-19.21,132.56-13.59,200.43-15,92.83-1.93,185.75-6,278.6-4.48" transform="translate(-128.04 -684.03)"/><path class="ab71ba82-abb8-4d8e-9a55-36c4ff535372" d="M128.16,936.7c39.45-5.71,61.26-40.87,80.42-72.69,23.26-38.63,41.91-80.45,68.58-117,17.52-24,41.61-50,74.36-41.5,25.45,6.64,43.87,28.14,57.3,49.51,30.73,48.88,45.53,106.22,69.62,158.31,20.66,44.66,50.26,93,105.72,86.47,55.86-6.59,111.13-26.35,164.38-43.56,59.63-19.27,119-40.14,180-54.83,66.56-16,134.75-13.46,202.75-17.69,89-5.55,178.2-14,267.46-14.52" transform="translate(-128.04 -684.03)"/><path class="af132598-1b6c-4a5d-a380-78c491bb2701" d="M128.16,944.58c39.71-5.82,61.84-41.23,81.32-73.2,23.67-38.86,42.75-80.93,69.82-117.68,18-24.39,41.85-49.8,75.08-42.12,25.23,5.83,44.48,25.36,58.94,45.81,31.9,45.12,48.66,99.27,74.27,147.85,23.27,44.16,54.19,85.32,108.67,80.39C714,975,828,931.65,944,910.57c65.72-11.94,132.87-12.27,199.24-19.43,86-9.27,172-22.39,258.58-24.94" transform="translate(-128.04 -684.03)"/><path class="e7e4a300-ca1c-4637-8a61-ea3d90721ca4" d="M128.16,953.1c40-5.94,62.45-41.6,82.24-73.72C234.5,840.27,254,797.94,281.5,761c18.44-24.8,42.1-49.52,75.83-42.77,25,5,45.11,22.55,60.65,41.95,54.49,68,81.1,218,190.77,211.25,117.89-7.21,234-36.84,351.15-51.07,65.28-7.94,130.52-10.87,195.63-21.14,82.79-13.07,165.66-30.89,249.49-35.58" transform="translate(-128.04 -684.03)"/><path class="a0cb627e-5aa5-4ecb-a64a-66b0c0668dd2" d="M128.16,962.13c39.84-5.94,62.53-41.25,82.52-73.18,24.46-39.06,44.33-81.28,71.76-118.46,18.92-25.64,41.72-50,75.86-45.57,24.8,3.19,45.81,18.67,62.56,36.29,63.05,66.29,89.4,200.44,200.67,196,119.55-4.8,238.49-19.7,357.9-26.85,65.08-3.89,126.83-9.42,190.84-23.07,78.79-16.8,157.62-39.09,238.12-45.82" transform="translate(-128.04 -684.03)"/><path class="f15c1cb7-faab-4a69-8aca-f06ee0f54f92" d="M128.16,971.55C243.4,954.1,278.05,629.63,425.61,764.8c38.23,35,61.82,82.93,94.93,122.31,31.77,37.8,64.16,56.23,113.86,56,120.48-.44,241-1.93,361.44-2,28.15,0,57.19,2.06,85.1-1.89,34.48-4.88,68.41-14,102-23.09,75.5-20.58,150.91-47.6,229-56.4" transform="translate(-128.04 -684.03)"/><path class="e1abe6d2-60a0-4a61-89dc-49f2a7c53625" d="M128.16,981.22C249.9,962.53,272.75,643.94,430.35,768.64c39.21,31,65.42,75.17,100.11,110.65s67.63,48.48,116.81,50.07c121.84,3.94,243.3,15.81,365,22.77,27.91,1.59,57.47,5.57,85.13.67,33.44-5.93,66.07-16.67,98.17-27.48,72.17-24.29,144.11-56.05,219.94-66.82" transform="translate(-128.04 -684.03)"/><path class="b21a4d5b-5f8b-40a5-8134-b4e3a52fda9f" d="M128.16,991c40.37-6.23,63.77-41.54,84.67-73.73,25.66-39.52,46.76-82.15,75-120,19.56-26.21,42.63-50.89,77.41-49.43,24.6,1,47.32,10,67.7,23.37,40.18,26.41,69,66.29,104.57,98C554,884,572,897.61,592.66,906c22.21,9,43.84,8.55,67.31,9.93,124.67,7.31,247.82,33.87,371.81,47.73,27.68,3.09,56.57,8.45,84,2.34,32.35-7.2,63.53-19.57,94.15-32,68.12-27.7,136.1-63.74,209.19-76.2" transform="translate(-128.04 -684.03)"/><path class="a388fe9a-cb8a-46b7-9915-ca00cc41a9e8" d="M128.16,1000.8c40.65-6.36,64.36-41.92,85.58-74.26,26.08-39.76,47.62-82.64,76.25-120.71,20-26.64,43-50.63,78.15-50,24.64.44,47.91,7.87,69.3,19.75,41,22.78,72.42,58.74,109.57,86.74,17.49,13.18,36.31,25.08,57.2,32.11,22.63,7.63,44.82,6.42,68.23,8.44,126.7,11,250,51.39,375.25,72,27.45,4.53,56.66,11.66,84,4.56,31.44-8.16,61.35-22.14,90.53-36.14,64.83-31.1,129.35-71.75,200.67-85.86" transform="translate(-128.04 -684.03)"/><path class="b180205b-171a-4c92-8d27-46b6f01c7d59" d="M128.16,1010.45c40.49-6.35,64.38-41.57,85.75-73.7,26.39-39.68,48.25-82.45,76.83-120.68,20-26.71,42.77-51.71,78.08-52.34,24.6-.44,48.36,5.16,70.73,15.21,41.66,18.71,75.6,50.35,113.71,74.84,18.21,11.71,37.44,22.17,58.26,28.44,24.32,7.33,48.33,4.95,73.06,8.19,127.93,16.79,249.51,67.41,375.2,94.88,26.71,5.84,57.06,15.34,84,8.3,30.1-7.86,58.3-23.26,85.39-38.14,63.37-34.81,125.87-81.84,197.51-97.76" transform="translate(-128.04 -684.03)"/><path class="ea078a52-51ca-45f5-a820-ea2a23856010" d="M128.16,1019.84c40.74-6.46,64.93-41.92,86.57-74.18,26.79-39.91,49.06-82.92,78-121.37,20.38-27.06,43.13-51.57,78.74-52.82,24.76-.87,48.93,3.49,72.13,12C486,799.11,522.36,826.79,562,847.81c19.13,10.15,39.07,19,60.18,24.1,24.71,6,49.25,2.73,74,6.66,130.4,20.71,251.33,83.54,378.38,117.41,26.31,7,57.26,18.3,84.12,10.55,29.46-8.51,56.55-25.4,82.3-41.57,60.17-37.76,119.2-89.4,189.57-106.54" transform="translate(-128.04 -684.03)"/><path class="bb2b0189-4647-491a-bbb7-6ca7ee0beaed" d="M128.16,1028.83c43.93-7,69.46-47.75,92.38-82.32,26.28-39.64,48.58-82.27,78.28-119.56,23.47-29.47,45.88-48,84.44-48.36,24.29-.26,48.21,4.15,71.26,11.64,42.23,13.72,80.25,37.3,121.11,54.28,19.93,8.28,40.53,15.14,61.89,18.62,23.21,3.77,46.41.63,69.5,4.27,61.71,9.72,121.81,36.84,179.24,60.29,65.82,26.89,131.07,56.09,198.92,77.59,25.88,8.19,57.16,21,84.31,14.75,28.15-6.44,54.92-26.31,78.15-42.56,58.77-41.11,115.59-99.35,186.7-117.79" transform="translate(-128.04 -684.03)"/><path class="acd0000f-126c-4d45-a471-b6df9e94ff7f" d="M128.16,1037.31c44.15-7.07,70-48.11,93.16-82.79,26.63-39.84,49.3-82.69,79.34-120.18,23.85-29.77,46.18-47.73,85-48.86,24.51-.71,48.84,2.64,72.56,8.7,43.1,11,83.19,30.84,125.32,44.76,20.69,6.83,41.85,12.36,63.52,14.93,23.38,2.78,47.07-1.22,70.1,3.23C780,869.27,840,899.18,897.6,926c66.2,30.8,131.67,64.29,200.51,88.93,25.54,9.14,57.3,23.35,84.51,16.8,27.75-6.68,53.71-28,75.74-45.1,55.83-43.44,109.4-106.18,179.78-125.14" transform="translate(-128.04 -684.03)"/><path class="bcb0338b-1b1d-4e16-8739-4b2d34128d10" d="M128.16,1045.12c44.34-7.13,70.46-48.43,93.87-83.2,26.95-40,50-83.09,80.32-120.76,24.2-30,46.44-47.54,85.47-49.25,24.74-1.09,49.44,1.35,73.72,6.08,44,8.56,85.93,24.78,129.25,35.85,21.35,5.46,43,9.77,65,11.56,23.49,1.92,47.53-2.45,70.58,2.34,63.87,13.26,124.14,47,181.53,76.72,66.53,34.43,132.18,71.94,202,99.47,25.24,10,57.36,25.35,84.7,18.56s52.7-29.29,73.66-47.2c53.12-45.38,103.68-112.44,173.64-131.46" transform="translate(-128.04 -684.03)"/><path class="e1a3c113-8c85-43eb-8645-8e92470c15e8" d="M128.16,1052.16c44.07-7.06,70.26-48,93.7-82.42,28.83-42.39,53.19-88.41,86.23-127.82,22.45-26.79,44.24-41.95,79.44-44a380.44,380.44,0,0,1,74.35,3.36c44.57,6.1,87.86,18.72,131.94,27.34a508.9,508.9,0,0,0,65.61,9c25,1.57,50.85-3.57,75.21,1.94,66.63,15,129.13,53.37,187.89,86.69,66,37.41,131.13,78.14,201.29,107.47,24.62,10.3,56.51,25.32,83.38,17.9,27.17-7.51,51.3-30.68,71.45-49.46,50.08-46.66,97.74-117,167-135.34" transform="translate(-128.04 -684.03)"/><path class="b2c3e24e-6639-48f4-8854-6513f365f243" d="M128.16,1058.28c44.2-7.09,70.6-48.22,94.21-82.73,29.12-42.56,53.78-88.75,87.09-128.34,22.61-26.86,44.36-42,79.67-44.15a481.81,481.81,0,0,1,75.11,1.63c45.39,4.26,90,13.76,135.16,20A653.35,653.35,0,0,0,666.21,831c25,.89,51.1-4.27,75.46,1.31,67.51,15.44,130.44,57.38,188.74,92.92,66.19,40.34,131.4,84.44,202.47,115.94,24.47,10.85,56.47,26.34,83.56,18.88s50.68-31.24,70.1-50.58c48-47.78,93.33-121.84,162.71-139.2" transform="translate(-128.04 -684.03)"/><path class="bdb973d4-9c94-4b53-8abf-c4153d280f06" d="M128.16,1063.36c44.29-7.08,70.88-48.46,94.61-83,29.38-42.72,54.31-89.07,87.85-128.8,22.69-26.87,44.4-42.07,79.78-44.15a645.21,645.21,0,0,1,75.66.37c46.16,2.72,92,9.38,138,13.61,22.55,2.07,45.16,3.6,67.81,3.94,24.92.38,51.18-4.55,75.54.92,68.27,15.33,131.69,60.69,189.43,98,66.32,42.89,131.54,90,203.47,123.28,24.45,11.3,56.37,26.83,83.75,19.48s50.33-31.3,69.22-51.11c46.24-48.51,89.69-125.92,159.51-141.67" transform="translate(-128.04 -684.03)"/><path class="a771d294-dac2-4c27-b2e1-a5a5aa038978" d="M128.16,1067.28c47-7.42,75.52-54.23,100.13-90.79,26.94-40,50.8-82.63,81.77-119.78,22.36-26.81,43.5-43.83,79.11-45.68,25.15-1.3,50.34-1.3,75.5-.56,49.77,1.46,99.38,6,149.09,8.54,22.68,1.14,45.37,1.9,68.08,1.8,23.1-.1,47.07-3.71,69.82.68,65.75,12.68,126.67,59.33,180.89,95.88,70.39,47.46,139.43,101.23,216.78,137.14,24.93,11.57,54.88,25.47,82.5,17.49,27-7.8,49.93-31.79,68.16-51.77,44.56-48.82,86.17-127.91,156.22-141.25" transform="translate(-128.04 -684.03)"/><path class="e691a9ef-ef2e-4f18-9c72-0f2082a6c9ce" d="M128.16,1069.89c47-7.35,75.65-54.42,100.31-90.92,27.1-40.11,51.14-82.83,82.26-120.08,22.21-26.59,43.45-44.22,79-45.41,25.17-.84,50.36-1,75.54-.67,50.39.56,100.74,2.81,151.11,3.92,44.51,1,94.3-6.33,138.06,1.49,66.3,11.86,127.48,60.64,181.18,98.2,70.34,49.2,139.31,105.51,217.44,142.16,25.06,11.76,54.85,24.68,82.76,17.29,27.37-7.25,50.08-30.75,68.25-51,43.81-48.92,84.4-130.13,155.44-140.58" transform="translate(-128.04 -684.03)"/><path class="ffb3d589-4ac6-4d84-b4e5-1e1f789037c4" d="M128.16,1071.07c46.9-7.25,75.69-54.57,100.34-91,27.22-40.19,51.4-83,82.62-120.31,22.39-26.77,43.09-43.87,78.71-45,25.05-.79,50.24-.21,75.31-.17,50.86.06,101.73.39,152.6.52,44.64.11,93.58-5.63,137.76,1.32,66.7,10.5,128.12,60.95,181.26,99.13,70.19,50.42,139.06,108.88,217.88,145.64,25.31,11.8,54.85,23.19,83.06,16.63,27.88-6.48,50.53-29,68.9-49.54,43.68-48.76,83.7-131.27,156-138.16" transform="translate(-128.04 -684.03)"/></svg>