<svg id="af1825f9-867f-41fb-90c8-6f20ef094378" data-name="ai" xmlns="http://www.w3.org/2000/svg"
    viewBox="0 0 88.35 88.35">
    <defs>
        <style>
            .a7de5807-6390-4341-b931-7493d770004a {
                fill: #271300;
                stroke: #fd7f19;
                stroke-miterlimit: 10;
                stroke-width: 5px;
            }

            .b054ceb2-5c52-467c-b3b0-0fb611b721e4 {
                fill: #fc7e18;
            }

            .eb2fe954-2db2-49fc-bb10-ab901961c4c2 {
                fill: #fc7d18;
            }
        </style>
    </defs>
    <circle class="a7de5807-6390-4341-b931-7493d770004a" cx="44.17" cy="44.17" r="41.67" />
    <path class="b054ceb2-5c52-467c-b3b0-0fb611b721e4"
        d="M30.57,67.27C33.8,55.91,37,44.72,40.2,33.35c1.86,0,4,0,6.2,0,.21,0,.51.5.6.81q4.23,14.36,8.43,28.71c.43,1.44.85,2.88,1.33,4.53-1.93,0-3.73,0-5.53,0-.21,0-.49-.52-.58-.84-.75-2.64-1.44-5.29-2.19-7.92-.08-.28-.44-.69-.68-.69-3.12-.05-6.25,0-9.42,0-.72,2.73-1.48,5.39-2.1,8.09-.24,1-.69,1.36-1.71,1.29C33.3,67.21,32,67.27,30.57,67.27Zm9.09-14.71H47l-3.72-14.4Z"
        transform="translate(-4.65 -5.71)" />
    <path class="b054ceb2-5c52-467c-b3b0-0fb611b721e4"
        d="M66.59,42.09V67.21c-1.67,0-3.28,0-4.88,0-.2,0-.44-.32-.57-.55s0-.41,0-.62c0-7.57.05-15.14,0-22.7,0-1,.23-1.32,1.23-1.25C63.74,42.16,65.11,42.09,66.59,42.09Z"
        transform="translate(-4.65 -5.71)" />
    <path class="eb2fe954-2db2-49fc-bb10-ab901961c4c2"
        d="M67.08,35.46a2.88,2.88,0,0,1-3.21,3.07,2.8,2.8,0,0,1-3-3.16,3.1,3.1,0,1,1,6.19.09Z"
        transform="translate(-4.65 -5.71)" />
</svg>