<svg id="b424c639-2ea7-4285-b3bb-d50b2b0795bc" data-name="Arduino" xmlns="http://www.w3.org/2000/svg" viewBox="0 0 92.35 92.35"><defs><style>.ba37b731-84d0-4d11-83d6-bb1ba4eac928{fill:#00878f;}.e4bb3fb8-dc9d-495b-a8f8-268a2aa46ed7{fill:#f9fcfc;}.e3f0991f-4ac1-4466-aab1-a0b2618225c5{fill:#f4fafa;}.ad42c662-1e1c-4b9f-b3e2-855069a1bb64{fill:#fbfdfd;}</style></defs><circle class="ba37b731-84d0-4d11-83d6-bb1ba4eac928" cx="46.17" cy="46.17" r="46.17"/><path class="e4bb3fb8-dc9d-495b-a8f8-268a2aa46ed7" d="M66.42,50.85l-1.88-.14V47.29l1.8-.13h1.4l.26-.24V43.61h3.58v3.56h3.68v3.56H71.72v3.62h-3.6v-3.5Z" transform="translate(-4.5 -2.7)"/><path class="e3f0991f-4ac1-4466-aab1-a0b2618225c5" d="M33.71,50.83H28v-3.7H38.87v3.7Z" transform="translate(-4.5 -2.7)"/><path class="ad42c662-1e1c-4b9f-b3e2-855069a1bb64" d="M27.07,65.91a21,21,0,0,1-8.31-4.74c-5-5.53-6.57-11.84-3.72-18.83.92-2.25,2.73-4.14,4.13-6.19a21.81,21.81,0,0,1,9.22-4.69,21.94,21.94,0,0,1,15.34,3.6l7.19,7.06a26.73,26.73,0,0,1,11.23-9.51,21.7,21.7,0,0,1,13.79-.28,20.45,20.45,0,0,1,8.5,6.31c3.8,5.88,4.42,12,1.23,18.31a33.75,33.75,0,0,1-1.84,2.9,19.64,19.64,0,0,1-8.62,5.74,3.43,3.43,0,0,0-.91.64,5.71,5.71,0,0,0-1.3-.07,19.13,19.13,0,0,1-11.49-1.29,27.86,27.86,0,0,1-10.82-9.66,28.86,28.86,0,0,1-9.24,8.85A20.19,20.19,0,0,1,27.07,65.91ZM33.63,37.7c-1.44.09-2.89.12-4.33.28-5.64.62-10.07,6.59-9.29,12.26,1,7.24,8.58,10.85,13,9.86a23.44,23.44,0,0,0,4-.94c4.53-1.91,7.49-5.5,9.83-9.67A1.65,1.65,0,0,0,46.71,48a60.22,60.22,0,0,0-4.92-6.28A12.66,12.66,0,0,0,33.63,37.7ZM65.37,59.5c.84.2,1.66.46,2.51.58A12.09,12.09,0,0,0,80.14,54a10.81,10.81,0,0,0-1.35-12.23,12.25,12.25,0,0,0-13.37-3.51,1.58,1.58,0,0,0-.32,0C60.09,40.12,57,44,54.45,48.4a1.24,1.24,0,0,0,.06,1C57.11,53.89,60.22,57.8,65.37,59.5Z" transform="translate(-4.5 -2.7)"/></svg>