<svg id="fadb95a9-d48a-49d6-8000-fc5edbf6ec20" data-name="Layer 3" xmlns="http://www.w3.org/2000/svg"
    viewBox="0 0 83.35 83.35">
    <defs>
        <style>
            .e9863692-6079-40ba-8360-11332afd0664 {
                fill: #a159fe;
            }

            .fb89ee82-a90c-4321-b9a8-42ee30cbdacc {
                fill: #fe7161;
            }

            .ed50ca34-779d-4d47-b2c0-4ec8d1fabf09 {
                fill: #f14e1e;
            }

            .e7d77c53-e0e2-46e7-9868-f13ffd11e6e6 {
                fill: #0ace82;
            }

            .a4d0447c-2afd-4c75-ab34-1a8e0f600752 {
                fill: #1abbfc;
            }
        </style>
    </defs>
    <circle cx="41.67" cy="41.67" r="41.67" />
    <path class="e9863692-6079-40ba-8360-11332afd0664"
        d="M51.4,51.37a3.44,3.44,0,0,0-.1.63l0,6.39H42a8.48,8.48,0,0,1-5-2.37,8.39,8.39,0,0,1,4.56-14.28l.41-.11h9.26v0q0,3.24,0,6.48a4.69,4.69,0,0,0,.09.64Z"
        transform="translate(-9.61 -8.33)" />
    <path class="fb89ee82-a90c-4321-b9a8-42ee30cbdacc"
        d="M51.3,24.87c3,0,6-.09,8.93,0A8.37,8.37,0,0,1,61,41.51l-.48.12-2.23.09c-.07,0-.13-.09-.2-.09l-6.83,0v0Q51.29,33.25,51.3,24.87Z"
        transform="translate(-9.61 -8.33)" />
    <path class="ed50ca34-779d-4d47-b2c0-4ec8d1fabf09"
        d="M51.3,24.87q0,8.39,0,16.75H42a8.86,8.86,0,0,1-4.46-1.92,8,8,0,0,1-2.73-8.65,8.47,8.47,0,0,1,8.26-6.19C45.83,24.85,48.57,24.87,51.3,24.87Z"
        transform="translate(-9.61 -8.33)" />
    <path class="e7d77c53-e0e2-46e7-9868-f13ffd11e6e6"
        d="M42,58.38h9.25c0,3,.09,6,0,8.94a8.38,8.38,0,1,1-9.59-8.84A2.35,2.35,0,0,0,42,58.38Z"
        transform="translate(-9.61 -8.33)" />
    <path class="a4d0447c-2afd-4c75-ab34-1a8e0f600752"
        d="M58.32,41.72l2.23-.09A9.13,9.13,0,0,1,65,43.5,8.39,8.39,0,1,1,51.53,52c-.05-.2-.09-.4-.13-.6,0-.87,0-1.74,0-2.6A8.42,8.42,0,0,1,58.32,41.72Z"
        transform="translate(-9.61 -8.33)" />
</svg>