<svg xmlns="http://www.w3.org/2000/svg" viewBox="0 0 14.94 14.94"><defs><style>.a1d1861a-1eef-4955-a35e-186016fc316c{fill:#1c75bc;}.a3f4d766-7639-4913-8938-e86258ae27ff{fill:#ffbc00;}.f104fcc4-ce44-42ff-a73b-fd4afd2e8109{fill:#ff8500;}.a8370051-05ba-403c-9140-f86806c7f107{fill:#ffc200;}</style></defs><g id="ee28cc7e-3ff6-4f90-879d-e523debea6cb" data-name="Firebase"><circle class="a1d1861a-1eef-4955-a35e-186016fc316c" cx="7.47" cy="7.47" r="7.47"/></g><g id="a1250b67-e468-4008-bbe7-03e2e437a501" data-name="Layer 10"><path class="a3f4d766-7639-4913-8938-e86258ae27ff" d="M84.35,40.27l1.45-8.54a.25.25,0,0,1,.45-.09L89,36.29a.26.26,0,0,1,0,.29l-3.91,4.09Z" transform="translate(-80.91 -29.59)"/><path class="f104fcc4-ce44-42ff-a73b-fd4afd2e8109" d="M84.42,40.35,88,33.12a.27.27,0,0,1,.48,0L90,35.38a.32.32,0,0,1,0,.37l-4.09,5a.26.26,0,0,1-.32.08Z" transform="translate(-80.91 -29.59)"/><path class="a8370051-05ba-403c-9140-f86806c7f107" d="M84.49,39.93l6-6a.46.46,0,0,1,.77.24L92.4,40a.46.46,0,0,1-.23.49l-3.64,2a.43.43,0,0,1-.44,0L84.6,40.67A.46.46,0,0,1,84.49,39.93Z" transform="translate(-80.91 -29.59)"/></g></svg>