<svg id="b49c6e92-aacb-46a9-9326-ad502a32490b" data-name="Firebase" xmlns="http://www.w3.org/2000/svg" viewBox="0 0 93.22 93.22"><defs><style>.b1e28e4e-1468-4e29-9696-961aa2700334{fill:#1c75bc;}.fe6c9a00-7a2d-4f5d-9938-7096f5fcea80{fill:#fecb30;}.e7b38a00-1247-4deb-8685-abbad8104ebc{fill:#fea715;}.a71bceb1-a659-4739-95b4-6e57da75187f{fill:#f89e13;}.aea09385-4568-42e6-95b0-8282fc367f0e{fill:#fed55a;}.b1cdd9f5-bd90-4e65-8d03-ea7a7a84635f{fill:#edac2c;}.a6e8a8e8-9cbd-4455-a31d-d813495da42d{fill:#feba49;}.aa40ca2b-7215-4254-9209-dda91d29bbc5{fill:#eeae32;}.eade8ac9-2cfc-4e27-8859-b86ac1987ccb{fill:#febe4e;}.f4e81b23-cfde-4347-85ab-25e9ca0245d9{fill:#febd4c;}.afd19e87-d124-473d-9790-e5c5ca2a6671{fill:#fdbb4b;}.b3deb6a6-232f-4682-bf96-b6e71fad9710{fill:#f4b14f;}.b1e0e41e-d118-4e4a-8abb-efc7fea6aa4e{fill:#febf50;}.b8013905-26bf-4786-a27c-19a97086b476{fill:#febe4f;}.bb99d9f5-ff7f-4aef-814c-f89649f85782{fill:#feb942;}.ab424c13-6ab1-40c8-aa6a-361175d96078{fill:#f59a13;}.b21ed6d7-879e-4cc0-aae9-123b4996f632{fill:#eb7a12;}.f9308257-ade1-4e1d-b23b-f7e0893ca954{fill:#f59911;}.fca92621-2967-4537-9bdb-9ce703faf063{fill:#fbc230;}.e699b4b5-a99e-4546-8a62-12c8f7f35b63{fill:#f58410;}.badca52c-0f02-47b4-8a1d-0706d497e544{fill:#fea511;}.f27d7d05-e65e-4d9c-b963-2ef6bc0b1795{fill:#eb8b13;}.b7d67f76-6e6d-4704-8d45-207e8a4850b7{fill:#f17f10;}</style></defs><circle class="b1e28e4e-1468-4e29-9696-961aa2700334" cx="46.61" cy="46.61" r="46.61"/><path class="fe6c9a00-7a2d-4f5d-9938-7096f5fcea80" d="M69,30.75c.09.6.19,1.19.28,1.78s.18,1.22.28,1.83.19,1,.27,1.57c.12.75.22,1.49.34,2.23s.23,1.26.33,1.89.14,1,.22,1.49.2,1.1.29,1.66.14.9.21,1.35l.24,1.51.27,1.78c.15.9.31,1.81.46,2.72.18,1.1.34,2.2.52,3.3.11.7.25,1.41.36,2.11s.21,1.5.33,2.25c.07.42.18.84.24,1.26.1.61.18,1.23.27,1.85,0,.3.1.59.15.89.09.53.17,1.05.26,1.58s.19,1.2.29,1.8.2,1.27.31,1.91c.07.41.13.82.2,1.23s.11.69.17,1l-1.44.79c-.76.42-1.52.83-2.27,1.26L68.2,73.69l-2.8,1.54L62,77.14c-1.05.59-2.1,1.16-3.15,1.74l-3.64,2L53,82.13a4.5,4.5,0,0,1-4.11.33c-.72-.3-1.39-.71-2.08-1.08-.86-.48-1.71-1-2.57-1.47l-2.5-1.39c-1.08-.6-2.16-1.22-3.25-1.82l-2.83-1.59c-1.09-.6-2.17-1.22-3.25-1.83l-2.19-1.22L29,71.39l-.83-.49L26.58,70c.05,0,.09-.12.15-.17L50.32,46.19l10-10,6.06-6.05a1.52,1.52,0,0,1,2.31.17Z" transform="translate(-4.06 -2.71)"/><path class="e7b38a00-1247-4deb-8685-abbad8104ebc" d="M28.66,53.61v-.09c0-.05.07-.09.07-.14.09-.55.18-1.09.26-1.63.12-.72.23-1.43.35-2.15s.23-1.52.35-2.28.2-1.21.29-1.81a1.63,1.63,0,0,0,0-.31v-.13l0,0a.05.05,0,0,1,0,0l0-.19V44.7s.07,0,.07-.05c.07-.48.13-.95.2-1.43,0,0,0,0,0-.08.16-1,.31-2.07.47-3.1s.37-2.35.55-3.52.4-2.43.59-3.64c0-.21,0-.43,0-.65v0l.08-.15c.06-.32.13-.65.18-1,.14-.87.28-1.74.41-2.62,0-.29.05-.58.07-.87l.05-.28.06-.05-.06,0v-.08l0-.19v-.09a1.59,1.59,0,0,0,.12-.27c.11-.67.21-1.33.32-2,0-.11,0-.23,0-.34.16-1,.31-2,.47-3.08.13-.85.27-1.7.41-2.56.08-.52.14-1.06.25-1.58a1.48,1.48,0,0,1,1.27-1.12,1.55,1.55,0,0,1,1.53.76c.68,1.26,1.36,2.52,2,3.78l2,3.79,2.62,4.92.78,1.44a1.81,1.81,0,0,0-.18.23,14.37,14.37,0,0,1-.68,1.29,27.1,27.1,0,0,0-1.47,2.49l-1.68,3.23L39.3,40.53c-.13.25-.27.49-.4.73l-1.18,2.21-1,1.88-1.12,2.12c-.32.62-.64,1.25-1,1.87s-.72,1.34-1.08,2-.67,1.32-1,2c-.52,1-1,2-1.57,3-.29.55-.56,1.1-.87,1.64-.18.33-.45.6-.63.93-.35.6-.66,1.23-1,1.85s-.52,1-.8,1.53a6,6,0,0,1-.43.6c.08-.5.15-1,.23-1.49.12-.75.24-1.49.35-2.24.08-.46.14-.93.2-1.4,0-.21.09-.43.12-.64.09-.63.17-1.27.26-1.9.07-.4.15-.8.22-1.2A2.29,2.29,0,0,0,28.66,53.61Z" transform="translate(-4.06 -2.71)"/><path class="a71bceb1-a659-4739-95b4-6e57da75187f" d="M27.27,62.85a6,6,0,0,0,.43-.6c.28-.51.53-1,.8-1.53s.63-1.25,1-1.85c.18-.33.45-.6.63-.93.31-.54.58-1.09.87-1.64.53-1,1.05-2,1.57-3,.35-.66.68-1.32,1-2s.73-1.34,1.08-2,.66-1.25,1-1.87l1.12-2.12,1-1.88,1.18-2.21c.13-.24.27-.48.4-.73l1.41-2.72,1.68-3.23a27.1,27.1,0,0,1,1.47-2.49,14.37,14.37,0,0,0,.68-1.29,1.81,1.81,0,0,1,.18-.23c.24.44.47.89.7,1.33l-.46.84-1.35,2.54c-.25.49-.49,1-.76,1.47s-.68,1.15-1,1.72-.5.88-.74,1.33l-2.05,3.92c-.54,1-1.06,2.09-1.6,3.13s-1.14,2.16-1.7,3.24l-1.69,3.25-1.7,3.3c-.47.91-.95,1.82-1.42,2.74l-1.45,2.77c-.18.34-.36.68-.56,1s-.47.64-.67,1c-.37.66-.72,1.35-1.09,2-.13.23-.22.5-.5.6l0-.33c0-.08,0-.17,0-.26s0-.31,0-.47v-.09a.42.42,0,0,0,.08-.12l.12-.76Z" transform="translate(-4.06 -2.71)"/><path class="aea09385-4568-42e6-95b0-8282fc367f0e" d="M69,30.75l-.29-.42a1.52,1.52,0,0,0-2.31-.17L60.3,36.21l-10,10L26.73,69.83c-.06,0-.1.12-.15.17h0l-.19-.23c.06-.06.12-.13.18-.18L30.19,66q4.15-4.16,8.29-8.33l9.39-9.39,3-3,.05,0h0l0,0h0l0,0h0l0,0h0l0-.05h0l0,0h0l0,0h0l.05-.05h0l0,0h0l0,0h0l.05-.05h0l0,0h0l0,0h0l.05,0h0l0,0h0l0,0h0l.05,0h0l0-.05h0l0,0h0l0,0h0l.05-.05h0l0,0h0l0,0h0l.05,0h0l0,0h0l0,0h0l0,0h0l0,0,.23-.23,0,0h0l.05,0,.14-.14,0-.05h0l0,0h0l0,0,.84-.83,0,0h0l0,0,.14-.13,0,0h0l.05-.05c.11-.13.22-.27.34-.39l3.23-3.23.59-.57.09-.1.1-.14a1.34,1.34,0,0,0,.23-.16l7.78-7.78a1.54,1.54,0,0,1,2.52.44A3.13,3.13,0,0,1,69,30.75Z" transform="translate(-4.06 -2.71)"/><path class="b1cdd9f5-bd90-4e65-8d03-ea7a7a84635f" d="M29,71.39l1.23.67,2.19,1.22c1.08.61,2.16,1.23,3.25,1.83l2.83,1.59c1.09.6,2.17,1.22,3.25,1.82l2.5,1.39c.86.49,1.71,1,2.57,1.47.69.37,1.36.78,2.08,1.08A4.5,4.5,0,0,0,53,82.13l2.21-1.22,3.64-2c1-.58,2.1-1.15,3.15-1.74l3.41-1.91,2.8-1.54,3.34-1.87c.75-.43,1.51-.84,2.27-1.26l1.44-.79a.31.31,0,0,1-.16.48l-8.15,4.52-5.4,3-5.25,2.92c-1.2.67-2.4,1.34-3.61,2a4.29,4.29,0,0,1-1.66.47,5,5,0,0,1-3.12-.78c-1.18-.68-2.38-1.34-3.57-2L40,77.92l-4.17-2.34-3.15-1.77-1.22-.7a1.12,1.12,0,0,0-.22-.26l-2.26-1.28Z" transform="translate(-4.06 -2.71)"/><path class="a6e8a8e8-9cbd-4455-a31d-d813495da42d" d="M58.31,37.72l-.1.14h0c-.14-.23-.28-.46-.41-.7a2.2,2.2,0,0,0-.13-.36L56.16,34,53.88,29.7c-.59-1.11-1.16-2.22-1.74-3.33a2.25,2.25,0,0,0-.41-.55,1.48,1.48,0,0,0-2.3.3c-.68,1.21-1.3,2.44-1.94,3.67l-1.23,2.37c-.07.14-.13.29-.2.43l-.16.13-.11-.13-.37-.69-.7-1.33-.78-1.44-2.62-4.92-2-3.79c-.67-1.26-1.35-2.52-2-3.78a1.55,1.55,0,0,0-1.53-.76A1.48,1.48,0,0,0,34.45,17c-.11.52-.17,1.06-.25,1.58-.14.86-.28,1.71-.41,2.56-.16,1-.31,2.05-.47,3.08,0,.11,0,.23,0,.34l-.08,0L33.43,23c.12-.82.23-1.64.35-2.45.1-.65.22-1.29.33-1.93s.19-1.18.27-1.77a1.65,1.65,0,0,1,1.16-1.33,1.55,1.55,0,0,1,1.66.65c.31.49.56,1,.83,1.51L40.39,22l2.13,4L45,30.67c.3.55.59,1.09.9,1.68l.57-1.08q1.19-2.25,2.36-4.5c.18-.34.34-.68.53-1a1.52,1.52,0,0,1,2.6-.09,15.7,15.7,0,0,1,.83,1.51q1.1,2.07,2.17,4.14l2,3.76,1.28,2.42Z" transform="translate(-4.06 -2.71)"/><path class="aa40ca2b-7215-4254-9209-dda91d29bbc5" d="M29,71.39l0,.18,2.26,1.28a1.12,1.12,0,0,1,.22.26L28,71.22l-1.68-1,.18-.27h0l1.57.9Z" transform="translate(-4.06 -2.71)"/><path class="eade8ac9-2cfc-4e27-8859-b86ac1987ccb" d="M32,32.23c0,.22,0,.44,0,.65-.19,1.21-.4,2.42-.59,3.64S31,38.87,30.83,40s-.31,2.07-.47,3.1c0,0,0,0,0,.08h-.09c.09-.52.19-1,.27-1.57.16-1,.3-2,.46-3,.2-1.21.41-2.43.6-3.64.13-.89.25-1.78.38-2.67C31.94,32.27,32,32.25,32,32.23Z" transform="translate(-4.06 -2.71)"/><path class="f4e81b23-cfde-4347-85ab-25e9ca0245d9" d="M30,45.2a1.63,1.63,0,0,1,0,.31c-.09.6-.2,1.2-.29,1.81s-.24,1.52-.35,2.28S29.12,51,29,51.75c-.08.54-.17,1.08-.26,1.63,0,0,0,.09-.07.14,0-.33.08-.66.13-1,.15-1,.3-2,.46-2.93.19-1.24.39-2.48.59-3.71C29.89,45.66,29.93,45.43,30,45.2Z" transform="translate(-4.06 -2.71)"/><path class="afd19e87-d124-473d-9790-e5c5ca2a6671" d="M27.27,62.85,27,64.74l-.12.76a.42.42,0,0,1-.08.12c.05-.35.09-.69.14-1,.13-.88.27-1.77.41-2.66.1-.6.2-1.2.29-1.81L28,57.72h.08c-.06.47-.12.94-.2,1.4-.11.75-.23,1.49-.35,2.24C27.42,61.85,27.35,62.35,27.27,62.85Z" transform="translate(-4.06 -2.71)"/><path class="b3deb6a6-232f-4682-bf96-b6e71fad9710" d="M26.53,70l-.18.27L26,70.11l.6-3.75.08.08,0,.33c-.1.6-.19,1.2-.28,1.8l-.18,1.11-.06.3.19-.21Z" transform="translate(-4.06 -2.71)"/><path class="b1e0e41e-d118-4e4a-8abb-efc7fea6aa4e" d="M32.73,27.57c0,.29,0,.58-.07.87-.13.88-.27,1.75-.41,2.62,0,.33-.12.66-.18,1H32l.27-1.64c.15-.92.29-1.85.43-2.78C32.69,27.6,32.72,27.59,32.73,27.57Z" transform="translate(-4.06 -2.71)"/><path class="eade8ac9-2cfc-4e27-8859-b86ac1987ccb" d="M28.05,57.72H28l.36-2.39a.94.94,0,0,1,.06-.15h0c-.09.63-.17,1.27-.26,1.9C28.14,57.29,28.09,57.51,28.05,57.72Z" transform="translate(-4.06 -2.71)"/><path class="b8013905-26bf-4786-a27c-19a97086b476" d="M33.19,24.52l.08,0c-.11.67-.21,1.33-.32,2a1.59,1.59,0,0,1-.12.27c.08-.52.15-1,.23-1.55C33.1,25,33.15,24.77,33.19,24.52Z" transform="translate(-4.06 -2.71)"/><path class="f4e81b23-cfde-4347-85ab-25e9ca0245d9" d="M28.43,55.18h0l.27-1.57a2.29,2.29,0,0,1,0,.37C28.58,54.38,28.5,54.78,28.43,55.18Z" transform="translate(-4.06 -2.71)"/><path class="bb99d9f5-ff7f-4aef-814c-f89649f85782" d="M30.23,43.22h.09c-.07.48-.13,1-.2,1.43,0,0-.05,0-.07.05,0-.19,0-.38,0-.56S30.19,43.53,30.23,43.22Z" transform="translate(-4.06 -2.71)"/><path class="afd19e87-d124-473d-9790-e5c5ca2a6671" d="M26.71,66.44l-.08-.08.13-.65c0,.16,0,.31,0,.47S26.72,66.36,26.71,66.44Z" transform="translate(-4.06 -2.71)"/><path class="b8013905-26bf-4786-a27c-19a97086b476" d="M32.82,26.92l0,.19Z" transform="translate(-4.06 -2.71)"/><path class="bb99d9f5-ff7f-4aef-814c-f89649f85782" d="M30,44.79,30,45Z" transform="translate(-4.06 -2.71)"/><path class="eade8ac9-2cfc-4e27-8859-b86ac1987ccb" d="M32,32h.08l-.08.15Z" transform="translate(-4.06 -2.71)"/><path class="b8013905-26bf-4786-a27c-19a97086b476" d="M32.78,27.19l.06,0-.06.05Z" transform="translate(-4.06 -2.71)"/><path class="bb99d9f5-ff7f-4aef-814c-f89649f85782" d="M30,45l0,0Z" transform="translate(-4.06 -2.71)"/><path class="ab424c13-6ab1-40c8-aa6a-361175d96078" d="M26.39,68.57c.09-.6.18-1.2.28-1.8.28-.1.37-.37.5-.6.37-.67.72-1.36,1.09-2,.2-.35.46-.65.67-1s.38-.67.56-1l1.45-2.77c.47-.92.95-1.83,1.42-2.74l1.7-3.3,1.69-3.25c.56-1.08,1.14-2.15,1.7-3.24s1.06-2.09,1.6-3.13L41.1,39.8c.24-.45.49-.89.74-1.33s.68-1.14,1-1.72.51-1,.76-1.47L45,32.74l.46-.84.37.69-.7,1.32-1.46,2.8c-.81,1.55-1.64,3.11-2.46,4.66L40,43.55l-2.46,4.66c-.45.84-.88,1.7-1.33,2.55l-2.39,4.51-1.7,3.22-2.11,4c-.37.69-.74,1.38-1.1,2.07-.23.43-.44.86-.65,1.29l-.55,1-.47.84-.47.48Z" transform="translate(-4.06 -2.71)"/><path class="b21ed6d7-879e-4cc0-aae9-123b4996f632" d="M26.34,69.77l-.19.21.06-.3a1.08,1.08,0,0,0,.16-.2c.29-.51.57-1,.85-1.55a2.78,2.78,0,0,0,.27-.21l24-24a2.51,2.51,0,0,1,.32-.25,1.64,1.64,0,0,0,.14.22,1.3,1.3,0,0,0,.22.19s0,0,0,0h0l0,0h0l0,0h0l0,0h0l-.05,0h0l0,0h0l0,0h0l-.05.05h0l0,0h0l0,0h0l0,.05h0l-.05,0h0l0,0h0l0,0h0l-.05,0h0l0,0h0l0,0h0l-.05.05h0l0,0h0l0,0h0l-.05.05h0l0,0h0l0,0h0l0,.05h0l0,0h0l0,0h0l0,0h0l-.05,0-3,3-9.39,9.39Q34.34,61.79,30.19,66l-3.67,3.64C26.46,69.64,26.4,69.71,26.34,69.77Z" transform="translate(-4.06 -2.71)"/><path class="f9308257-ade1-4e1d-b23b-f7e0893ca954" d="M52.15,43.91a1.3,1.3,0,0,1-.22-.19,1.64,1.64,0,0,1-.14-.22l-.14-.33.29-.26,5.56-5.56c.08-.07.17-.12.26-.19l.41.7-.05.1-.59.57L54.3,41.76c-.12.12-.23.26-.34.39l-.05.05h0l0,0-.14.13,0,0h0l0,0-.84.83,0,0h0l0,0h0l0,.05-.14.14-.05,0h0l0,0-.23.23Z" transform="translate(-4.06 -2.71)"/><path class="fca92621-2967-4537-9bdb-9ce703faf063" d="M58.12,38l.05-.1h0Z" transform="translate(-4.06 -2.71)"/><path class="fca92621-2967-4537-9bdb-9ce703faf063" d="M52.67,43.45l0-.05Z" transform="translate(-4.06 -2.71)"/><path class="fca92621-2967-4537-9bdb-9ce703faf063" d="M52.48,43.63l.05,0Z" transform="translate(-4.06 -2.71)"/><path class="fca92621-2967-4537-9bdb-9ce703faf063" d="M52.43,43.68l0,0Z" transform="translate(-4.06 -2.71)"/><path class="fca92621-2967-4537-9bdb-9ce703faf063" d="M52.15,43.91h.05l0,0S52.15,43.93,52.15,43.91Z" transform="translate(-4.06 -2.71)"/><path class="fca92621-2967-4537-9bdb-9ce703faf063" d="M52.11,44l0,0Z" transform="translate(-4.06 -2.71)"/><path class="fca92621-2967-4537-9bdb-9ce703faf063" d="M51.93,44.19l0,0Z" transform="translate(-4.06 -2.71)"/><path class="fca92621-2967-4537-9bdb-9ce703faf063" d="M51.88,44.23l0,0Z" transform="translate(-4.06 -2.71)"/><path class="fca92621-2967-4537-9bdb-9ce703faf063" d="M51.79,44.32l0,0Z" transform="translate(-4.06 -2.71)"/><path class="fca92621-2967-4537-9bdb-9ce703faf063" d="M51.74,44.37l0,0Z" transform="translate(-4.06 -2.71)"/><path class="fca92621-2967-4537-9bdb-9ce703faf063" d="M51.7,44.42l0-.05Z" transform="translate(-4.06 -2.71)"/><path class="fca92621-2967-4537-9bdb-9ce703faf063" d="M51.65,44.46l.05,0Z" transform="translate(-4.06 -2.71)"/><path class="fca92621-2967-4537-9bdb-9ce703faf063" d="M51.6,44.51l0,0Z" transform="translate(-4.06 -2.71)"/><path class="fca92621-2967-4537-9bdb-9ce703faf063" d="M51.83,44.28l.05-.05Z" transform="translate(-4.06 -2.71)"/><path class="fca92621-2967-4537-9bdb-9ce703faf063" d="M51.51,44.6l.05,0Z" transform="translate(-4.06 -2.71)"/><path class="fca92621-2967-4537-9bdb-9ce703faf063" d="M51.46,44.65l0,0Z" transform="translate(-4.06 -2.71)"/><path class="fca92621-2967-4537-9bdb-9ce703faf063" d="M51.42,44.69l0,0Z" transform="translate(-4.06 -2.71)"/><path class="fca92621-2967-4537-9bdb-9ce703faf063" d="M51.37,44.74l.05-.05Z" transform="translate(-4.06 -2.71)"/><path class="fca92621-2967-4537-9bdb-9ce703faf063" d="M51.33,44.79l0,0Z" transform="translate(-4.06 -2.71)"/><path class="fca92621-2967-4537-9bdb-9ce703faf063" d="M51.56,44.55l0,0Z" transform="translate(-4.06 -2.71)"/><path class="fca92621-2967-4537-9bdb-9ce703faf063" d="M51.28,44.83l0,0Z" transform="translate(-4.06 -2.71)"/><path class="fca92621-2967-4537-9bdb-9ce703faf063" d="M51.23,44.88l.05-.05Z" transform="translate(-4.06 -2.71)"/><path class="fca92621-2967-4537-9bdb-9ce703faf063" d="M52,44.09l0,0Z" transform="translate(-4.06 -2.71)"/><path class="fca92621-2967-4537-9bdb-9ce703faf063" d="M51.14,45l0,0Z" transform="translate(-4.06 -2.71)"/><path class="fca92621-2967-4537-9bdb-9ce703faf063" d="M51.1,45l0-.05Z" transform="translate(-4.06 -2.71)"/><path class="fca92621-2967-4537-9bdb-9ce703faf063" d="M53.91,42.2l.05-.05Z" transform="translate(-4.06 -2.71)"/><path class="fca92621-2967-4537-9bdb-9ce703faf063" d="M51,45.11l0,0Z" transform="translate(-4.06 -2.71)"/><path class="fca92621-2967-4537-9bdb-9ce703faf063" d="M51,45.16l0,0Z" transform="translate(-4.06 -2.71)"/><path class="fca92621-2967-4537-9bdb-9ce703faf063" d="M50.91,45.2l.05,0Z" transform="translate(-4.06 -2.71)"/><path class="fca92621-2967-4537-9bdb-9ce703faf063" d="M52,44.14l.05,0Z" transform="translate(-4.06 -2.71)"/><path class="fca92621-2967-4537-9bdb-9ce703faf063" d="M53.87,42.25l0,0Z" transform="translate(-4.06 -2.71)"/><path class="fca92621-2967-4537-9bdb-9ce703faf063" d="M51.05,45.06l0,0Z" transform="translate(-4.06 -2.71)"/><path class="fca92621-2967-4537-9bdb-9ce703faf063" d="M53.68,42.43l0,0Z" transform="translate(-4.06 -2.71)"/><path class="fca92621-2967-4537-9bdb-9ce703faf063" d="M53.64,42.48l0,0Z" transform="translate(-4.06 -2.71)"/><path class="fca92621-2967-4537-9bdb-9ce703faf063" d="M52.76,43.36l0,0Z" transform="translate(-4.06 -2.71)"/><path class="fca92621-2967-4537-9bdb-9ce703faf063" d="M52.71,43.4l0,0Z" transform="translate(-4.06 -2.71)"/><path class="fca92621-2967-4537-9bdb-9ce703faf063" d="M52.06,44.05l0,0Z" transform="translate(-4.06 -2.71)"/><path class="fca92621-2967-4537-9bdb-9ce703faf063" d="M51.19,44.92l0,0Z" transform="translate(-4.06 -2.71)"/><path class="e699b4b5-a99e-4546-8a62-12c8f7f35b63" d="M28.29,65.89c.21-.43.42-.86.65-1.29.36-.69.73-1.38,1.1-2.07l2.11-4,1.7-3.22,2.39-4.51c.45-.85.88-1.71,1.33-2.55L40,43.55l1.14-2.18c.82-1.55,1.65-3.11,2.46-4.66l1.46-2.8.7-1.32.11.13.16-.13c.17.31.33.63.49.94l1.7,3.22,2,3.75c.19.37.39.73.58,1.09s.41.81.61,1.21a4.19,4.19,0,0,0-.34.28L28.78,65.37C28.61,65.54,28.45,65.72,28.29,65.89Z" transform="translate(-4.06 -2.71)"/><path class="badca52c-0f02-47b4-8a1d-0706d497e544" d="M51.42,42.8c-.2-.4-.4-.81-.61-1.21s-.39-.72-.58-1.09l-2-3.75-1.7-3.22c-.16-.31-.32-.63-.49-.94.07-.14.13-.29.2-.43l1.23-2.37c.64-1.23,1.26-2.46,1.94-3.67a1.48,1.48,0,0,1,2.3-.3,2.25,2.25,0,0,1,.41.55c.58,1.11,1.15,2.22,1.74,3.33L56.16,34l1.47,2.76a2.2,2.2,0,0,1,.13.36c-.09.07-.18.12-.26.19l-5.56,5.56-.29.26Z" transform="translate(-4.06 -2.71)"/><path class="f27d7d05-e65e-4d9c-b963-2ef6bc0b1795" d="M27.22,67.93c-.28.52-.56,1-.85,1.55a1.08,1.08,0,0,1-.16.2l.18-1.11.41-.35.47-.48Z" transform="translate(-4.06 -2.71)"/><path class="b7d67f76-6e6d-4704-8d45-207e8a4850b7" d="M27.22,67.93l.05-.19.47-.84.55-1c.16-.17.32-.35.49-.52l22.3-22.29a4.19,4.19,0,0,1,.34-.28l.23.37.14.33a2.51,2.51,0,0,0-.32.25l-24,24A2.78,2.78,0,0,1,27.22,67.93Z" transform="translate(-4.06 -2.71)"/></svg>