<svg id="a2b67e97-3095-49a7-aa80-af270a676826" data-name="java" xmlns="http://www.w3.org/2000/svg" viewBox="0 0 96.92 96.86"><defs><style>.ef17efbc-b38d-4be4-805c-3d5a373abbe3{fill:#5382a1;}.a7246966-a586-4700-af29-5ba2a69fd55c{fill:#799eb6;}.bd704463-74c3-4390-bb0f-667f295b625f{fill:#fafbfb;}.bc2e748c-fc6d-4299-9e33-7c887c7f7035{fill:#f9fafb;}.e1dd5f0f-f871-4b98-9f6b-fbf79c66a1d1{fill:#fbfbfc;}.bf109326-a814-40d7-954b-b608ad7ea158{fill:#f8f9fa;}.fb5cff85-f218-4861-83fa-9ddf1192a936{fill:#fbfcfc;}.ae09e007-c3cb-4c48-9d91-9b106a2005c1{fill:#f5f7f8;}.a2f99742-08bd-4aff-bf49-dacf9c916760{fill:#f9fafa;}</style></defs><path class="ef17efbc-b38d-4be4-805c-3d5a373abbe3" d="M55,98.43H46.82a4,4,0,0,0-.58-.2c-2-.32-3.93-.53-5.86-1A48.38,48.38,0,0,1,3.05,56.9c-.15-1.11-.34-2.21-.51-3.31V52.27c.07-1.15.16-2.31.18-3.46a11.56,11.56,0,0,0-.18-1.65V46.4c.12-.66.27-1.32.35-2A47.44,47.44,0,0,1,18.54,14.1,48.42,48.42,0,1,1,58.16,97.91C57.09,98.07,56,98.26,55,98.43ZM40.66,57.66A15.24,15.24,0,0,0,38,58.81c-.93.6-.84,1.4.11,2a4.14,4.14,0,0,0,1.35.66,46.8,46.8,0,0,0,4.8,1,43.32,43.32,0,0,0,11.87-.38c2.06-.33,4.1-.81,6.31-1.26-1-.63-1.71-1.14-2.48-1.6a1.17,1.17,0,0,0-.72-.07c-2.5.32-5,.75-7.49,1a39.19,39.19,0,0,1-10.54-.48,1.66,1.66,0,0,1-1.11-.84c-.1-.27.38-.76.59-1.15v0Zm10.15-8.24,0,.11,0-.06-.08,0c-.34-.63-.63-1.28-1-1.89-.93-1.46-2-2.85-2.83-4.35a6.92,6.92,0,0,1,.72-8.5,43.6,43.6,0,0,1,3.49-3.44c1.52-1.46,3.14-2.83,4.57-4.37A12.89,12.89,0,0,0,59.2,20a7,7,0,0,0-1.48-5.6.76.76,0,0,0,0,.46,9.83,9.83,0,0,1-1.05,6.94,20.69,20.69,0,0,1-5,5.47c-2.35,2-4.77,3.92-7,6-2,1.89-2.84,4.23-1.7,7a7.91,7.91,0,0,0,1.17,2.14c2.09,2.35,4.25,4.63,6.39,6.93C50.55,49.38,50.7,49.38,50.81,49.42ZM71.21,70c.32,1.2-.34,1.7-1.17,2.06a5.58,5.58,0,0,1-1.42.5c-2.53.46-5.06,1-7.62,1.27a108.84,108.84,0,0,1-21.88.2,67.43,67.43,0,0,1-7-1.32c-.36-.08-.65-.5-1-.76.29-.3.53-.75.89-.88,1.55-.59,3.13-1.09,4.6-1.58a3.52,3.52,0,0,0-1-.2,15,15,0,0,0-7.09,2c-.74.42-1.76.85-1.58,1.9s1.26,1.19,2.09,1.34c2.13.39,4.28.74,6.44,1a111.92,111.92,0,0,0,16.68.62A63.1,63.1,0,0,0,67.31,74a18.61,18.61,0,0,0,4.26-1.94C72.54,71.47,72.39,70.76,71.21,70ZM54,51.5a7.45,7.45,0,0,0,3-2.32c1.95-2.19,2-4.26.36-6.68a33,33,0,0,1-1.86-2.84,4,4,0,0,1,.26-4.61,10.73,10.73,0,0,1,1.82-2c1.68-1.33,3.43-2.56,5.17-3.8.71-.5,1.47-.93,2.42-1.53a3,3,0,0,0-.6,0A28.27,28.27,0,0,0,54.19,33a7.7,7.7,0,0,0-3,5.75c0,2.42,1.11,4.33,2.56,6.13C55.68,47.34,55.72,48.9,54,51.5Zm-11-1.38-.06-.19c-.87.09-1.75.14-2.61.28a23,23,0,0,0-7.32,2.43c-.32.17-.71.6-.69.89s.45.68.79.79a16.25,16.25,0,0,0,2.81.77,56.42,56.42,0,0,0,12.45.55c3.79-.22,7.58-.71,11.36-1.15a7.89,7.89,0,0,0,4.42-1.88c-.68,0-1.15,0-1.6.12a110.19,110.19,0,0,1-21.39,1.21,22.38,22.38,0,0,1-3.53-.57c-.23,0-.55-.32-.57-.52s.21-.52.42-.65a8.54,8.54,0,0,1,1.6-.8C40.3,50.94,41.62,50.54,42.93,50.12ZM42,64.58a17.9,17.9,0,0,0-1.81.9c-1.14.74-1.19,1.64,0,2.36a10.83,10.83,0,0,0,2.83,1.24,26.55,26.55,0,0,0,11.32.5c2.33-.37,4.6-1.09,6.9-1.65l0-.3C60,67.08,59,66.5,57.85,66a1.39,1.39,0,0,0-.73,0,51.76,51.76,0,0,1-5.89.73c-2.72,0-5.45-.24-8.17-.47C42.36,66.18,41.46,66,42,64.58Zm-5.52,13-.08.23a28.84,28.84,0,0,0,8.54,1.33c4.46.1,8.94.12,13.4,0A39.82,39.82,0,0,0,69.9,77.21,22.36,22.36,0,0,0,74,75.14c.43-.26.66-.87,1-1.31-1.36.46-2.52,1.1-3.75,1.54A54.42,54.42,0,0,1,57,78a98.92,98.92,0,0,1-17.55-.13C38.42,77.72,37.43,77.63,36.43,77.54Zm28.81-15.6a3.49,3.49,0,0,0,.73-.11c1-.37,2.09-.72,3.09-1.16a11.67,11.67,0,0,0,5-3.76,4.5,4.5,0,0,0,.26-5.3c-1.56-2.4-5.3-2.89-7.62-1.56-.13.07-.21.24-.42.48.53-.13.88-.24,1.25-.29a4.06,4.06,0,0,1,4,1.45A3.43,3.43,0,0,1,72,55.58,7.43,7.43,0,0,1,70.33,58C68.7,59.39,66.93,60.64,65.24,61.94Z" transform="translate(-2.54 -1.57)"/><path class="a7246966-a586-4700-af29-5ba2a69fd55c" d="M2.54,47.16a11.56,11.56,0,0,1,.18,1.65c0,1.15-.11,2.31-.18,3.46Z" transform="translate(-2.54 -1.57)"/><path class="bd704463-74c3-4390-bb0f-667f295b625f" d="M50.81,49.42c-.11,0-.26,0-.33-.11-2.14-2.3-4.3-4.58-6.39-6.93a7.91,7.91,0,0,1-1.17-2.14c-1.14-2.72-.29-5.06,1.7-7,2.23-2.12,4.65-4.05,7-6a20.69,20.69,0,0,0,5-5.47,9.83,9.83,0,0,0,1.05-6.94.76.76,0,0,1,0-.46A7,7,0,0,1,59.2,20a12.89,12.89,0,0,1-3.47,6.9c-1.43,1.54-3,2.91-4.57,4.37a43.6,43.6,0,0,0-3.49,3.44,6.92,6.92,0,0,0-.72,8.5c.86,1.5,1.9,2.89,2.83,4.35.38.61.67,1.26,1,1.89Z" transform="translate(-2.54 -1.57)"/><path class="bc2e748c-fc6d-4299-9e33-7c887c7f7035" d="M71.21,70c1.18.78,1.33,1.49.36,2.07A18.61,18.61,0,0,1,67.31,74,63.1,63.1,0,0,1,52.2,76.12a111.92,111.92,0,0,1-16.68-.62c-2.16-.23-4.31-.58-6.44-1-.83-.15-1.91-.31-2.09-1.34s.84-1.48,1.58-1.9a15,15,0,0,1,7.09-2,3.52,3.52,0,0,1,1,.2c-1.47.49-3,1-4.6,1.58-.36.13-.6.58-.89.88.32.26.61.68,1,.76a67.43,67.43,0,0,0,7,1.32A108.84,108.84,0,0,0,61,73.81c2.56-.26,5.09-.81,7.62-1.27A5.58,5.58,0,0,0,70,72C70.87,71.68,71.53,71.18,71.21,70Z" transform="translate(-2.54 -1.57)"/><path class="e1dd5f0f-f871-4b98-9f6b-fbf79c66a1d1" d="M54,51.5c1.76-2.6,1.72-4.16-.24-6.61-1.45-1.8-2.6-3.71-2.56-6.13a7.7,7.7,0,0,1,3-5.75A28.27,28.27,0,0,1,64.53,27.7a3,3,0,0,1,.6,0c-.95.6-1.71,1-2.42,1.53C61,30.46,59.22,31.69,57.54,33a10.73,10.73,0,0,0-1.82,2,4,4,0,0,0-.26,4.61,33,33,0,0,0,1.86,2.84C59,44.92,58.91,47,57,49.18A7.45,7.45,0,0,1,54,51.5Z" transform="translate(-2.54 -1.57)"/><path class="bf109326-a814-40d7-954b-b608ad7ea158" d="M42.93,50.12c-1.31.42-2.63.82-3.92,1.28a8.54,8.54,0,0,0-1.6.8c-.21.13-.45.45-.42.65s.34.47.57.52a22.38,22.38,0,0,0,3.53.57,110.19,110.19,0,0,0,21.39-1.21c.45-.08.92-.07,1.6-.12a7.89,7.89,0,0,1-4.42,1.88c-3.78.44-7.57.93-11.36,1.15a56.42,56.42,0,0,1-12.45-.55A16.25,16.25,0,0,1,33,54.32c-.34-.11-.77-.51-.79-.79s.37-.72.69-.89a23,23,0,0,1,7.32-2.43c.86-.14,1.74-.19,2.61-.28Z" transform="translate(-2.54 -1.57)"/><path class="fb5cff85-f218-4861-83fa-9ddf1192a936" d="M42,64.58c-.49,1.4.41,1.6,1.11,1.66,2.72.23,5.45.49,8.17.47A51.76,51.76,0,0,0,57.12,66a1.39,1.39,0,0,1,.73,0c1.1.52,2.17,1.1,3.26,1.65l0,.3c-2.3.56-4.57,1.28-6.9,1.65a26.55,26.55,0,0,1-11.32-.5,10.83,10.83,0,0,1-2.83-1.24c-1.16-.72-1.11-1.62,0-2.36A17.9,17.9,0,0,1,42,64.58Z" transform="translate(-2.54 -1.57)"/><path class="bd704463-74c3-4390-bb0f-667f295b625f" d="M40.68,57.64c-.22.39-.7.88-.6,1.15a1.66,1.66,0,0,0,1.11.84,39.19,39.19,0,0,0,10.54.48c2.5-.22,5-.65,7.49-1a1.17,1.17,0,0,1,.72.07c.77.46,1.52,1,2.48,1.6-2.21.45-4.25.93-6.31,1.26a43.32,43.32,0,0,1-11.87.38,46.8,46.8,0,0,1-4.8-1,4.14,4.14,0,0,1-1.35-.66c-1-.63-1-1.43-.11-2a15.24,15.24,0,0,1,2.68-1.15Z" transform="translate(-2.54 -1.57)"/><path class="ae09e007-c3cb-4c48-9d91-9b106a2005c1" d="M36.43,77.54c1,.09,2,.18,3,.29A98.92,98.92,0,0,0,57,78a54.42,54.42,0,0,0,14.25-2.59c1.23-.44,2.39-1.08,3.75-1.54-.32.44-.55,1-1,1.31a22.36,22.36,0,0,1-4.08,2.07,39.82,39.82,0,0,1-11.61,1.87c-4.46.14-8.94.12-13.4,0a28.84,28.84,0,0,1-8.54-1.33Z" transform="translate(-2.54 -1.57)"/><path class="a2f99742-08bd-4aff-bf49-dacf9c916760" d="M65.24,61.94c1.69-1.3,3.46-2.55,5.09-4A7.43,7.43,0,0,0,72,55.58a3.43,3.43,0,0,0-.46-3.89,4.06,4.06,0,0,0-4-1.45c-.37,0-.72.16-1.25.29.21-.24.29-.41.42-.48,2.32-1.33,6.06-.84,7.62,1.56a4.5,4.5,0,0,1-.26,5.3,11.67,11.67,0,0,1-5,3.76c-1,.44-2,.79-3.09,1.16A3.49,3.49,0,0,1,65.24,61.94Z" transform="translate(-2.54 -1.57)"/><path class="bd704463-74c3-4390-bb0f-667f295b625f" d="M50.79,49.43l.08,0,0,.06,0-.11Z" transform="translate(-2.54 -1.57)"/><path class="bd704463-74c3-4390-bb0f-667f295b625f" d="M40.66,57.66v-.07s0,0,0,0Z" transform="translate(-2.54 -1.57)"/></svg>