<svg id="fc18190d-3d10-4842-b773-c7cf01f9f033" data-name="Layer 1" xmlns="http://www.w3.org/2000/svg" viewBox="0 0 28.26 93.82"><path d="M15.2,46.4a9.79,9.79,0,0,0,6.12-2,9.27,9.27,0,0,0,3.15-5.29,59.57,59.57,0,0,0,.83-11.52q0-8.16.3-10.74a20.29,20.29,0,0,1,1.63-6.59,11.85,11.85,0,0,1,2.95-4A11.94,11.94,0,0,1,34.67,4a26.81,26.81,0,0,1,6.06-.49h2.73v7.67H42c-3.39,0-5.63.61-6.74,1.83s-1.66,3.94-1.66,8.17Q33.55,34,33,37.32a18.33,18.33,0,0,1-3,8,17.7,17.7,0,0,1-6.66,5,14.93,14.93,0,0,1,7.79,6.86q2.41,4.6,2.41,15.11c0,6.34.07,10.12.2,11.32q.39,3.32,2,4.64c1.06.88,3.13,1.31,6.23,1.31h1.51v7.67H40.73a22.11,22.11,0,0,1-6.93-.78,11.59,11.59,0,0,1-5.18-3.64A13.13,13.13,0,0,1,26,86.52a93.39,93.39,0,0,1-.66-12.64q0-8.79-.83-12.16a9.44,9.44,0,0,0-3.15-5.32,9.74,9.74,0,0,0-6.12-2Z" transform="translate(-15.2 -3.49)"/></svg>