<svg id="b2eb7084-6ee7-44cc-8ace-834054812c0b" data-name="nx" xmlns="http://www.w3.org/2000/svg" viewBox="0 0 99.08 99.08"><defs><style>.a5e82ec5-b995-408f-bf13-4a05c39a5935{fill:#00cfff;}.b5a5abe0-d76a-4a32-96c8-c060ed41e715{fill:#fff;}.fff9af6b-7268-4e86-94e4-0593954d54fb{fill:#002f56;}.fb6ce771-e2a1-4b0c-9c0b-282ed2aede82{fill:#4ac4e4;}.b244a8d0-54ac-4336-bfcc-00f9fe32a43d{fill:#97d8e8;}.b883964b-056f-4afb-b912-40bb1ab2a26d{fill:#043259;}</style></defs><circle class="a5e82ec5-b995-408f-bf13-4a05c39a5935" cx="49.54" cy="49.54" r="49.54"/><ellipse class="b5a5abe0-d76a-4a32-96c8-c060ed41e715" cx="70.85" cy="58.15" rx="15.8" ry="15.05"/><rect class="b5a5abe0-d76a-4a32-96c8-c060ed41e715" x="39.93" y="29.69" width="11.35" height="43.26"/><path class="fff9af6b-7268-4e86-94e4-0593954d54fb" d="M23.39,26.13,40.12,54.29l.07,0V41.64l.22.28q4.7,7.35,9.41,14.69a.38.38,0,0,1,0,.48Q46.38,62.44,43,67.82c-1,1.57-2,3.15-3,4.78Q31.62,59.15,23.37,45.75h-.08V73.84H11.56V26.13Z" transform="translate(-0.46 -0.46)"/><path class="fff9af6b-7268-4e86-94e4-0593954d54fb" d="M51.89,26.13c0,.12,0,.24,0,.36V37.94c0,.14,0,.28,0,.44H40.21V26.13Z" transform="translate(-0.46 -0.46)"/><path class="fff9af6b-7268-4e86-94e4-0593954d54fb" d="M40.22,39.48h11.3a.58.58,0,0,1,.56.3q2.28,3.6,4.58,7.2l.14.21A2.31,2.31,0,0,0,57,47a16.82,16.82,0,0,1,12.3-7.39A16.3,16.3,0,0,1,82.58,44a17.49,17.49,0,0,1,5.64,10.74,12.55,12.55,0,0,1,.1,2.74A2.15,2.15,0,0,1,86,59.4a2.21,2.21,0,0,1-2.1-2.16,2.67,2.67,0,0,0-2-2.7c-.81-.31-1.62-.6-2.42-.94a4.58,4.58,0,0,1-2.09-1.88,8.88,8.88,0,0,0-1.73-2.26A6,6,0,0,0,72.1,48.1a8.65,8.65,0,0,0-9.55,8.48A2.31,2.31,0,0,0,63,57.92q3.94,6.19,7.88,12.4l2.07,3.25c0,.07.09.16.18.29H62.15a.63.63,0,0,1-.61-.34c-1.58-2.4-3.17-4.79-4.78-7.21a3,3,0,0,0-.18.24l-4.56,7a.5.5,0,0,1-.47.31H40.49l1.71-2.68L51.14,57.1a.41.41,0,0,0,0-.54q-5.35-8.36-10.7-16.73Z" transform="translate(-0.46 -0.46)"/><path class="fb6ce771-e2a1-4b0c-9c0b-282ed2aede82" d="M64.05,53.41A7.35,7.35,0,0,1,67.14,50a8,8,0,0,1,6.3-.82,4.8,4.8,0,0,1,3,2.49,6.5,6.5,0,0,0,4,3.22,13.19,13.19,0,0,1,1.47.58,1.89,1.89,0,0,1,1.21,2.28,4,4,0,0,1-1.9-.87c-.2-.16-.39-.33-.6-.48a1.51,1.51,0,0,0-1.27-.29,2.43,2.43,0,0,1-2.92-1.43,7.46,7.46,0,0,0-12.13-1.48c-.07.08-.15.15-.23.23Z" transform="translate(-0.46 -0.46)"/><path class="b244a8d0-54ac-4336-bfcc-00f9fe32a43d" d="M63.85,55.49a11.88,11.88,0,0,1,1-1.59,6.26,6.26,0,0,1,4.46-2.23,6.61,6.61,0,0,1,6,2.73v.06a2.63,2.63,0,0,1-1.57,0,21.51,21.51,0,0,1-2.45-.85,6.3,6.3,0,0,0-7.11,1.55,3.47,3.47,0,0,1-.34.32Z" transform="translate(-0.46 -0.46)"/><path class="b883964b-056f-4afb-b912-40bb1ab2a26d" d="M88.41,59.61a4,4,0,0,1-.71,2.88,1.09,1.09,0,0,1-1.17.44A.82.82,0,0,1,86,61.62a4.74,4.74,0,0,1,1-.89c.24-.18.54-.29.77-.47A6.51,6.51,0,0,0,88.41,59.61Z" transform="translate(-0.46 -0.46)"/><path class="b244a8d0-54ac-4336-bfcc-00f9fe32a43d" d="M63.79,55.65l.06-.16h0l-.08.14Z" transform="translate(-0.46 -0.46)"/><path class="fb6ce771-e2a1-4b0c-9c0b-282ed2aede82" d="M64.1,53.46l-.07,0,0-.09Z" transform="translate(-0.46 -0.46)"/><polygon class="fb6ce771-e2a1-4b0c-9c0b-282ed2aede82" points="63.51 53.14 63.52 53.17 63.5 53.16 63.51 53.14"/><path class="b244a8d0-54ac-4336-bfcc-00f9fe32a43d" d="M63.79,55.64a0,0,0,0,0,0,0h0l0,0Z" transform="translate(-0.46 -0.46)"/></svg>