<svg id="b99fc884-0d39-4d78-a91a-06be1f1803a5" data-name="Layer 9" xmlns="http://www.w3.org/2000/svg" viewBox="0 0 88.04 88.04"><defs><style>.a90badfb-129c-41c8-8ac7-75cd7e7eff8e{fill:#4eea73;}.f9ff9830-9aa5-4c3c-a5d9-dcc6c82470ac{fill:#030202;}.ba66bc62-4ce9-4404-a6c9-6e20a928b074{fill:#73a627;}.e4c1990e-19da-4a49-9515-1c5588a9f60a{fill:#ba1141;}.f0110434-11f6-420f-8a96-7dcbc856433c{fill:#b91141;}.f89ec71b-0f08-47aa-9a22-42e1b08fe9c2{fill:#b81141;}</style></defs><circle class="a90badfb-129c-41c8-8ac7-75cd7e7eff8e" cx="44.02" cy="44.02" r="44.02"/><path class="f9ff9830-9aa5-4c3c-a5d9-dcc6c82470ac" d="M36.15,36.89c-1-.28-1.7-.59-2-1.48,0-.13-.34-.15-.5-.26-.37-.24-.93-.42-1.06-.76-.33-.83-1.22-1.22-1.52-1.91-.49-1.17-1.65-2-1.57-3.46,0-.19-.23-.37-.29-.58a9.43,9.43,0,0,0-.45-1.62c-.54-1.07-.14-2.16-.25-3.22-.13-1.29.32-2.07,1.63-2.2a3.47,3.47,0,0,0,.95-.37,3.77,3.77,0,0,1,.59-.32c1.19-.28,2.39-.52,3.59-.8.29-.07.56-.32.83-.32,1.4,0,2.8-.45,4.21,0a7.66,7.66,0,0,0,1,.14s.06,0,.09,0c1.38.41,3,.13,4.14,1.3.09.1.21.24.32.25,1.84.08,2.53,1.56,3.37,2.81a17.55,17.55,0,0,1,1.07,2.21,6.86,6.86,0,0,1,.53-1.21c.8-1.14,1.61-2.27,2.49-3.34.23-.27.74-.29,1.11-.45a3.19,3.19,0,0,0,.64-.32c.25-.17.45-.49.72-.56,1-.28,2.13-.5,3.2-.72a7.22,7.22,0,0,1,1.52-.21c1.33,0,2.66.07,4,.16a6.24,6.24,0,0,1,1.26.3,21.53,21.53,0,0,1,3.22.88,10.05,10.05,0,0,0,2,.75c.93.18,1.25.89,1.1,1.86a4.09,4.09,0,0,0,.09,1.15c0,.2.16.41.11.57-.31,1.15-.64,2.3-1,3.44-.07.25-.17.5-.24.76s0,.39,0,.49c-.87,1-1,2.54-2.15,3.35a2.74,2.74,0,0,0-.53.71c-.12.18-.18.44-.34.57-1.08.86-2.17,1.69-3.31,2.56a5.4,5.4,0,0,0,.45.33,9.33,9.33,0,0,1,4.68,8.15,2.68,2.68,0,0,0,1.17,2.25A9.48,9.48,0,0,1,72.6,60.52a7.66,7.66,0,0,0-.95,2c-.75,2.17-1.28,4.42-2.19,6.51a9.29,9.29,0,0,1-5.08,4.79,7.45,7.45,0,0,0-.71.43l-5.31,3a3.28,3.28,0,0,0-.58.32,14.09,14.09,0,0,1-7.15,3.11,8.47,8.47,0,0,1-7-2.31,7.85,7.85,0,0,0-2.54-1.56,5.85,5.85,0,0,1-1.2-.6c-2.22-1.41-4.51-2.71-6.6-4.28C31.43,70.5,30.58,68.34,30,66a18,18,0,0,0-2.23-5.9,9.44,9.44,0,0,1,2.16-12.65,2.79,2.79,0,0,0,.82-1.52c.27-1.11.29-2.29.58-3.39a8.87,8.87,0,0,1,4-5.11ZM39.66,21,39.41,21l.17.15.2.81-2.78-1,.51,1-2.43-.33-.1-.07.11.06.4.79L32.15,22l.53.91-2.45.18,1,2.1-1.31.14,1.78,1.93-1.33.12,1.81,1.92-1,.26,2,1.7L32,31.47l2.75,1.67-1,.37,2.8,1.12-.76.58,3.12.49-.48.67.06.24c1.39-.24,2.81-.39,4.17-.76a4.56,4.56,0,0,0,3-2.58A.91.91,0,0,0,45.48,32c-.77-.65-1.47-1.4-2.3-2-2.16-1.47-4.37-2.86-6.49-4.23,0,0,.05,0,.13,0a2.9,2.9,0,0,1,.48.14A36.45,36.45,0,0,1,46,30.77c1,.76,1.34.8,2.13-.2a3.72,3.72,0,0,0,.77-1.88c.17-2.37-1.11-4.12-2.64-5.84l-.41.8-1.93-2-.21,1.07-1.79-1.52-.24,1ZM61,21l-2.07,1.17-.2-1-1.79,1.48-.25-1.06-1.89,2-.41-.79a9.14,9.14,0,0,0-2.61,4.59,3.29,3.29,0,0,0,1.3,3.65.86.86,0,0,0,1.19,0,34.81,34.81,0,0,1,8.81-5,7.69,7.69,0,0,1,.85-.28,2.45,2.45,0,0,1-.82.65,38.37,38.37,0,0,0-7.41,5.09c-1.15,1.06-1.18,1.49-.15,2.71a5,5,0,0,0,1.05,1,9.32,9.32,0,0,0,5.67,1.21l-.57-.69,3.15-.5-.71-.59,2.72-1.09-1-.41,2.54-1.55-.08-.17-.9-.14,2-1.7-.92-.29,1.75-1.89L69,27.24l1.76-1.93-1.3-.11,1-2.12L68,22.9l.53-.91-3.31.38c.16-.31.28-.55.39-.79,0,0,.06,0,.08,0s0,0,0-.06l-.08.08-2.43.35.52-1-2.73,1c.06-.32.11-.54.16-.77l.17-.16ZM48.9,50.6a7.85,7.85,0,0,0,0-.84,5.5,5.5,0,0,0-6.07-5.2,8.16,8.16,0,0,0-7.07,9.51,5.44,5.44,0,0,0,5.14,4.6C45.14,58.9,48.91,55.09,48.9,50.6Zm16,1.76a8.42,8.42,0,0,0-5.28-7.71A5.64,5.64,0,0,0,51.71,49a8.33,8.33,0,0,0,5,8.82A5.72,5.72,0,0,0,64.92,52.36ZM57.39,63.42a5,5,0,0,0-.92-2.83,7,7,0,0,0-7.21-3.11,6.4,6.4,0,0,0-5.41,4.13,5.81,5.81,0,0,0,1,6.28,7.3,7.3,0,0,0,8.88,1.69A6.35,6.35,0,0,0,57.39,63.42Zm11.34,1A26.53,26.53,0,0,0,68,61.32a2.1,2.1,0,0,0-2.83-1.39,5.46,5.46,0,0,0-1.52.67c-3.22,2.18-5.38,5-5.74,9-.19,2,.75,3.11,2.8,3.18C64.09,72.93,68.74,69.26,68.73,64.4Zm-36.87-.3-.15,0a28.87,28.87,0,0,0,.71,3.09,8,8,0,0,0,7.11,5.41c1.83,0,2.62-.79,2.65-2.61a10,10,0,0,0-6.09-8.85c-2.64-1.07-4.22,0-4.23,2.84ZM50.17,44A10,10,0,0,0,55,43.06c2-1.1,2.26-2.94.53-4.48a7.87,7.87,0,0,0-10.32-.16c-1.71,1.44-1.64,3,.2,4.24A8.52,8.52,0,0,0,50.17,44Zm.52,28.07-.06.25a13,13,0,0,0-6.31,1.45c-1.09.7-1.18,1.37-.34,2.32a8.2,8.2,0,0,0,12.34,0c1.09-1.25,1-2.23-.61-2.76S52.37,72.47,50.69,72.07ZM66.33,51.65a29.38,29.38,0,0,0,.5,3.86,22.66,22.66,0,0,0,1.49,4.16c.42.88,1.08.82,1.74.07a7.58,7.58,0,0,0-1.59-11.12c-.78-.49-1.36-.35-1.64.52A23.18,23.18,0,0,0,66.33,51.65Zm-32.8.57a22,22,0,0,0-.32-2.57c-.29-1.21-1-1.43-2-.72A7.54,7.54,0,0,0,29.29,59.1a7.72,7.72,0,0,0,1.48,1.36,7.38,7.38,0,0,0,1.38-1.6A18.08,18.08,0,0,0,33.53,52.22Zm9.26-14.14a7.72,7.72,0,0,0-10,7.49c0,.83.23,1,1,.73a2.84,2.84,0,0,0,.53-.25,31.17,31.17,0,0,0,7.93-6.81A6.26,6.26,0,0,0,42.79,38.08ZM67,46.63c.6-5-3-9.23-8.82-8.63-1.21.13-1.33.36-.58,1.29a29.41,29.41,0,0,0,8.18,7A5.16,5.16,0,0,0,67,46.63Z" transform="translate(-6.24 -6.07)"/><path class="ba66bc62-4ce9-4404-a6c9-6e20a928b074" d="M65.57,21.58l-.39.79L68.49,22,68,22.9l2.47.18-1,2.12,1.3.11L69,27.24l1.29.14-1.75,1.89.92.29-2,1.7.9.14.08.17L65.9,33.12l1,.41-2.72,1.09.71.59-3.15.5.57.69a9.32,9.32,0,0,1-5.67-1.21,5,5,0,0,1-1.05-1c-1-1.22-1-1.65.15-2.71a38.37,38.37,0,0,1,7.41-5.09,2.45,2.45,0,0,0,.82-.65,7.69,7.69,0,0,0-.85.28,34.81,34.81,0,0,0-8.81,5,.86.86,0,0,1-1.19,0,3.29,3.29,0,0,1-1.3-3.65,9.14,9.14,0,0,1,2.61-4.59l.41.79,1.89-2,.25,1.06,1.79-1.48.2,1L61,21l.09.11-.16.77,2.73-1-.52,1,2.43-.35Z" transform="translate(-6.24 -6.07)"/><path class="ba66bc62-4ce9-4404-a6c9-6e20a928b074" d="M35.08,21.58l2.43.33-.51-1,2.78,1-.2-.81.08-.1,2,1.16.24-1,1.79,1.52.21-1.07,1.93,2,.41-.8c1.53,1.72,2.81,3.47,2.64,5.84a3.72,3.72,0,0,1-.77,1.88c-.79,1-1.13,1-2.13.2a36.45,36.45,0,0,0-8.72-4.83,2.9,2.9,0,0,0-.48-.14c-.08,0-.17,0-.13,0C38.81,27.18,41,28.57,43.18,30c.83.57,1.53,1.32,2.3,2a.91.91,0,0,1,.23,1.26,4.56,4.56,0,0,1-3,2.58c-1.36.37-2.78.52-4.17.76l-.06-.24.48-.67-3.12-.49.76-.58-2.8-1.12,1-.37L32,31.47l1.14-.21-2-1.7,1-.26-1.81-1.92,1.33-.12-1.78-1.93,1.31-.14-1-2.1,2.45-.18L32.15,22l3.34.36-.4-.79Z" transform="translate(-6.24 -6.07)"/><path class="e4c1990e-19da-4a49-9515-1c5588a9f60a" d="M48.9,50.6c0,4.49-3.76,8.3-8,8.07a5.44,5.44,0,0,1-5.14-4.6,8.16,8.16,0,0,1,7.07-9.51,5.5,5.5,0,0,1,6.07,5.2A7.85,7.85,0,0,1,48.9,50.6Z" transform="translate(-6.24 -6.07)"/><path class="e4c1990e-19da-4a49-9515-1c5588a9f60a" d="M64.92,52.36a5.72,5.72,0,0,1-8.2,5.49,8.33,8.33,0,0,1-5-8.82,5.64,5.64,0,0,1,7.93-4.38A8.42,8.42,0,0,1,64.92,52.36Z" transform="translate(-6.24 -6.07)"/><path class="e4c1990e-19da-4a49-9515-1c5588a9f60a" d="M57.39,63.42a6.35,6.35,0,0,1-3.61,6.16,7.3,7.3,0,0,1-8.88-1.69,5.81,5.81,0,0,1-1-6.28,6.4,6.4,0,0,1,5.41-4.13,7,7,0,0,1,7.21,3.11A5,5,0,0,1,57.39,63.42Z" transform="translate(-6.24 -6.07)"/><path class="e4c1990e-19da-4a49-9515-1c5588a9f60a" d="M68.73,64.4c0,4.86-4.64,8.53-8,8.41-2.05-.07-3-1.14-2.8-3.18.36-4,2.52-6.85,5.74-9a5.46,5.46,0,0,1,1.52-.67A2.1,2.1,0,0,1,68,61.32,26.53,26.53,0,0,1,68.73,64.4Z" transform="translate(-6.24 -6.07)"/><path class="e4c1990e-19da-4a49-9515-1c5588a9f60a" d="M31.86,64.1V64c0-2.85,1.59-3.91,4.23-2.84A10,10,0,0,1,42.18,70c0,1.82-.82,2.59-2.65,2.61a8,8,0,0,1-7.11-5.41,28.87,28.87,0,0,1-.71-3.09Z" transform="translate(-6.24 -6.07)"/><path class="f0110434-11f6-420f-8a96-7dcbc856433c" d="M50.17,44a8.52,8.52,0,0,1-4.81-1.34c-1.84-1.26-1.91-2.8-.2-4.24a7.87,7.87,0,0,1,10.32.16C57.21,40.12,57,42,55,43.06A10,10,0,0,1,50.17,44Z" transform="translate(-6.24 -6.07)"/><path class="f0110434-11f6-420f-8a96-7dcbc856433c" d="M50.69,72.07c1.68.4,3.39.68,5,1.24s1.7,1.51.61,2.76a8.2,8.2,0,0,1-12.34,0c-.84-1-.75-1.62.34-2.32a13,13,0,0,1,6.31-1.45Z" transform="translate(-6.24 -6.07)"/><path class="f89ec71b-0f08-47aa-9a22-42e1b08fe9c2" d="M66.33,51.65a23.18,23.18,0,0,1,.5-2.51c.28-.87.86-1,1.64-.52a7.58,7.58,0,0,1,1.59,11.12c-.66.75-1.32.81-1.74-.07a22.66,22.66,0,0,1-1.49-4.16A29.38,29.38,0,0,1,66.33,51.65Z" transform="translate(-6.24 -6.07)"/><path class="f0110434-11f6-420f-8a96-7dcbc856433c" d="M33.53,52.22a18.08,18.08,0,0,1-1.38,6.64,7.38,7.38,0,0,1-1.38,1.6,7.72,7.72,0,0,1-1.48-1.36,7.54,7.54,0,0,1,1.95-10.17c1-.71,1.68-.49,2,.72A22,22,0,0,1,33.53,52.22Z" transform="translate(-6.24 -6.07)"/><path class="f89ec71b-0f08-47aa-9a22-42e1b08fe9c2" d="M42.79,38.08a6.26,6.26,0,0,1-.57,1.16,31.17,31.17,0,0,1-7.93,6.81,2.84,2.84,0,0,1-.53.25c-.78.27-1,.1-1-.73A7.72,7.72,0,0,1,42.79,38.08Z" transform="translate(-6.24 -6.07)"/><path class="f0110434-11f6-420f-8a96-7dcbc856433c" d="M67,46.63a5.16,5.16,0,0,1-1.22-.33,29.41,29.41,0,0,1-8.18-7c-.75-.93-.63-1.16.58-1.29C64,37.4,67.6,41.68,67,46.63Z" transform="translate(-6.24 -6.07)"/><path class="ba66bc62-4ce9-4404-a6c9-6e20a928b074" d="M39.58,21.14,39.41,21l.25.05Z" transform="translate(-6.24 -6.07)"/><path class="ba66bc62-4ce9-4404-a6c9-6e20a928b074" d="M61,21l.26-.05-.17.16Z" transform="translate(-6.24 -6.07)"/><path class="ba66bc62-4ce9-4404-a6c9-6e20a928b074" d="M35.09,21.57,35,21.51l.1.07Z" transform="translate(-6.24 -6.07)"/><path class="ba66bc62-4ce9-4404-a6c9-6e20a928b074" d="M65.57,21.57l.08-.08s0,.05,0,.06-.05,0-.08,0Z" transform="translate(-6.24 -6.07)"/></svg>