<svg id="f31f5fc8-96cb-4fc2-b499-1c7059a09f13" data-name="reactOne" xmlns="http://www.w3.org/2000/svg" viewBox="0 0 96.99 97.04"><defs><style>.a5e41a8f-805b-48c5-ae1b-1733ef9c39cd{fill:#222323;}.edd6c6de-6fc4-4afa-8f4d-ef77bff7b693{fill:#60d7f7;}.a75aa859-4147-4464-b698-ad1cdab6cea6{fill:#222424;}.f97ba714-b6ea-4fc0-8bfd-dd16e719ff75{fill:#24292a;}.a7c2d549-88bf-4eb4-8884-4c5fce906e50{fill:#232627;}.b127ed47-4117-45e6-a6dc-65e89c894d9e{fill:#232425;}.e0a17344-4f47-4e73-8810-f3db8c080219{fill:#60d8f8;}</style></defs><path class="a5e41a8f-805b-48c5-ae1b-1733ef9c39cd" d="M98.93,45.93v8.36a3.19,3.19,0,0,0-.24.65A48.53,48.53,0,0,1,59.16,97.69c-1.56.3-3.12.55-4.67.83H46.13a3.25,3.25,0,0,0-.56-.22c-1.59-.26-3.19-.43-4.77-.75A47,47,0,0,1,16.29,84.44C4.91,72.88.3,58.94,2.45,42.88A45.86,45.86,0,0,1,13.8,18.2,47.53,47.53,0,0,1,48.32,1.54,46.6,46.6,0,0,1,77,9.41,47.7,47.7,0,0,1,98.08,41.14C98.39,42.73,98.65,44.33,98.93,45.93ZM73.67,37.65s0,0,0-.07.06-.36.1-.54c1-4.46,1.7-8.93.75-13.49-1.22-5.79-5.58-8.4-11.24-6.7A26.61,26.61,0,0,0,54,22.27c-1,.81-1.91,1.67-2.86,2.5-1-.9-2-1.77-3-2.59a26.32,26.32,0,0,0-9.35-5.4c-5.28-1.51-9.35.77-10.81,6a19.7,19.7,0,0,0-.51,7.64c.29,2.42.71,4.83,1.07,7.27-1.66.6-3.4,1.16-5.08,1.85-3.31,1.37-6.44,3-8.78,5.86a7.68,7.68,0,0,0-.09,10.43A9.45,9.45,0,0,0,16.87,58c2.3,1.41,4.65,2.76,7.06,4a42,42,0,0,0,4.83,1.77c-.05.24-.08.42-.12.59-1,4.46-1.72,8.93-.77,13.5,1.22,5.89,5.66,8.5,11.39,6.71a23.62,23.62,0,0,0,7.38-4c1.56-1.2,3-2.51,4.57-3.79,1.2,1,2.36,2.09,3.58,3.07a24.79,24.79,0,0,0,9,4.94c5.09,1.34,9.07-.91,10.5-6a23.16,23.16,0,0,0,.35-9.7c-.26-1.8-.63-3.58-1-5.39l1.1-.35a33,33,0,0,0,10.6-5.15,14.73,14.73,0,0,0,1.55-1.4c3.82-3.92,3.77-8.72-.4-12.43a31.56,31.56,0,0,0-6.32-4.1A65,65,0,0,0,73.67,37.65Z" transform="translate(-1.94 -1.48)"/><path class="edd6c6de-6fc4-4afa-8f4d-ef77bff7b693" d="M73.67,37.65a65,65,0,0,1,6.52,2.58,31.56,31.56,0,0,1,6.32,4.1c4.17,3.71,4.22,8.51.4,12.43a14.73,14.73,0,0,1-1.55,1.4,33,33,0,0,1-10.6,5.15l-1.1.35c.33,1.81.7,3.59,1,5.39a23.16,23.16,0,0,1-.35,9.7c-1.43,5-5.41,7.3-10.5,6a24.79,24.79,0,0,1-9-4.94c-1.22-1-2.38-2-3.58-3.07-1.53,1.28-3,2.59-4.57,3.79a23.62,23.62,0,0,1-7.38,4c-5.73,1.79-10.17-.82-11.39-6.71-.95-4.57-.24-9,.77-13.5,0-.17.07-.35.12-.59A42,42,0,0,1,23.93,62c-2.41-1.19-4.76-2.54-7.06-4a9.45,9.45,0,0,1-2.19-2.14,7.68,7.68,0,0,1,.09-10.43c2.34-2.82,5.47-4.49,8.78-5.86,1.68-.69,3.42-1.25,5.08-1.85-.36-2.44-.78-4.85-1.07-7.27a19.7,19.7,0,0,1,.51-7.64c1.46-5.27,5.53-7.55,10.81-6a26.32,26.32,0,0,1,9.35,5.4c1,.82,1.93,1.69,3,2.59,1-.83,1.88-1.69,2.86-2.5a26.61,26.61,0,0,1,9.22-5.42c5.66-1.7,10,.91,11.24,6.7,1,4.56.25,9-.75,13.49,0,.18-.07.36-.1.54S73.67,37.65,73.67,37.65ZM51.16,63h0c2.05,0,4.1.05,6.15,0a1.94,1.94,0,0,0,1.38-.8C60.83,58.63,62.91,55,65,51.37a1.51,1.51,0,0,0,0-1.28q-3.12-5.55-6.37-11a1.54,1.54,0,0,0-1.13-.62q-6.26-.06-12.52,0a1.69,1.69,0,0,0-1.21.67c-2.15,3.61-4.25,7.26-6.32,10.92a1.53,1.53,0,0,0,0,1.29c2.06,3.66,4.16,7.31,6.31,10.92A1.83,1.83,0,0,0,45,63C47.06,63.08,49.11,63,51.16,63ZM29.52,60.45c1.27-3.17,2.5-6.22,3.7-9.27a1.19,1.19,0,0,0,.05-.83c-1.21-3.08-2.46-6.16-3.75-9.36a30.17,30.17,0,0,0-10.39,4.77c-4.22,3.25-4.21,6.68,0,9.92A31.26,31.26,0,0,0,29.52,60.45ZM72.86,41c-1.3,3.22-2.54,6.26-3.72,9.33a1.9,1.9,0,0,0,.16,1.22c1,2.77,2.12,5.52,3.18,8.28.09.22.2.44.34.76a50.21,50.21,0,0,0,5.48-2.11,30.39,30.39,0,0,0,6-3.77c2.91-2.52,2.82-5.39,0-8C81,43.64,77,42.23,72.86,41ZM48.8,74.33C47,72,45.1,69.83,43.41,67.54a3.21,3.21,0,0,0-2.95-1.64,13.16,13.16,0,0,1-2.39-.31l-6.12-1C31,68.69,30.21,72.79,31,77s3.29,5.65,7.17,4.45C42.45,80.11,45.67,77.24,48.8,74.33Zm21.66-9.67a1.5,1.5,0,0,0-.34-.08c-3.18.48-6.37,1-9.54,1.47a1.32,1.32,0,0,0-.75.38c-2.07,2.61-4.11,5.23-6.23,7.93.64.58,1.32,1.24,2,1.85a24.38,24.38,0,0,0,8.45,5.2c3.83,1.18,6.24-.16,7.14-4C72.24,73.08,71.38,68.88,70.46,64.66ZM48.87,26.94c-2-1.58-4-3.29-6.16-4.72A18,18,0,0,0,38,20c-3.59-1.11-5.91.31-6.82,3.94a21.08,21.08,0,0,0-.1,8.41c.23,1.54.57,3,.85,4.48,3.44-.5,6.7-1,10-1.45a1.24,1.24,0,0,0,.71-.4C44.62,32.37,46.65,29.78,48.87,26.94Zm4.72.15c2,2.51,3.91,4.87,5.75,7.29a2.33,2.33,0,0,0,1.86,1.07c1.42.1,2.84.34,4.25.56,1.64.27,3.28.58,5,.88.9-3.92,1.62-7.77,1-11.72-.73-5-3.59-6.69-8.26-4.85C59.44,21.8,56.45,24.38,53.59,27.09ZM51.19,72l4.55-5.48H46.61ZM39.87,38.82l-7.1,1.26,2.5,6.73Zm29.72,1.24L62.5,38.83l4.62,8ZM39.86,62.58l-4.6-8-2.48,6.76ZM69.6,61.35C68.74,59,68,56.89,67.1,54.6l-4.59,8ZM51.19,29.48l-4.53,5.44h9c-.24-.34-.4-.58-.58-.79C53.82,32.63,52.58,31.15,51.19,29.48Z" transform="translate(-1.94 -1.48)"/><path class="a75aa859-4147-4464-b698-ad1cdab6cea6" d="M51.16,63c-2,0-4.1,0-6.15,0a1.83,1.83,0,0,1-1.3-.75C41.56,58.64,39.46,55,37.4,51.33a1.53,1.53,0,0,1,0-1.29c2.07-3.66,4.17-7.31,6.32-10.92A1.69,1.69,0,0,1,45,38.45q6.27-.06,12.52,0a1.54,1.54,0,0,1,1.13.62q3.26,5.48,6.37,11a1.51,1.51,0,0,1,0,1.28c-2,3.64-4.12,7.26-6.26,10.83a1.94,1.94,0,0,1-1.38.8c-2.05.09-4.1,0-6.15,0Zm6.9-12.23a6.87,6.87,0,1,0-7,6.79A6.89,6.89,0,0,0,58.06,50.81Z" transform="translate(-1.94 -1.48)"/><path class="a5e41a8f-805b-48c5-ae1b-1733ef9c39cd" d="M29.52,60.45a31.26,31.26,0,0,1-10.37-4.77c-4.23-3.24-4.24-6.67,0-9.92A30.17,30.17,0,0,1,29.52,41c1.29,3.2,2.54,6.28,3.75,9.36a1.19,1.19,0,0,1-.05.83C32,54.23,30.79,57.28,29.52,60.45Z" transform="translate(-1.94 -1.48)"/><path class="a5e41a8f-805b-48c5-ae1b-1733ef9c39cd" d="M72.86,41C77,42.23,81,43.64,84.29,46.67c2.82,2.62,2.91,5.49,0,8a30.39,30.39,0,0,1-6,3.77,50.21,50.21,0,0,1-5.48,2.11c-.14-.32-.25-.54-.34-.76-1.06-2.76-2.14-5.51-3.18-8.28a1.9,1.9,0,0,1-.16-1.22C70.32,47.23,71.56,44.19,72.86,41Z" transform="translate(-1.94 -1.48)"/><path class="a5e41a8f-805b-48c5-ae1b-1733ef9c39cd" d="M48.8,74.33c-3.13,2.91-6.35,5.78-10.6,7.1-3.88,1.2-6.35-.3-7.17-4.45S31,68.69,32,64.56l6.12,1a13.16,13.16,0,0,0,2.39.31,3.21,3.21,0,0,1,2.95,1.64C45.1,69.83,47,72,48.8,74.33Z" transform="translate(-1.94 -1.48)"/><path class="a5e41a8f-805b-48c5-ae1b-1733ef9c39cd" d="M70.46,64.66c.92,4.22,1.78,8.42.77,12.72-.9,3.87-3.31,5.21-7.14,4a24.38,24.38,0,0,1-8.45-5.2c-.72-.61-1.4-1.27-2-1.85,2.12-2.7,4.16-5.32,6.23-7.93a1.32,1.32,0,0,1,.75-.38c3.17-.5,6.36-1,9.54-1.47A1.5,1.5,0,0,1,70.46,64.66Z" transform="translate(-1.94 -1.48)"/><path class="a5e41a8f-805b-48c5-ae1b-1733ef9c39cd" d="M48.87,26.94c-2.22,2.84-4.25,5.43-6.29,8a1.24,1.24,0,0,1-.71.4c-3.26.49-6.52.95-10,1.45-.28-1.43-.62-2.94-.85-4.48a21.08,21.08,0,0,1,.1-8.41c.91-3.63,3.23-5.05,6.82-3.94a18,18,0,0,1,4.73,2.25C44.86,23.65,46.84,25.36,48.87,26.94Z" transform="translate(-1.94 -1.48)"/><path class="a5e41a8f-805b-48c5-ae1b-1733ef9c39cd" d="M53.59,27.09c2.86-2.71,5.85-5.29,9.61-6.77,4.67-1.84,7.53-.15,8.26,4.85.58,3.95-.14,7.8-1,11.72-1.69-.3-3.33-.61-5-.88-1.41-.22-2.83-.46-4.25-.56a2.33,2.33,0,0,1-1.86-1.07C57.5,32,55.59,29.6,53.59,27.09Z" transform="translate(-1.94 -1.48)"/><path class="f97ba714-b6ea-4fc0-8bfd-dd16e719ff75" d="M51.19,72l-4.58-5.48h9.13Z" transform="translate(-1.94 -1.48)"/><path class="a7c2d549-88bf-4eb4-8884-4c5fce906e50" d="M39.87,38.82l-4.6,8-2.5-6.73Z" transform="translate(-1.94 -1.48)"/><path class="a7c2d549-88bf-4eb4-8884-4c5fce906e50" d="M69.59,40.06l-2.47,6.77-4.62-8Z" transform="translate(-1.94 -1.48)"/><path class="a7c2d549-88bf-4eb4-8884-4c5fce906e50" d="M39.86,62.58l-7.08-1.23,2.48-6.76Z" transform="translate(-1.94 -1.48)"/><path class="a7c2d549-88bf-4eb4-8884-4c5fce906e50" d="M69.6,61.35l-7.09,1.24,4.59-8C68,56.89,68.74,59,69.6,61.35Z" transform="translate(-1.94 -1.48)"/><path class="b127ed47-4117-45e6-a6dc-65e89c894d9e" d="M51.19,29.48c1.39,1.67,2.63,3.15,3.86,4.65.18.21.34.45.58.79h-9Z" transform="translate(-1.94 -1.48)"/><path class="e0a17344-4f47-4e73-8810-f3db8c080219" d="M58.06,50.81a6.87,6.87,0,1,1-6.81-7A6.83,6.83,0,0,1,58.06,50.81Z" transform="translate(-1.94 -1.48)"/></svg>