<svg id="affac011-71d0-4cf7-b6ac-0887895c5b15" data-name="Layer 1" xmlns="http://www.w3.org/2000/svg"
    viewBox="0 0 36.51 91.9">
    <path
        d="M42,44.21q-2.2-3.85-2.2-13v-8.1q0-5.94-1.35-8c-.9-1.37-2.5-2.28-4.82-2.72-.36,0-.86-.11-1.48-.22Q27.31,11.5,27.3,7.7a3.66,3.66,0,0,1,1.24-2.94A5.16,5.16,0,0,1,32,3.68q9.3,0,13.16,4.68t3.85,17.4v6.55q0,10.69,9.14,12.61c1,.26,1.82.44,2.37.55A4.48,4.48,0,0,1,63,46.91a4.39,4.39,0,0,1,.77,2.75,4.55,4.55,0,0,1-.94,3.17,5.11,5.11,0,0,1-3.08,1.34q-7.11,1.21-8.92,3.89c-1.21,1.78-1.82,4.81-1.82,9.11v6.39q0,12.76-3.8,17.4t-13.1,4.62a5.49,5.49,0,0,1-3.58-1,3.57,3.57,0,0,1-1.27-2.92q0-3.86,4.85-4.52c.88-.11,1.56-.22,2-.33a6.77,6.77,0,0,0,4.41-2.7q1.21-1.92,1.21-7.65V68.27q0-9.13,2.2-13t7.71-5.59Q44.21,48.06,42,44.21Z"
        transform="translate(-27.3 -3.68)" /></svg>