<svg id="a4270f91-02ba-4a30-8740-45d6da88383a" data-name="sass" xmlns="http://www.w3.org/2000/svg" viewBox="0 0 94.13 94.12"><defs><style>.a25f8930-af21-4434-85cf-2bb387ed1369{fill:#cb6699;}.bd43121d-4e43-4b8e-826f-9a904d20f96f{fill:#fdfcfd;}.f03d8126-cedd-4e06-ad28-2d260258d3c5{fill:#cc689a;}</style></defs><path class="a25f8930-af21-4434-85cf-2bb387ed1369" d="M2.93,50A47.07,47.07,0,1,1,50,97.06,47.09,47.09,0,0,1,2.93,50Zm43.89,12.5a48.19,48.19,0,0,1,4.83,0c2.65.27,5.2.93,6.83,3.34,1.43,2.1,1.11,3.87-.91,5.41-.49.37-1.29.76-.71,1.42a2,2,0,0,0,1.75.15,5.25,5.25,0,0,0,3.14-3.59A7,7,0,0,0,60,62.71c-2.89-3.37-6.77-4-10.91-3.62-1.32.11-2.74.78-3.91.46S43.11,58,42.09,57.14c-.06,0-.14-.08-.2-.13-2.1-1.76-4.29-3.43-6.28-5.31a7,7,0,0,1-2.31-6.8,11,11,0,0,1,3.31-5.84A42.26,42.26,0,0,1,60.27,27.48a13.12,13.12,0,0,1,8.25,1.15,3.58,3.58,0,0,1,2,2.82c.29,2.41-.78,4.36-2.16,6.14a20.44,20.44,0,0,1-12.29,7.48c-3.78.8-7.56,1.27-10.7-1.86a1,1,0,0,0-.93,0,1.14,1.14,0,0,0-.43.94A5.26,5.26,0,0,0,45,46a8.83,8.83,0,0,0,5.65,3.07,23.83,23.83,0,0,0,10.67-1A19.8,19.8,0,0,0,74.7,36c2.49-6.29,0-11.31-6.4-13.36a24.33,24.33,0,0,0-13.11-.26,53,53,0,0,0-19.13,9,27.52,27.52,0,0,0-8.45,9.33c-2,3.77-1.78,7.38,1,10.58a49,49,0,0,0,5.9,5.52c2,1.63,4.16,3,6.36,4.61-.48.27-.83.44-1.15.65-2.48,1.71-5,3.3-7.4,5.17a8.81,8.81,0,0,0-3.54,7.92,5,5,0,0,0,4.87,4.92,12.8,12.8,0,0,0,12.85-8.21A14.78,14.78,0,0,0,46.82,62.48Z" transform="translate(-2.93 -2.94)"/><path class="bd43121d-4e43-4b8e-826f-9a904d20f96f" d="M46.82,62.48a14.78,14.78,0,0,1-.31,9.4,12.8,12.8,0,0,1-12.85,8.21,5,5,0,0,1-4.87-4.92,8.81,8.81,0,0,1,3.54-7.92c2.35-1.87,4.92-3.46,7.4-5.17.32-.21.67-.38,1.15-.65-2.2-1.58-4.38-3-6.36-4.61a49,49,0,0,1-5.9-5.52c-2.79-3.2-3-6.81-1-10.58a27.52,27.52,0,0,1,8.45-9.33,53,53,0,0,1,19.13-9,24.33,24.33,0,0,1,13.11.26c6.45,2,8.89,7.07,6.4,13.36a19.8,19.8,0,0,1-13.43,12,23.83,23.83,0,0,1-10.67,1A8.83,8.83,0,0,1,45,46a5.26,5.26,0,0,1-.89-1.88,1.14,1.14,0,0,1,.43-.94,1,1,0,0,1,.93,0c3.14,3.13,6.92,2.66,10.7,1.86a20.44,20.44,0,0,0,12.29-7.48c1.38-1.78,2.45-3.73,2.16-6.14a3.58,3.58,0,0,0-2-2.82,13.12,13.12,0,0,0-8.25-1.15A42.26,42.26,0,0,0,36.61,39.06,11,11,0,0,0,33.3,44.9a7,7,0,0,0,2.31,6.8c2,1.88,4.18,3.55,6.28,5.31.06.05.14.08.2.13,1,.84,1.92,2.09,3.09,2.41s2.59-.35,3.91-.46c4.14-.36,8,.25,10.91,3.62a7,7,0,0,1,1.75,6.53,5.25,5.25,0,0,1-3.14,3.59,2,2,0,0,1-1.75-.15c-.58-.66.22-1.05.71-1.42,2-1.54,2.34-3.31.91-5.41-1.63-2.41-4.18-3.07-6.83-3.34A48.19,48.19,0,0,0,46.82,62.48ZM43,64.64c-1.64.42-5.36,3-6.89,5a12.05,12.05,0,0,0-1.75,3.4c-.58,1.78.33,2.64,2.14,2.22A9.07,9.07,0,0,0,43,64.64Z" transform="translate(-2.93 -2.94)"/><path class="f03d8126-cedd-4e06-ad28-2d260258d3c5" d="M43,64.64a9.07,9.07,0,0,1-6.5,10.67c-1.81.42-2.72-.44-2.14-2.22a12.05,12.05,0,0,1,1.75-3.4C37.67,67.67,41.39,65.06,43,64.64Z" transform="translate(-2.93 -2.94)"/></svg>