<svg id="f159e2f6-e738-4897-816e-a96984b11d68" data-name="Scala" xmlns="http://www.w3.org/2000/svg" viewBox="0 0 92.96 92.96"><defs><style>.ab1f52a8-7912-406d-936d-e14d8f905b10{fill:#0b7070;}.b56cace9-6b79-43b9-9bdd-9f9c182eb43d{fill:#f80101;}.b6208503-41fc-4008-af83-da3eb2f4a806{fill:#c90303;}.bd3eea6b-1909-4c33-8238-da02a185bdcb{fill:#ed0101;}.a80e07c5-9b7a-4f45-aa87-8df7dc6b2161{fill:#d20101;}.b613dd64-002c-4703-87b4-e6c83cd80380{fill:#f20101;}.a3d872da-b453-437a-96c5-e77a1453b1b4{fill:#d10101;}.b4027c38-df3d-4edb-8c5d-0431488a1add{fill:#e00101;}.b7ba1575-992a-4252-a49d-d390f57106fa{fill:#e90101;}.b11929bb-4bb4-44fb-af9c-38160d658a65{fill:#dc0101;}.ffa02448-865e-49ab-b80d-f5c79cf71605{fill:#d80101;}.bdc2d527-7194-431a-9792-dbd3bdd6ae58{fill:#d90101;}.b419096c-4c1f-41cd-afbd-949bb95c931e{fill:#cf0101;}.a3017819-dcc8-4d22-bd58-f863867bbcff{fill:#e40000;}.a9561742-5054-4502-8ab3-6ca6f68a8b76{fill:#fa0404;}.a6f6bc77-e709-4efa-8004-3f40067248f5{fill:#c80404;}.ee8cf149-43bb-4e40-90ab-6dfa2fb5aac1{fill:#373434;}.ae3d6636-6701-4897-91cf-7d65818771f3{fill:#080606;}.b212541d-6691-42b8-ac0f-d1af8add20f3{fill:#474444;}.f9b1a56f-4579-4e3d-a995-70702576abc5{fill:#3c3a3a;}.f033c47a-9198-4ad9-aace-f0b9c7751493{fill:#fe4141;}.f6fbb993-7b4e-44f8-b9d0-e37ece070740{fill:#121010;}.f86d5b1e-c87c-4eca-a53b-26f5be1b9525{fill:#0e0b0b;}.a4e22ffa-daef-412c-99d6-1f5a1fe067f0{fill:#211d1d;}.bb302557-9b0f-4954-88ec-c1e8e0c2e76f{fill:#191717;}.e7775347-2704-497d-8624-0728f1a5001d{fill:#282525;}.a851c00d-2865-4924-80d0-f54d06c2e6df{fill:#2f2c2c;}.a0dfb046-65b4-4762-aa8b-2f7ef7b39b21{fill:#e20000;}.a03e7269-0855-4334-8263-15f23823bef3{fill:#f30000;}.aa460887-d2fa-4770-b037-8ae978b89306{fill:#eb0000;}</style></defs><circle class="ab1f52a8-7912-406d-936d-e14d8f905b10" cx="46.48" cy="46.48" r="46.48"/><path class="b56cace9-6b79-43b9-9bdd-9f9c182eb43d" d="M62.77,20.1c2.21-.85,4.43-1.65,6.61-2.55a12.64,12.64,0,0,0,2-1.4v1.6c0,3.82-.12,7.64.05,11.45a4.7,4.7,0,0,1-2.37,4.65L66.29,35l-2.44.76-.79.1A14.9,14.9,0,0,1,62.78,34C62.76,29.37,62.77,24.73,62.77,20.1Z" transform="translate(-3.59 -3.56)"/><path class="b6208503-41fc-4008-af83-da3eb2f4a806" d="M28.83,41.72c0-5.09-.08-10.18,0-15.27,0-.33.57-.88.95-.95,2.08-.39,4.17-.66,6.26-1q0,7.92,0,15.84l-.27.24Z" transform="translate(-3.59 -3.56)"/><path class="bd3eea6b-1909-4c33-8238-da02a185bdcb" d="M62.77,20.1c0,4.63,0,9.27,0,13.91a14.9,14.9,0,0,0,.28,1.84l-2.45.74-3.27.71-1.59.14,0-15.79Z" transform="translate(-3.59 -3.56)"/><path class="a80e07c5-9b7a-4f45-aa87-8df7dc6b2161" d="M36,40.36q0-7.92,0-15.84l7-.91c0,4.67,0,9.33,0,14a12.73,12.73,0,0,0,.26,1.84l-3.52.61Z" transform="translate(-3.59 -3.56)"/><path class="b613dd64-002c-4703-87b4-e6c83cd80380" d="M66,77.44l-6.5,1.85-.06-15.84.89-.33,3.24-.81,2.66-.65A14.76,14.76,0,0,0,66,63.52C66,68.16,66,72.8,66,77.44Z" transform="translate(-3.59 -3.56)"/><path class="a3d872da-b453-437a-96c5-e77a1453b1b4" d="M34.91,46l6.5-.89V60.94l-.55.25-3.52.48-2.41.14Q34.93,53.92,34.91,46Z" transform="translate(-3.59 -3.56)"/><path class="b4027c38-df3d-4edb-8c5d-0431488a1add" d="M53,80.57l-6.47,1q0-7.89,0-15.79L49,65.21l4.06-.5Z" transform="translate(-3.59 -3.56)"/><path class="b7ba1575-992a-4252-a49d-d390f57106fa" d="M53,80.57V64.71l0-.1,4.08-.77,2.38-.39.06,15.84Z" transform="translate(-3.59 -3.56)"/><path class="b11929bb-4bb4-44fb-af9c-38160d658a65" d="M43.3,39.44A12.73,12.73,0,0,1,43,37.6c0-4.66,0-9.32,0-14l6.46-.93,0,15.8-3.25.61Z" transform="translate(-3.59 -3.56)"/><path class="ffa02448-865e-49ab-b80d-f5c79cf71605" d="M46.54,65.74l0,15.79-6.24.91V66.59l4.6-.82.31,0Z" transform="translate(-3.59 -3.56)"/><path class="b6208503-41fc-4008-af83-da3eb2f4a806" d="M34.91,46q0,7.89,0,15.79l-6.05,1.25c-.05-.89-.13-1.77-.14-2.66,0-4.08,0-8.17,0-12.25,0-.9.26-1.32,1.14-1.43C31.55,46.52,33.23,46.26,34.91,46Z" transform="translate(-3.59 -3.56)"/><path class="bdc2d527-7194-431a-9792-dbd3bdd6ae58" d="M41.41,60.94V45.13l3-.49,1.85-.29,1.36-.13c0,2.25,0,4.49,0,6.73.06,3,.18,6.07.27,9.11l-2.72.55Z" transform="translate(-3.59 -3.56)"/><path class="b419096c-4c1f-41cd-afbd-949bb95c931e" d="M40.32,66.59V82.44l-6.18.83q0-6.85,0-13.72a19.17,19.17,0,0,0-.26-2.12Z" transform="translate(-3.59 -3.56)"/><path class="a3017819-dcc8-4d22-bd58-f863867bbcff" d="M49.52,38.48l0-15.8,6.24-1q0,7.89,0,15.79l-1.9.5-3.79.59Z" transform="translate(-3.59 -3.56)"/><path class="a9561742-5054-4502-8ab3-6ca6f68a8b76" d="M66,77.44c0-4.64,0-9.28,0-13.92a14.76,14.76,0,0,1,.23-1.86l0-.19c1.93-.65,3.89-1.26,5-3.15,0,5.07.06,10.14,0,15.2a2.17,2.17,0,0,1-.71,1.64C69.16,76,67.57,76.69,66,77.44Z" transform="translate(-3.59 -3.56)"/><path class="a6f6bc77-e709-4efa-8004-3f40067248f5" d="M33.83,67.43a19.17,19.17,0,0,1,.26,2.12q0,6.86,0,13.72l-5.4.92V71c0-2.83,0-2.84,2.82-3.25C32.32,67.59,33.08,67.52,33.83,67.43Z" transform="translate(-3.59 -3.56)"/><path class="a9561742-5054-4502-8ab3-6ca6f68a8b76" d="M71.33,37.05c0,5.07.06,10.14,0,15.22,0,1.66-1.4,2.23-2.59,2.91l-.86.33a11,11,0,0,1-.27-1.69c0-4.67,0-9.33,0-14Z" transform="translate(-3.59 -3.56)"/><path class="ee8cf149-43bb-4e40-90ab-6dfa2fb5aac1" d="M46.27,44.35l-1.85.29-3.09-.75c-.51-.12-1-.2-1.55-.29V40.05l3.52-.61,3-.35Z" transform="translate(-3.59 -3.56)"/><path class="ae3d6636-6701-4897-91cf-7d65818771f3" d="M67.92,55.51l.86-.33c1.87.74,2.54,1.57,2.55,3.14-1.15,1.89-3.11,2.5-5,3.15L66,56.38Z" transform="translate(-3.59 -3.56)"/><path class="ae3d6636-6701-4897-91cf-7d65818771f3" d="M71.33,37.05l-3.69,2.78-1.32.36,0-5.2,2.77-1.14C70.14,34.68,71.6,35.25,71.33,37.05Z" transform="translate(-3.59 -3.56)"/><path class="ee8cf149-43bb-4e40-90ab-6dfa2fb5aac1" d="M41.41,60.94l3.77-.33c0,1.7,0,3.4,0,5.11l-.31,0-4.07-.71c0-1.29,0-2.58,0-3.87Z" transform="translate(-3.59 -3.56)"/><path class="b212541d-6691-42b8-ac0f-d1af8add20f3" d="M28.88,63.06l6.05-1.25,2.41-.14c0,1,0,2,0,3-2.48-.36-5-.7-7.43-1.08A4.26,4.26,0,0,1,28.88,63.06Z" transform="translate(-3.59 -3.56)"/><path class="f9b1a56f-4579-4e3d-a995-70702576abc5" d="M39.78,40.05V43.6l-4.06-.54V40.6l.27-.24Z" transform="translate(-3.59 -3.56)"/><path class="f9b1a56f-4579-4e3d-a995-70702576abc5" d="M37.35,64.63c0-1,0-2,0-3l3.52-.48c0,1.29,0,2.58,0,3.87Z" transform="translate(-3.59 -3.56)"/><path class="b212541d-6691-42b8-ac0f-d1af8add20f3" d="M35.73,40.6v2.46l-6.89-1.34Z" transform="translate(-3.59 -3.56)"/><path class="f033c47a-9198-4ad9-aace-f0b9c7751493" d="M71.29,16.26c-.06-.05-.15-.09-.15-.13a1.15,1.15,0,0,1,.1-.23c.05,0,.13.09.13.14S71.32,16.18,71.29,16.26Z" transform="translate(-3.59 -3.56)"/><path class="f6fbb993-7b4e-44f8-b9d0-e37ece070740" d="M60.61,36.59l2.45-.74.79-.1c0,1.73,0,3.46,0,5.19l-3.23.83Z" transform="translate(-3.59 -3.56)"/><path class="f86d5b1e-c87c-4eca-a53b-26f5be1b9525" d="M63.86,40.94V35.75L66.29,35l0,5.2Z" transform="translate(-3.59 -3.56)"/><path class="a4e22ffa-daef-412c-99d6-1f5a1fe067f0" d="M53.85,37.94l1.9-.5,1.59-.14c0,1.73,0,3.46,0,5.18l-3.49.63Z" transform="translate(-3.59 -3.56)"/><path class="bb302557-9b0f-4954-88ec-c1e8e0c2e76f" d="M57.36,42.48c0-1.72,0-3.45,0-5.18l3.27-.71c0,1.73,0,3.45,0,5.18l-.29.23Z" transform="translate(-3.59 -3.56)"/><path class="bb302557-9b0f-4954-88ec-c1e8e0c2e76f" d="M59.47,63.45l-2.38.39-.27-5.13L60.34,58l0,5.16Z" transform="translate(-3.59 -3.56)"/><path class="f6fbb993-7b4e-44f8-b9d0-e37ece070740" d="M60.36,63.12l0-5.16.3-.22,2.94-.59,0,5.16Z" transform="translate(-3.59 -3.56)"/><path class="f86d5b1e-c87c-4eca-a53b-26f5be1b9525" d="M63.6,62.31l0-5.16L66,56.38l.27,5.09,0,.19Z" transform="translate(-3.59 -3.56)"/><path class="e7775347-2704-497d-8624-0728f1a5001d" d="M53,64.71l-4.06.5c0-1.72,0-3.44,0-5.16L53,59.34l0,5.27Z" transform="translate(-3.59 -3.56)"/><path class="a851c00d-2865-4924-80d0-f54d06c2e6df" d="M49,60.05v5.16l-2.44.53-1.31,0c0-1.71,0-3.41,0-5.11l2.72-.55Z" transform="translate(-3.59 -3.56)"/><path class="a4e22ffa-daef-412c-99d6-1f5a1fe067f0" d="M53,64.61l0-5.27L54.12,59l2.7-.32.27,5.13Z" transform="translate(-3.59 -3.56)"/><path class="a851c00d-2865-4924-80d0-f54d06c2e6df" d="M46.27,44.35V39.09l3.25-.61.54.05c0,1.74,0,3.49,0,5.23l-2.47.46Z" transform="translate(-3.59 -3.56)"/><path class="a0dfb046-65b4-4762-aa8b-2f7ef7b39b21" d="M47.63,44.22l2.47-.46,3.7-.46a7.34,7.34,0,0,1,.3,1.51c0,4.74,0,9.48,0,14.22L53,59.34,49,60.05H47.9c-.09-3-.21-6.07-.27-9.11C47.59,48.71,47.63,46.47,47.63,44.22Z" transform="translate(-3.59 -3.56)"/><path class="e7775347-2704-497d-8624-0728f1a5001d" d="M53.8,43.3l-3.7.46c0-1.74,0-3.49,0-5.23l3.79-.59c0,1.72,0,3.45,0,5.17A1.07,1.07,0,0,1,53.8,43.3Z" transform="translate(-3.59 -3.56)"/><path class="a03e7269-0855-4334-8263-15f23823bef3" d="M66,56.38l-2.44.77-2.94.59a10.07,10.07,0,0,1-.29-1.7c0-4.68,0-9.36,0-14l.29-.23,3.23-.83,2.46-.75,1.32-.36c0,4.66,0,9.32,0,14a11,11,0,0,0,.27,1.69Z" transform="translate(-3.59 -3.56)"/><path class="aa460887-d2fa-4770-b037-8ae978b89306" d="M60.34,42c0,4.68,0,9.36,0,14a10.07,10.07,0,0,0,.29,1.7l-.3.22-3.52.75-2.7.32c0-4.74,0-9.48,0-14.22a7.34,7.34,0,0,0-.3-1.51,1.07,1.07,0,0,0,.07-.19l3.49-.63Z" transform="translate(-3.59 -3.56)"/></svg>