<svg id="b48e5f53-f015-4351-9059-0f1b5b224aa0" data-name="ts" xmlns="http://www.w3.org/2000/svg" viewBox="0 0 96.55 96.59"><defs><style>.b3412800-e290-4092-a758-f95c2cf12162{fill:#0178ce;}.f0c09a71-72aa-4331-a690-735925472bb9{fill:#f0f0f1;}.e109fdaf-90b7-4b34-b027-6bf6d545ace4{fill:#f1f1f1;}</style></defs><path class="b3412800-e290-4092-a758-f95c2cf12162" d="M46.23,1.71h7.36a2.78,2.78,0,0,0,.48.18c1.92.27,3.88.41,5.77.83C74.24,6,85.15,14,92.35,26.85a46.35,46.35,0,0,1,5.59,28.43c-.27,2.36-.8,4.69-1.2,7a2.22,2.22,0,0,1-.62-.37,19,19,0,0,0-8.21-6c-2-.77-4-1.45-6-2.26a15.78,15.78,0,0,1-5.66-3.47,4.57,4.57,0,0,1,1.42-7.45,6.37,6.37,0,0,1,5.13-.14,6.46,6.46,0,0,1,3.77,3.85l9.28-6.71c-1-.91-2-1.69-2.86-2.46a21.76,21.76,0,0,0-15.54-5.08,12.19,12.19,0,0,0-9.52,4.8A17,17,0,0,0,64.61,47c-.31,6.22,2,10.94,7.68,13.83,2.59,1.34,5.24,2.56,7.84,3.88a50.26,50.26,0,0,1,4.8,2.58,4.73,4.73,0,0,1,.75,7.44,6.77,6.77,0,0,1-4,1.76c-3.4.58-6.45-.06-8.86-2.68-1-1.12-1.9-2.38-2.87-3.6l-8.93,5.37c3,4.8,6.78,8.4,12.2,10.07a26.7,26.7,0,0,0,8.2.9c-1.67,1.26-3.28,2.63-5,3.77a46.86,46.86,0,0,1-36.82,6.77A48.08,48.08,0,0,1,2.24,56.94c-.15-1.06-.34-2.12-.51-3.18V46.21a2.15,2.15,0,0,0,.18-.48c.32-2,.52-4.12,1-6.13A48.22,48.22,0,0,1,43,2.22C44.11,2.07,45.17,1.88,46.23,1.71ZM43.39,43.38h15V33.8h-41v9.64H32.51v42H43.39Z" transform="translate(-1.73 -1.71)"/><path class="f0c09a71-72aa-4331-a690-735925472bb9" d="M96.74,62.32a46.91,46.91,0,0,1-5.22,12.44,49.14,49.14,0,0,1-8.66,10.71,15,15,0,0,1-1.41,1.08,26.7,26.7,0,0,1-8.2-.9C67.83,84,64,80.38,61.05,75.58L70,70.21c1,1.22,1.84,2.48,2.87,3.6,2.41,2.62,5.46,3.26,8.86,2.68a6.77,6.77,0,0,0,4-1.76,4.73,4.73,0,0,0-.75-7.44,50.26,50.26,0,0,0-4.8-2.58c-2.6-1.32-5.25-2.54-7.84-3.88-5.63-2.89-8-7.61-7.68-13.83a17,17,0,0,1,3.33-9.92,12.19,12.19,0,0,1,9.52-4.8A21.76,21.76,0,0,1,93,37.36c.91.77,1.81,1.55,2.86,2.46l-9.28,6.71a6.46,6.46,0,0,0-3.77-3.85,6.37,6.37,0,0,0-5.13.14,4.57,4.57,0,0,0-1.42,7.45,15.78,15.78,0,0,0,5.66,3.47c2,.81,4,1.49,6,2.26a19,19,0,0,1,8.21,6A2.22,2.22,0,0,0,96.74,62.32Z" transform="translate(-1.73 -1.71)"/><path class="e109fdaf-90b7-4b34-b027-6bf6d545ace4" d="M43.39,43.38V85.46H32.51v-42H17.44V33.8h41v9.58Z" transform="translate(-1.73 -1.71)"/></svg>